<?xml version="1.0" encoding="utf-8"?>
<!-- Generator: Adobe Illustrator 19.0.0, SVG Export Plug-In . SVG Version: 6.00 Build 0)  -->
<svg version="1.0" id="Layer_1" xmlns="http://www.w3.org/2000/svg" xmlns:xlink="http://www.w3.org/1999/xlink" x="0px" y="0px"
	 width="1400px" height="1400px" viewBox="0 0 1400 1400" enable-background="new 0 0 1400 1400" xml:space="preserve">
<g id="XMLID_550_">
	<rect id="XMLID_307_" x="33" y="33" fill="#E8E5D1" width="1334" height="1334"/>
	<g id="XMLID_535_">
		<polygon id="XMLID_306_" fill="#8DC63F" points="700,1036.2 127.1,1036.2 271.4,909.3 700,909.3 		"/>
		<polygon id="XMLID_304_" fill="#8DC63F" points="700,1036.2 1272.9,1036.2 1128.6,909.3 700,909.3 		"/>
		<rect id="XMLID_198_" x="127.1" y="1036.2" fill="#69953E" width="1145.8" height="36.5"/>
		<rect id="XMLID_156_" x="283.2" y="692" fill="#37454D" width="220.2" height="204.6"/>
		<rect id="XMLID_183_" x="283.2" y="896.6" fill="#1E2B32" width="220.2" height="21.8"/>
		<polygon id="XMLID_185_" fill="#37454D" points="1125.9,868.8 940.6,868.8 698.6,405.6 1125.9,404.2 		"/>
		<rect id="XMLID_184_" x="940.6" y="868.8" fill="#1E2B32" width="185.3" height="49.6"/>
		<polygon id="XMLID_385_" fill="#465761" points="940.6,931.3 459.4,931.3 459.4,693.2 700,444.5 940.6,693.2 		"/>
		<rect id="XMLID_384_" x="459.4" y="931.3" fill="#1E2B32" width="481.1" height="24.9"/>
		<g id="XMLID_364_">
			<g id="XMLID_365_">
				<rect id="XMLID_383_" x="541" y="735.6" fill="#D1D3D4" width="109.8" height="195.7"/>
				<g id="XMLID_378_">
					<rect id="XMLID_382_" x="555" y="754.9" fill="#6D6E71" width="38.3" height="76.6"/>
					<rect id="XMLID_381_" x="598.5" y="754.9" fill="#6D6E71" width="38.3" height="76.6"/>
					<rect id="XMLID_380_" x="555" y="835.3" fill="#6D6E71" width="38.3" height="76.6"/>
					<rect id="XMLID_379_" x="598.5" y="835.3" fill="#6D6E71" width="38.3" height="76.6"/>
				</g>
				<g id="XMLID_374_">
					<rect id="XMLID_377_" x="532.5" y="727" fill="#FFFFFF" width="8.5" height="204.3"/>
					<rect id="XMLID_376_" x="650.8" y="727.3" fill="#FFFFFF" width="8.5" height="204"/>
					<rect id="XMLID_375_" x="532.5" y="727.1" fill="#FFFFFF" width="126.8" height="8.5"/>
				</g>
				<g id="XMLID_371_">
					<circle id="XMLID_373_" opacity="0.21" fill="#565759" cx="642.6" cy="836.5" r="7.2"/>
					<circle id="XMLID_372_" fill="#565759" cx="640.8" cy="835.2" r="7.2"/>
				</g>
				<g id="XMLID_366_">
					<polygon id="XMLID_370_" fill="#808285" points="598.5,800.7 598.5,831.6 613.2,831.6 					"/>
					<polygon id="XMLID_369_" fill="#808285" points="593.2,789.5 576.8,754.9 555,754.9 555,759.5 589.2,831.6 593.2,831.6 					
						"/>
					<polygon id="XMLID_368_" fill="#808285" points="636.8,911.9 636.8,881.2 615,835.3 598.5,835.3 598.5,851.2 627.4,911.9 					
						"/>
					<polygon id="XMLID_367_" fill="#808285" points="593.2,835.3 591,835.3 593.2,840 					"/>
				</g>
			</g>
		</g>
		<polygon id="XMLID_363_" opacity="0.12" points="722.6,467 700.8,444.5 460.3,693.2 460.3,731.2 		"/>
		<rect id="XMLID_218_" x="383" y="335.4" fill="#465761" width="38.8" height="108.7"/>
		<rect id="XMLID_220_" x="378.4" y="319.7" fill="#283943" width="47.9" height="24.7"/>
		<polygon id="XMLID_333_" fill="#213038" points="700,405.6 666.8,439.9 658.9,448.1 630.3,477.6 622.4,485.9 593.8,515.4 
			587.4,522 557.3,553.1 549.4,561.3 520.8,590.8 512.9,599.1 484.3,628.6 476.4,636.8 413.6,701.7 265.4,700 265.4,405.6 		"/>
		<g id="XMLID_260_">
			<rect id="XMLID_259_" x="293.9" y="405.6" fill="#2C404A" width="8" height="116.4"/>
			<rect id="XMLID_261_" x="293.9" y="546.6" fill="#2C404A" width="8" height="116.4"/>
			<rect id="XMLID_263_" x="330.4" y="405.6" fill="#2C404A" width="8" height="116.4"/>
			<rect id="XMLID_262_" x="330.4" y="546.6" fill="#2C404A" width="8" height="116.4"/>
			<rect id="XMLID_265_" x="366.9" y="405.6" fill="#2C404A" width="8" height="116.4"/>
			<rect id="XMLID_264_" x="366.9" y="546.6" fill="#2C404A" width="8" height="116.4"/>
			<rect id="XMLID_268_" x="403.4" y="405.6" fill="#2C404A" width="8" height="116.4"/>
			<rect id="XMLID_267_" x="403.4" y="546.6" fill="#2C404A" width="8" height="116.4"/>
			<rect id="XMLID_270_" x="439.9" y="405.6" fill="#2C404A" width="8" height="116.4"/>
			<rect id="XMLID_269_" x="439.9" y="546.6" fill="#2C404A" width="8" height="116.4"/>
			<rect id="XMLID_272_" x="476.4" y="405.6" fill="#2C404A" width="8" height="116.4"/>
			<polygon id="XMLID_291_" fill="#2C404A" points="484.3,546.6 484.3,628.6 476.4,636.8 476.4,546.6 			"/>
			<rect id="XMLID_274_" x="512.9" y="405.6" fill="#2C404A" width="8" height="116.4"/>
			<polygon id="XMLID_289_" fill="#2C404A" points="520.8,546.6 520.8,590.8 512.9,599.1 512.9,546.6 			"/>
			<rect id="XMLID_278_" x="549.4" y="405.6" fill="#2C404A" width="8" height="116.4"/>
			<polygon id="XMLID_288_" fill="#2C404A" points="557.3,546.6 557.3,553.1 549.4,561.3 549.4,546.6 			"/>
			<polygon id="XMLID_279_" fill="#2C404A" points="593.8,515.4 593.8,405.6 585.9,405.6 585.9,522 587.4,522 			"/>
			<polygon id="XMLID_285_" fill="#2C404A" points="630.3,405.6 630.3,477.6 622.4,485.9 622.4,405.6 			"/>
			<polygon id="XMLID_282_" fill="#2C404A" points="666.8,405.6 666.8,439.9 658.9,448.1 658.9,405.6 			"/>
		</g>
		<rect id="XMLID_275_" x="265.4" y="682.8" fill="#465761" width="187.9" height="18.9"/>
		<g id="XMLID_361_">
			<polygon id="XMLID_362_" fill="#283943" points="965.8,721.5 700,446.7 434.2,721.5 413.6,701.7 700,405.6 986.4,701.7 			"/>
		</g>
		<g id="XMLID_334_">
			<g id="XMLID_348_">
				<rect id="XMLID_360_" x="733.2" y="734.4" fill="#6D6E71" width="38" height="146.5"/>
				<g id="XMLID_355_">
					<rect id="XMLID_359_" x="727" y="728.3" fill="#FFFFFF" width="6.2" height="158.7"/>
					<rect id="XMLID_358_" x="771.2" y="728.3" fill="#FFFFFF" width="6.2" height="158.7"/>
					<rect id="XMLID_357_" x="727" y="728.3" fill="#FFFFFF" width="50.4" height="6.2"/>
					<rect id="XMLID_356_" x="727" y="880.8" fill="#FFFFFF" width="50.4" height="6.2"/>
				</g>
				<polygon id="XMLID_354_" fill="#808285" points="733.2,778.2 771.2,879.3 771.2,836.8 733.2,735.8 				"/>
				<g id="XMLID_349_">
					<rect id="XMLID_353_" x="733.2" y="734.5" fill="#D1D3D4" width="4.7" height="146.3"/>
					<rect id="XMLID_352_" x="766.5" y="734.5" fill="#D1D3D4" width="4.7" height="146.3"/>
					<rect id="XMLID_351_" x="733.2" y="734.5" fill="#D1D3D4" width="38" height="5.7"/>
					<rect id="XMLID_350_" x="733.2" y="875.1" fill="#D1D3D4" width="38" height="5.7"/>
				</g>
			</g>
			<g id="XMLID_335_">
				<rect id="XMLID_347_" x="805.6" y="734.4" fill="#6D6E71" width="38" height="146.5"/>
				<g id="XMLID_342_">
					<rect id="XMLID_346_" x="799.4" y="728.3" fill="#FFFFFF" width="6.2" height="158.7"/>
					<rect id="XMLID_345_" x="843.6" y="728.3" fill="#FFFFFF" width="6.2" height="158.7"/>
					<rect id="XMLID_344_" x="799.4" y="728.3" fill="#FFFFFF" width="50.4" height="6.2"/>
					<rect id="XMLID_343_" x="799.4" y="880.8" fill="#FFFFFF" width="50.4" height="6.2"/>
				</g>
				<polygon id="XMLID_341_" fill="#808285" points="805.6,778.2 843.6,879.3 843.6,836.8 805.6,735.8 				"/>
				<g id="XMLID_336_">
					<rect id="XMLID_340_" x="805.6" y="734.5" fill="#D1D3D4" width="4.7" height="146.3"/>
					<rect id="XMLID_339_" x="838.9" y="734.5" fill="#D1D3D4" width="4.7" height="146.3"/>
					<rect id="XMLID_338_" x="805.6" y="734.5" fill="#D1D3D4" width="38" height="5.7"/>
					<rect id="XMLID_337_" x="805.6" y="875.1" fill="#D1D3D4" width="38" height="5.7"/>
				</g>
			</g>
		</g>
		<g id="XMLID_157_">
			<rect id="XMLID_181_" x="212.7" y="833.8" fill="#414042" width="13.8" height="175.3"/>
			<rect id="XMLID_180_" x="212.7" y="833.8" fill="#414042" width="142.4" height="13.8"/>
			<rect id="XMLID_179_" x="241.8" y="856.2" fill="#FFFFFF" width="104.2" height="87.9"/>
			<rect id="XMLID_178_" x="253.7" y="847.5" fill="#58595B" width="9.9" height="8.6"/>
			<rect id="XMLID_177_" x="321" y="847.5" fill="#58595B" width="9.9" height="8.6"/>
			<g id="XMLID_168_">
				<path id="XMLID_175_" fill="#808285" d="M281.9,874.6v5.6h-8.7v4.5h8.1v5.3h-8.1v10.7h-6.8v-26.1H281.9z"/>
				<path id="XMLID_172_" fill="#808285" d="M283.7,881.4c0.3-1.7,0.8-3.1,1.6-4.2c0.7-1.1,1.7-1.9,2.9-2.4c1.2-0.5,2.7-0.7,4.4-0.7
					c1.7,0,3.2,0.2,4.4,0.7c1.2,0.5,2.2,1.3,2.9,2.4c0.7,1.1,1.3,2.5,1.6,4.2c0.3,1.7,0.5,3.8,0.5,6.2c0,2.4-0.2,4.5-0.5,6.2
					c-0.3,1.7-0.8,3.1-1.6,4.2c-0.7,1.1-1.7,1.9-2.9,2.3c-1.2,0.5-2.7,0.7-4.4,0.7c-1.7,0-3.2-0.2-4.4-0.7c-1.2-0.5-2.2-1.2-2.9-2.3
					c-0.7-1.1-1.3-2.5-1.6-4.2c-0.3-1.7-0.5-3.8-0.5-6.2C283.2,885.2,283.4,883.1,283.7,881.4z M290.3,892c0,1.2,0.2,2.1,0.3,2.8
					c0.2,0.7,0.4,1.2,0.7,1.4c0.3,0.3,0.7,0.4,1.2,0.4c0.5,0,0.9-0.1,1.2-0.4c0.3-0.3,0.5-0.7,0.7-1.4c0.2-0.7,0.3-1.6,0.3-2.8
					c0-1.2,0.1-2.6,0.1-4.4s0-3.2-0.1-4.4c0-1.2-0.2-2.1-0.3-2.8c-0.2-0.7-0.4-1.2-0.7-1.4c-0.3-0.3-0.7-0.4-1.2-0.4
					c-0.5,0-0.9,0.1-1.2,0.4c-0.3,0.3-0.5,0.7-0.7,1.4c-0.2,0.7-0.3,1.6-0.3,2.8c0,1.2-0.1,2.6-0.1,4.4S290.2,890.9,290.3,892z"/>
				<path id="XMLID_169_" fill="#808285" d="M314.9,874.6c1.3,0,2.4,0.2,3.3,0.5c0.9,0.3,1.7,0.8,2.2,1.4c0.6,0.6,1,1.4,1.2,2.2
					c0.3,0.9,0.4,1.8,0.4,2.8c0,1.8-0.4,3.2-1.1,4.2c-0.7,1.1-1.8,1.7-3.4,2v0.1c1.6,0.1,2.8,0.7,3.4,1.7c0.6,1,0.9,2.4,0.9,4.1v2.2
					c0,0.3,0,0.7,0,1.1c0,0.4,0,0.7,0,1c0,0.3,0.1,0.6,0.1,0.9c0,0.3,0.1,0.5,0.2,0.6c0.1,0.1,0.2,0.3,0.3,0.4
					c0.1,0.1,0.3,0.3,0.5,0.4v0.4h-7.2c-0.2-0.3-0.3-0.7-0.4-1.2c-0.1-0.5-0.1-0.9-0.2-1.4c0-0.5-0.1-0.9-0.1-1.3c0-0.4,0-0.8,0-1
					V894c0-0.7,0-1.3-0.1-1.8c-0.1-0.5-0.2-0.9-0.4-1.2c-0.2-0.3-0.4-0.5-0.7-0.6c-0.3-0.1-0.6-0.2-1-0.2h-1.8v10.4h-6.8v-26.1
					H314.9z M312.4,885.7c1,0,1.7-0.3,2.2-0.9c0.5-0.6,0.7-1.3,0.7-2.2c0-1.1-0.2-1.9-0.7-2.3c-0.5-0.5-1.2-0.7-2.2-0.7h-1.3v6.1
					H312.4z"/>
			</g>
			<g id="XMLID_158_">
				<path id="XMLID_166_" fill="#808285" d="M274.1,908.8c0-0.6-0.1-1.1-0.4-1.6c-0.3-0.4-0.6-0.7-1.2-0.7c-0.6,0-1,0.2-1.3,0.6
					c-0.3,0.4-0.4,0.8-0.4,1.3c0,0.7,0.2,1.2,0.7,1.6c0.4,0.4,1,0.7,1.6,1c0.7,0.3,1.4,0.6,2.1,0.9c0.8,0.3,1.5,0.7,2.1,1.2
					c0.7,0.5,1.2,1.1,1.6,1.9c0.4,0.8,0.7,1.8,0.7,3.1c0,2.2-0.6,3.8-1.9,4.8c-1.3,1-3.1,1.5-5.4,1.5c-1.1,0-2.1-0.1-3-0.3
					c-0.9-0.2-1.6-0.5-2.2-1c-0.6-0.5-1-1-1.3-1.8c-0.3-0.7-0.5-1.6-0.5-2.7v-0.7h5.2v0.5c0,0.9,0.2,1.5,0.5,1.9
					c0.3,0.4,0.8,0.5,1.3,0.5c0.6,0,1-0.2,1.3-0.6c0.3-0.4,0.4-0.9,0.4-1.4c0-0.7-0.2-1.2-0.6-1.6c-0.4-0.4-0.9-0.7-1.6-1
					c-0.6-0.3-1.3-0.6-2-0.9c-0.7-0.3-1.4-0.7-2-1.1c-0.6-0.5-1.1-1.1-1.6-1.8c-0.4-0.8-0.6-1.7-0.6-3c0-2.1,0.6-3.7,1.7-4.8
					c1.1-1.1,2.8-1.6,5.1-1.6c2.4,0,4.1,0.5,5.1,1.5c1.1,1,1.6,2.6,1.6,4.8h-5V908.8z"/>
				<path id="XMLID_163_" fill="#808285" d="M291.8,903.3l5,20.7h-5.7l-0.5-3.6h-4.3l-0.5,3.6H280l4.9-20.7H291.8z M288.4,907.6
					l-1.5,8.8h3L288.4,907.6L288.4,907.6z"/>
				<path id="XMLID_161_" fill="#808285" d="M303.1,903.3v16.3h6.6v4.4h-12v-20.7H303.1z"/>
				<path id="XMLID_159_" fill="#808285" d="M323.3,903.3v4.4h-6.9v3.5h6.4v4.2h-6.4v4.1h7.1v4.4h-12.5v-20.7H323.3z"/>
			</g>
		</g>
		<polygon id="XMLID_188_" fill="#37454D" points="695.1,405.6 911.3,184.4 1125.9,404.2 		"/>
		<rect id="XMLID_276_" x="1115" y="386.9" fill="#516571" width="10.8" height="466.6"/>
		<g id="XMLID_189_">
			<g id="XMLID_204_">
				<rect id="XMLID_216_" x="860.9" y="325.2" fill="#6D6E71" width="34.1" height="131.6"/>
				<g id="XMLID_211_">
					<rect id="XMLID_215_" x="855.3" y="319.7" fill="#FFFFFF" width="5.6" height="142.7"/>
					<rect id="XMLID_214_" x="895" y="319.7" fill="#FFFFFF" width="5.6" height="142.7"/>
					<rect id="XMLID_213_" x="855.3" y="319.7" fill="#FFFFFF" width="45.3" height="5.6"/>
					<rect id="XMLID_212_" x="855.3" y="456.8" fill="#FFFFFF" width="45.3" height="5.6"/>
				</g>
				<polygon id="XMLID_210_" fill="#808285" points="860.9,364.6 895,455.3 895,417.2 860.9,326.5 				"/>
				<g id="XMLID_205_">
					<rect id="XMLID_209_" x="860.9" y="325.3" fill="#D1D3D4" width="4.2" height="131.5"/>
					<rect id="XMLID_208_" x="890.8" y="325.3" fill="#D1D3D4" width="4.2" height="131.5"/>
					<rect id="XMLID_207_" x="860.9" y="325.3" fill="#D1D3D4" width="34.1" height="5.1"/>
					<rect id="XMLID_206_" x="860.9" y="451.6" fill="#D1D3D4" width="34.1" height="5.1"/>
				</g>
			</g>
			<g id="XMLID_190_">
				<rect id="XMLID_203_" x="926" y="325.2" fill="#6D6E71" width="34.1" height="131.6"/>
				<g id="XMLID_197_">
					<rect id="XMLID_202_" x="920.4" y="319.7" fill="#FFFFFF" width="5.6" height="142.7"/>
					<rect id="XMLID_201_" x="960.1" y="319.7" fill="#FFFFFF" width="5.6" height="142.7"/>
					<rect id="XMLID_200_" x="920.4" y="319.7" fill="#FFFFFF" width="45.3" height="5.6"/>
					<rect id="XMLID_199_" x="920.4" y="456.8" fill="#FFFFFF" width="45.3" height="5.6"/>
				</g>
				<polygon id="XMLID_196_" fill="#808285" points="926,364.6 960.1,455.3 960.1,417.2 926,326.5 				"/>
				<g id="XMLID_191_">
					<rect id="XMLID_195_" x="926" y="325.3" fill="#D1D3D4" width="4.2" height="131.5"/>
					<rect id="XMLID_194_" x="955.9" y="325.3" fill="#D1D3D4" width="4.2" height="131.5"/>
					<rect id="XMLID_193_" x="926" y="325.3" fill="#D1D3D4" width="34.1" height="5.1"/>
					<rect id="XMLID_192_" x="926" y="451.6" fill="#D1D3D4" width="34.1" height="5.1"/>
				</g>
			</g>
		</g>
		<rect id="XMLID_182_" x="823.3" y="480" fill="#4E616C" width="173.7" height="28"/>
		<path id="XMLID_217_" fill="#8DC63F" d="M985.9,486H834.5c-10.4,0-18.8-8.5-18.8-18.8v0c0-10.4,8.5-18.8,18.8-18.8h151.3
			c10.4,0,18.8,8.5,18.8,18.8v0C1004.7,477.5,996.2,486,985.9,486z"/>
		<polygon id="XMLID_219_" fill="#85888C" points="532.5,956.2 482.7,1036.2 595.9,1036.2 595.9,956.2 		"/>
		<polygon id="XMLID_248_" fill="#85888C" points="659.3,956.2 709.1,1036.2 595.9,1036.2 595.9,956.2 		"/>
		<rect id="XMLID_247_" x="482.7" y="1036.2" fill="#65616C" width="226.4" height="36.5"/>
		<g id="XMLID_186_">
			<polygon id="XMLID_187_" fill="#283943" points="1139.6,420.4 911.3,184.4 683,420.4 665.4,403.4 911.3,149.1 1157.2,403.4 			
				"/>
		</g>
	</g>
</g>
</svg>
