<svg height="512pt" viewBox="-131 0 512 512.00031" width="512pt" xmlns="http://www.w3.org/2000/svg"><path d="m215.542969 264.535156c-.058594-2.03125-.261719-4.054687-.613281-6.050781 29.667968-23.160156 34.945312-65.984375 11.785156-95.652344-7.378906-9.453125-17.117188-16.789062-28.238282-21.273437v-22.09375h34.132813c4.714844 0 8.535156-3.820313 8.535156-8.53125v-34.132813c0-4.714843-3.820312-8.535156-8.535156-8.535156h-34.132813v-17.066406h34.132813c4.714844 0 8.535156-3.820313 8.535156-8.53125v-34.132813c0-4.714844-3.820312-8.535156-8.535156-8.535156h-76.800781c-4.710938 0-8.53125 3.820312-8.53125 8.535156v133.023438c-17.488282 7.136718-31.253906 21.167968-38.058594 38.785156-.414062.15625-.8125.34375-1.195312.5625l-5.792969 4.34375-39.253907 29.414062c-16.554687 12.4375-28.550781 29.976563-34.132812 49.914063l-24.808594 89.503906c-7.019531 25.3125-4.832031 52.292969 6.167969 76.144531l35.457031 76.796876c1.390625 3.03125 4.417969 4.972656 7.75 4.976562h162.132813c3.414062 0 6.496093-2.035156 7.84375-5.171875l16.382812-38.226563c6.550781-15.25 9.921875-31.671874 9.90625-48.265624-.121093-31.550782-12.335937-61.855469-34.132812-84.667969zm8.535156-179.203125v17.066407h-25.601563v-17.066407zm0-51.199219h-25.601563v-17.066406h25.601563zm-59.734375-17.066406h17.066406v120.054688c-5.683594-.347656-11.382812-.347656-17.066406 0zm8.53125 136.535156c28.265625.027344 51.171875 22.933594 51.203125 51.199219.050781 13.792969-5.523437 27.015625-15.4375 36.605469-3.125-4.839844-7.1875-9.003906-11.949219-12.242188 13.511719-13.148437 13.800782-34.761718.652344-48.269531-13.148438-13.507812-34.757812-13.800781-48.265625-.652343-13.511719 13.152343-13.800781 34.761718-.652344 48.269531.214844.21875.429688.4375.652344.652343-4.742187 3.222657-8.789063 7.363282-11.90625 12.175782-20.230469-19.679688-20.679687-52.035156-1-72.269532 9.640625-9.90625 22.882813-15.488281 36.703125-15.46875zm-17.066406 51.199219c0-9.425781 7.640625-17.066406 17.066406-17.066406s17.066406 7.640625 17.066406 17.066406-7.640625 17.066407-17.066406 17.066407-17.066406-7.640626-17.066406-17.066407zm-25.597656 126.234375-10.820313 2.824219 2.132813-40.6875 8.6875-11.570313zm102.398437 89.300782c.011719 14.285156-2.890625 28.421874-8.53125 41.546874l-14.160156 33.050782h-151.046875l-33.167969-71.859375c-9.3125-20.179688-11.160156-43.007813-5.222656-64.425781l24.855469-89.5c4.570312-16.300782 14.375-30.644532 27.90625-40.820313l31.367187-23.527344c-.007813 19.695313 8.5 38.429688 23.332031 51.386719l-21.625 28.828125c-1.019531 1.351563-1.613281 2.976563-1.707031 4.664063l-2.882813 54.929687c-.246093 4.707031 3.367188 8.722656 8.074219 8.96875.875.046875 1.75-.042969 2.601563-.265625l12.796875-3.34375c-2.332031 8.296875-3.519531 16.878906-3.523438 25.5 0 4.710938 3.820313 8.53125 8.535157 8.53125 4.710937 0 8.53125-3.820312 8.53125-8.53125-.011719-10.160156 1.976562-20.222656 5.847656-29.613281l2.046875-4.992188c0-.058593 0-.136719 0-.203125.402343-.964844.617187-1.996094.640625-3.039062v-73.085938c0-14.140625 11.460937-25.601562 25.597656-25.601562 14.140625 0 25.601562 11.460937 25.601562 25.601562v74.632813c.003907 2.289062.925782 4.480469 2.558594 6.082031 20.101563 19.828125 31.464844 46.851562 31.574219 75.085938zm0 0"/></svg>