<?xml version="1.0" encoding="utf-8"?>
<!-- Generator: Adobe Illustrator 18.0.0, SVG Export Plug-In . SVG Version: 6.00 Build 0)  -->
<!DOCTYPE svg PUBLIC "-//W3C//DTD SVG 1.1//EN" "http://www.w3.org/Graphics/SVG/1.1/DTD/svg11.dtd">
<svg version="1.1" id="Layer_1" xmlns="http://www.w3.org/2000/svg" xmlns:xlink="http://www.w3.org/1999/xlink" x="0px" y="0px"
	 viewBox="0 0 1400 980" enable-background="new 0 0 1400 980" xml:space="preserve">
<g>
	<g>
		<g>
			<g>
				<rect fill="#21B5AF" width="1400" height="980"/>
			</g>
		</g>
	</g>
	<g>
		<g>
			<polygon fill="#58C4BD" points="1294.9,980 1302.5,980 761.9,0 754.3,0 			"/>
			<polygon fill="#58C4BD" points="1337.1,980 1344.7,980 804.1,0 796.6,0 			"/>
			<polygon fill="#58C4BD" points="1379.4,980 1386.9,980 846.4,0 838.8,0 			"/>
			<polygon fill="#58C4BD" points="1400,940.8 1400,927.1 888.6,0 881.1,0 			"/>
			<polygon fill="#58C4BD" points="1400,864.2 1400,850.5 930.9,0 923.3,0 			"/>
			<polygon fill="#58C4BD" points="1400,787.6 1400,773.9 973.1,0 965.6,0 			"/>
			<polygon fill="#58C4BD" points="1083.7,980 1091.2,980 550.6,0 543.1,0 			"/>
			<polygon fill="#58C4BD" points="1210.4,980 1218,980 677.4,0 669.8,0 			"/>
			<polygon fill="#58C4BD" points="1041.4,980 1049,980 508.4,0 500.8,0 			"/>
			<polygon fill="#58C4BD" points="1168.2,980 1175.7,980 635.1,0 627.6,0 			"/>
			<polygon fill="#58C4BD" points="1125.9,980 1133.5,980 592.9,0 585.3,0 			"/>
			<polygon fill="#58C4BD" points="1400,98.3 1400,84.6 1353.3,0 1345.8,0 			"/>
			<polygon fill="#58C4BD" points="1400,174.9 1400,161.2 1311.1,0 1303.5,0 			"/>
			<polygon fill="#58C4BD" points="1400,251.4 1400,237.8 1268.8,0 1261.3,0 			"/>
			<polygon fill="#58C4BD" points="1400,711 1400,697.3 1015.4,0 1007.8,0 			"/>
			<polygon fill="#58C4BD" points="1400,21.7 1400,8 1395.6,0 1388,0 			"/>
			<polygon fill="#58C4BD" points="534.4,980 542,980 1.4,0 0,0 0,11.2 			"/>
			<polygon fill="#58C4BD" points="1400,557.8 1400,544.1 1099.9,0 1092.3,0 			"/>
			<polygon fill="#58C4BD" points="1400,634.4 1400,620.7 1057.6,0 1050.1,0 			"/>
			<polygon fill="#58C4BD" points="1400,328 1400,314.3 1226.6,0 1219,0 			"/>
			<polygon fill="#58C4BD" points="1400,481.2 1400,467.5 1142.1,0 1134.5,0 			"/>
			<polygon fill="#58C4BD" points="1400,404.6 1400,390.9 1184.3,0 1176.8,0 			"/>
			<polygon fill="#58C4BD" points="1252.6,980 1260.2,980 719.6,0 712.1,0 			"/>
			<polygon fill="#58C4BD" points="280.9,980 288.5,980 0,457 0,470.7 			"/>
			<polygon fill="#58C4BD" points="323.2,980 330.7,980 0,380.4 0,394.1 			"/>
			<polygon fill="#58C4BD" points="407.7,980 415.2,980 0,227.3 0,241 			"/>
			<polygon fill="#58C4BD" points="365.4,980 373,980 0,303.9 0,317.5 			"/>
			<polygon fill="#58C4BD" points="238.7,980 246.2,980 0,533.6 0,547.3 			"/>
			<polygon fill="#58C4BD" points="111.9,980 119.5,980 0,763.4 0,777.1 			"/>
			<polygon fill="#58C4BD" points="27.4,980 35,980 0,916.6 0,930.3 			"/>
			<polygon fill="#58C4BD" points="69.7,980 77.2,980 0,840 0,853.7 			"/>
			<polygon fill="#58C4BD" points="449.9,980 457.5,980 0,150.7 0,164.4 			"/>
			<polygon fill="#58C4BD" points="154.2,980 161.7,980 0,686.8 0,700.5 			"/>
			<polygon fill="#58C4BD" points="196.4,980 204,980 0,610.2 0,623.9 			"/>
			<polygon fill="#58C4BD" points="492.2,980 499.7,980 0,74.1 0,87.8 			"/>
			<polygon fill="#58C4BD" points="830.2,980 837.7,980 297.1,0 289.6,0 			"/>
			<polygon fill="#58C4BD" points="872.4,980 880,980 339.4,0 331.8,0 			"/>
			<polygon fill="#58C4BD" points="914.7,980 922.2,980 381.6,0 374.1,0 			"/>
			<polygon fill="#58C4BD" points="956.9,980 964.5,980 423.9,0 416.3,0 			"/>
			<polygon fill="#58C4BD" points="787.9,980 795.5,980 254.9,0 247.3,0 			"/>
			<polygon fill="#58C4BD" points="661.2,980 668.7,980 128.1,0 120.6,0 			"/>
			<polygon fill="#58C4BD" points="576.7,980 584.2,980 43.6,0 36.1,0 			"/>
			<polygon fill="#58C4BD" points="618.9,980 626.5,980 85.9,0 78.3,0 			"/>
			<polygon fill="#58C4BD" points="999.2,980 1006.7,980 466.1,0 458.6,0 			"/>
			<polygon fill="#58C4BD" points="745.7,980 753.2,980 212.6,0 205.1,0 			"/>
			<polygon fill="#58C4BD" points="703.4,980 711,980 170.4,0 162.8,0 			"/>
		</g>
	</g>
</g>
<g>
	<g>
		<path opacity="0.66" fill="#0A5B53" d="M104.3,258.2c-0.1,5.4,0.3,10.7,1.1,16l-15.2,4l-0.4,0.1c-10,3.1-15.8,13.5-13.2,23.7
			c2,7.7,8.3,13.1,15.6,14.4c-2.5,2.6-4.2,5.9-4.9,9.5c-1,5.1,0,10.4,2.9,14.7c4.8,7.2,13.9,10.5,22.1,7.9c1.4-0.4,2.7-1,4-1.7
			c-0.5,1.9-0.8,4-0.7,6.1c0.2,5.2,2.4,10.1,6.2,13.6c5.1,4.8,12.4,6.5,19.1,4.4c3.3-1,6.3-2.9,8.6-5.4l16.4-17.7
			c25.6,10.5,55.5,11.7,83.7,3c28.2-8.7,52.3-26.4,67.6-49.5l23.5,5.4c3.4,0.8,6.9,0.6,10.2-0.4c6.7-2.1,11.8-7.6,13.4-14.4
			c1.2-5.1,0.3-10.4-2.5-14.8c-1.1-1.8-2.5-3.3-4-4.6c1.4-0.1,2.9-0.4,4.3-0.8c8.3-2.5,13.9-10.3,13.8-19
			c-0.1-5.2-2.2-10.1-5.9-13.8c-2.6-2.6-5.9-4.3-9.4-5.1c5.3-5.2,7.5-13.2,4.9-20.7c-3.5-9.9-14.2-15.3-24.2-12.2l-0.5,0.2
			l-14.7,5.2c-2.3-4.8-5-9.5-8.1-13.9c8-37.9-7.5-70.2-9.5-74c-4.3-8.5-14.1-12.7-23.2-9.9c-29.8,9.2-49,25.6-60.8,39.9
			c-11.8,0.3-23.7,2.2-35.2,5.7c-11.6,3.5-22.4,8.6-32.4,15c-17.8-5.2-42.9-8-72.7,1.2c-9.1,2.8-14.9,11.7-13.7,21.2
			C71.2,195.9,76.4,231.3,104.3,258.2z"/>
		<g>
			<path fill="#FFFFFF" d="M87.3,311.3c-2.5,2.6-4.2,5.9-4.9,9.5c-1,5.1,0,10.4,2.9,14.7c4.8,7.2,13.9,10.5,22.1,7.9
				c1.4-0.4,2.7-1,4-1.7c-0.5,1.9-0.8,4-0.7,6.1c0.2,5.2,2.4,10.1,6.2,13.6c5.1,4.8,12.4,6.5,19.1,4.4c3.3-1,6.3-2.9,8.6-5.4
				l16.4-17.7c25.6,10.5,55.5,11.7,83.7,3s52.3-26.4,67.6-49.5l23.5,5.4c3.4,0.8,6.9,0.6,10.2-0.4c6.7-2.1,11.8-7.6,13.4-14.4
				c1.2-5.1,0.3-10.4-2.5-14.8c-1.1-1.8-2.5-3.3-4-4.6c1.4-0.1,2.9-0.4,4.3-0.8c8.3-2.5,13.9-10.3,13.8-19
				c-0.1-5.2-2.2-10.1-5.9-13.8c-2.6-2.6-5.9-4.3-9.4-5.1c5.3-5.2,7.5-13.2,4.9-20.7c-3.5-9.9-14.2-15.3-24.2-12.2l-0.5,0.2
				l-14.7,5.2c-2.3-4.8-5-9.5-8.1-13.9c8-37.9-7.5-70.2-9.5-74c-4.3-8.5-14.1-12.7-23.2-9.9c-29.8,9.2-49,25.6-60.8,39.9
				c-11.8,0.3-23.7,2.2-35.2,5.7s-22.4,8.6-32.4,15c-17.8-5.2-42.9-8-72.7,1.2c-9.1,2.8-14.9,11.7-13.7,21.2
				c0.5,4.2,5.8,39.7,33.7,66.5c-0.1,5.4,0.3,10.7,1.1,16l-15.2,4l-0.4,0.1c-10,3.1-15.8,13.5-13.2,23.7
				C73.7,304.6,80,310.1,87.3,311.3z"/>
			<g>
				<g>
					<g>
						<g>
							<path fill="#C8E2F6" d="M172.2,195c0,0-35.3-26.8-87.1-10.9c0,0,6.6,51.4,52.2,71.1L172.2,195z"/>
							<path fill="#7EAFCE" d="M132,236.7c-18-12-26.5-30.3-30.3-42.4c22.9-4,40.9,1.1,51.5,5.8L132,236.7z"/>
						</g>
						<g>
							<g>
								<path fill="#111D32" d="M138.3,258.6c-0.8,0.2-1.6,0.2-2.4-0.1c-46.9-20.2-54-71.6-54.3-73.8c-0.2-1.7,0.8-3.3,2.4-3.7
									c53-16.3,88.8,10.3,90.3,11.4c1.4,1.1,1.8,3,0.9,4.5l-35,60.2C139.8,257.8,139.1,258.3,138.3,258.6z M89,186.6
									c2.1,10.6,12,47.5,46.8,64.2l31.8-54.7C159,190.8,129.3,175.4,89,186.6z"/>
							</g>
						</g>
					</g>
					<g>
						<g>
							<path fill="#C8E2F6" d="M220.2,180.3c0,0,14.2-42,66-57.9c0,0,23.4,46.3-3.3,88.1L220.2,180.3z"/>
							<path fill="#7EAFCE" d="M238.8,173.9c6.2-9.8,18.2-24.2,39.4-33.7c3.6,12.1,6.8,32-1.3,52.1L238.8,173.9z"/>
						</g>
						<g>
							<g>
								<path fill="#111D32" d="M283.9,213.9c-0.8,0.2-1.7,0.2-2.5-0.2l-62.7-30.2c-1.6-0.8-2.3-2.6-1.8-4.2
									c0.6-1.8,15.3-43.8,68.3-60.1c1.6-0.5,3.3,0.2,4.1,1.7c1,2,24,48.5-3.5,91.6C285.4,213.1,284.7,213.6,283.9,213.9z
									 M224.6,178.6l57,27.5c19.5-33.4,6.9-69.4,2.7-79.4C244.6,140,228.7,169.4,224.6,178.6z"/>
							</g>
						</g>
					</g>
				</g>
				<g>
					<g>
						<g>
							
								<ellipse transform="matrix(0.9559 -0.2936 0.2936 0.9559 -63.2116 73.8973)" fill="#C8E2F6" cx="214.6" cy="247.5" rx="96.7" ry="83.2"/>
						</g>
					</g>
					<g>
						<g>
							<path fill="#111D32" d="M240,330.4c-52.8,16.2-107.2-7.7-121.2-53.4s17.5-96,70.4-112.2c52.8-16.2,107.2,7.7,121.2,53.4
								S292.8,314.1,240,330.4z M191.2,171.3c-49.2,15.1-78.7,61.6-65.8,103.6c12.9,42,63.4,63.9,112.6,48.8
								c49.2-15.1,78.7-61.6,65.8-103.6C290.8,178.1,240.3,156.2,191.2,171.3z"/>
						</g>
					</g>
				</g>
				<g>
					<g>
						<path fill="#111D32" d="M248,289.9c-9.5,2.9-17.1-0.8-22.2-5.7c-1.6,7.1-6,14.8-16.1,17.4c-19.2,5.1-24.7-6.5-24.9-7
							c-0.8-1.7,0-3.8,1.7-4.6c1.7-0.8,3.8,0,4.6,1.7c0.1,0.2,3.5,6.7,16.8,3.2c0.2-0.1,0.4-0.1,0.7-0.2c12.8-3.9,10.9-19,10.9-19.6
							c-0.2-1.7,0.8-3.3,2.4-3.8c1.6-0.5,3.3,0.2,4.1,1.8c0.3,0.6,7.6,14.5,20.7,9.9c13.1-4.6,12.1-12,12.1-12.1
							c-0.3-1.9,1-3.7,2.8-4c1.9-0.3,3.7,0.9,4,2.8c0.1,0.5,2.1,13.2-16.7,19.8C248.7,289.7,248.3,289.8,248,289.9z"/>
					</g>
				</g>
				<g>
					<g>
						<circle fill="#111D32" cx="182.6" cy="245.7" r="10.1"/>
					</g>
					<g>
						<circle fill="#111D32" cx="240" cy="228" r="10.1"/>
					</g>
				</g>
				<g>
					<path fill="#111D32" d="M216.9,255.2c0,0-15.3,4.3-12.3,14.1c2.2,7.3,12,9.2,16.8,9.7c1.8,0.2,3.6-0.3,5-1.5
						c3.7-3.1,10.7-10.2,8.5-17.4C232,250.2,216.9,255.2,216.9,255.2z"/>
				</g>
				<g>
					<g>
						<g>
							<g>
								<path fill="#111D32" d="M153.9,279.1c0,0-0.1,0-0.1,0l-62.3,16.2c-1.8,0.5-3.7-0.6-4.2-2.5c-0.5-1.8,0.5-3.7,2.5-4.2
									l62.3-16.2c1.8-0.5,3.7,0.6,4.2,2.5C156.7,276.8,155.7,278.6,153.9,279.1z"/>
							</g>
							<g>
								<path fill="#111D32" d="M102.6,328.1c-1.4,0.4-3-0.1-3.9-1.4c-1.1-1.6-0.6-3.7,1-4.8l56.6-37.5c1.6-1.1,3.7-0.6,4.8,1
									c1.1,1.6,0.6,3.7-1,4.8l-56.6,37.5C103.3,327.8,103,328,102.6,328.1z"/>
							</g>
							<g>
								<path fill="#111D32" d="M131.3,350.4c-1.1,0.4-2.4,0.1-3.4-0.8c-1.4-1.3-1.5-3.5-0.2-4.9l42-45.1c1.3-1.4,3.5-1.5,4.9-0.2
									c1.4,1.3,1.5,3.5,0.2,4.9l-42,45.1C132.3,349.9,131.8,350.2,131.3,350.4z"/>
							</g>
						</g>
						<g>
							<g>
								<path fill="#111D32" d="M282.5,239.7c-1.8,0.5-3.7-0.4-4.3-2.1c-0.6-1.8,0.3-3.8,2.1-4.4l60.6-21.5c1.9-0.7,3.8,0.3,4.4,2.1
									c0.6,1.8-0.3,3.8-2.1,4.4l-60.6,21.5C282.6,239.6,282.6,239.6,282.5,239.7z"/>
							</g>
							<g>
								<path fill="#111D32" d="M352.4,251.4c-0.3,0.1-0.6,0.1-1,0.2l-67.9,0.7c-1.9,0-3.5-1.5-3.5-3.4c0-1.9,1.5-3.5,3.4-3.5
									l67.9-0.7c1.9,0,3.5,1.5,3.5,3.4C354.9,249.6,353.8,250.9,352.4,251.4z"/>
							</g>
							<g>
								<path fill="#111D32" d="M341.3,285.9c-0.6,0.2-1.2,0.2-1.8,0.1l-60-13.8c-1.9-0.4-3-2.3-2.6-4.1c0.4-1.9,2.3-3,4.1-2.6
									l60,13.8c1.9,0.4,3,2.3,2.6,4.1C343.4,284.6,342.4,285.6,341.3,285.9z"/>
							</g>
						</g>
					</g>
				</g>
			</g>
		</g>
	</g>
	<g>
		<path opacity="0.66" fill="#0A5B53" d="M437.1,263.9c-0.4,0.6-0.8,1.1-1.2,1.7c-3,4.3-4.2,9.5-3.3,14.6c0.9,5.2,3.7,9.7,8,12.7
			c3.9,2.7,8.6,4,13.3,3.5c5.1-0.5,9.7-3,13-6.8c-1.1,2.8-1.9,5.5-2.5,8.3c-2.4,10.6,4.3,21.1,14.8,23.4c2.1,0.5,4.2,0.6,6.3,0.4
			c8.4-0.9,15.3-7,17.2-15.2c0.4-1.8,1.2-3.7,2.3-5.8c16.6,8.2,36.4,12.3,58.9,12.2c0.7,0,1.3,0,1.9-0.1c0.6-0.1,1.3-0.2,1.9-0.3
			c22.1-4.5,40.6-12.4,55.3-23.8c1.5,1.7,2.6,3.5,3.4,5.2c3.5,7.7,11.4,12.3,19.9,11.5c2.1-0.2,4.2-0.8,6.1-1.6
			c9.9-4.4,14.3-16.1,9.8-25.9c-1.2-2.6-2.6-5.2-4.2-7.6c4,3.1,9,4.6,14.1,4.1c4.7-0.5,9.1-2.6,12.3-6.1c3.6-3.8,5.5-8.8,5.3-14
			c-0.2-5.2-2.4-10.1-6.2-13.7c-0.5-0.5-1-1-1.6-1.4c5.8-2.3,10.2-7.3,11.8-13.4c1.3-5.1,0.5-10.4-2.2-14.9c-2.7-4.5-7-7.7-12.1-8.9
			c-5.7-1.4-11.3-2.5-16.8-3.1c0-13.5-1.7-25.1-2.7-32.2c-6.4-45.1-14-72.8-14.3-74c-1.8-6.4-6.7-11.4-13-13.4
			c-2.6-0.8-5.2-1.1-7.9-0.8c-3.9,0.4-7.5,1.9-10.5,4.4c-16.7,13.7-26.5,31.6-32.1,45.2c-11.6-1.9-23.4-2.3-35.2-1.1
			s-23.3,3.9-34.3,8.2c-8.1-12.1-21.3-27.7-40.4-37.8c-3.4-1.8-7.3-2.6-11.2-2.2c-2.7,0.3-5.2,1.1-7.5,2.4c-5.8,3.2-9.6,9.1-10,15.8
			c-0.1,1.2-2,29.8,0.8,75.3c0.4,7.2,1.2,18.9,3.8,32.1c-5.3,1.8-10.6,3.9-15.9,6.4c-4.7,2.3-8.3,6.2-10,11.2
			c-1.7,4.9-1.5,10.3,0.8,15C425.7,258.8,431,262.8,437.1,263.9z"/>
		<g>
			<path fill="#FFFFFF" d="M432.1,258.9c-0.4,0.6-0.8,1.1-1.2,1.7c-3,4.3-4.2,9.5-3.3,14.6c0.9,5.2,3.7,9.7,8,12.7
				c3.9,2.7,8.6,4,13.3,3.5c5.1-0.5,9.7-3,13-6.8c-1.1,2.8-1.9,5.5-2.5,8.3c-2.4,10.6,4.3,21.1,14.8,23.4c2.1,0.5,4.2,0.6,6.3,0.4
				c8.4-0.9,15.3-7,17.2-15.2c0.4-1.8,1.2-3.7,2.3-5.8c16.6,8.2,36.4,12.3,58.9,12.2c0.7,0,1.3,0,1.9-0.1c0.6-0.1,1.3-0.2,1.9-0.3
				c22.1-4.5,40.6-12.4,55.3-23.8c1.5,1.7,2.6,3.5,3.4,5.2c3.5,7.7,11.4,12.3,19.9,11.5c2.1-0.2,4.2-0.8,6.1-1.6
				c9.9-4.4,14.3-16.1,9.8-25.9c-1.2-2.6-2.6-5.2-4.2-7.6c4,3.1,9,4.6,14.1,4.1c4.7-0.5,9.1-2.6,12.3-6.1c3.6-3.8,5.5-8.8,5.3-14
				c-0.2-5.2-2.4-10.1-6.2-13.7c-0.5-0.5-1-1-1.6-1.4c5.8-2.3,10.2-7.3,11.8-13.4c1.3-5.1,0.5-10.4-2.2-14.9
				c-2.7-4.5-7-7.7-12.1-8.9c-5.7-1.4-11.3-2.5-16.8-3.1c0-13.5-1.7-25.1-2.7-32.2c-6.4-45.1-14-72.8-14.3-74
				c-1.8-6.4-6.7-11.4-13-13.4c-2.6-0.8-5.2-1.1-7.9-0.8c-3.9,0.4-7.5,1.9-10.5,4.4c-16.7,13.7-26.5,31.6-32.1,45.2
				c-11.6-1.9-23.4-2.3-35.2-1.1s-23.3,3.9-34.3,8.2c-8.1-12.1-21.3-27.7-40.4-37.8c-3.4-1.8-7.3-2.6-11.2-2.2
				c-2.7,0.3-5.2,1.1-7.5,2.4c-5.8,3.2-9.6,9.1-10,15.8c-0.1,1.2-2,29.8,0.8,75.3c0.4,7.2,1.2,18.9,3.8,32.1
				c-5.3,1.8-10.6,3.9-15.9,6.4c-4.7,2.3-8.3,6.2-10,11.2c-1.7,4.9-1.5,10.3,0.8,15C420.7,253.8,426,257.8,432.1,258.9z"/>
			<g>
				<g>
					<path fill="#FFECBE" d="M635.3,164.3c-6.3-44.7-13.8-71.5-13.8-71.5c-24.7,20.3-31.5,53.4-31.5,53.4c-1-0.3-2.1-0.7-3.1-1
						c-28.2-8.3-58.8-5.2-84.7,8.6c-0.9,0.5-1.9,1-2.8,1.6c0,0-13.2-31-41.5-46c0,0-2,27.7,0.8,72.8c2.7,44.6,16,106.5,99.9,106.2
						C640.9,271.8,641.6,208.5,635.3,164.3z"/>
					<path fill="#111D32" d="M559,291.8c-0.1,0-0.2,0-0.3,0c-96.6,0.3-101.7-82.3-103.4-109.5c-2.8-44.8-0.8-72.9-0.8-73.2
						c0.1-1.2,0.7-2.2,1.8-2.8c1-0.6,2.3-0.6,3.3,0c23.7,12.5,37,35.5,41.4,44.2c13.2-7,27.5-11.3,42.4-12.8
						c14.9-1.5,29.8-0.2,44.1,4c2.6-9.4,11-34.6,31.7-51.7c0.9-0.7,2.1-1,3.2-0.6c1.1,0.4,2,1.2,2.3,2.4c0.1,0.3,7.6,27.5,13.9,71.9
						c3.8,26.9,15.4,108.9-79.4,128C559.3,291.8,559.1,291.8,559,291.8z M461.1,115.2c-0.4,10.2-0.9,34,1.1,66.7
						c2.7,44.3,15.7,103,96.1,103c78.8-16.1,79.7-76.2,73.5-120.2c-4.6-32.5-9.8-55.6-12.3-65.6c-20.1,19.4-26.1,47.4-26.1,47.7
						c-0.2,1-0.8,1.8-1.7,2.3c-0.9,0.5-1.9,0.6-2.8,0.3c-1-0.3-2-0.6-3-0.9c-13.6-4-27.7-5.3-41.9-3.9c-14.2,1.4-27.7,5.5-40.2,12.2
						c-0.9,0.5-1.8,1-2.7,1.5c-0.9,0.5-1.9,0.6-2.8,0.3c-0.9-0.3-1.7-1-2.1-1.9C496.1,156.4,484.7,130.1,461.1,115.2z"/>
				</g>
				<g>
					<g>
						<g>
							<g>
								<path fill="#111D32" d="M436,243c-1.4,0.1-2.8-0.6-3.5-1.9c-0.8-1.7-0.1-3.8,1.6-4.6c36.7-17.6,61.4-8.5,62.4-8.1
									c1.8,0.7,2.7,2.7,2,4.5c-0.7,1.8-2.7,2.7-4.5,2l0,0c-0.2-0.1-23.1-8.3-57,7.9C436.7,242.9,436.4,243,436,243z"/>
							</g>
							<g>
								<path fill="#111D32" d="M447.2,275.4c-0.8,0.1-1.6-0.1-2.3-0.6c-1.6-1.1-1.9-3.3-0.8-4.8c18.7-26.4,56.6-27,58.2-27.1
									c1.9,0,3.5,1.5,3.5,3.4c0,1.9-1.6,3.5-3.4,3.5c-0.4,0-35.9,0.6-52.6,24.1C449.1,274.8,448.2,275.3,447.2,275.4z"/>
							</g>
							<g>
								<path fill="#111D32" d="M478.8,300.7c-0.4,0-0.7,0-1.1-0.1c-1.9-0.4-3-2.3-2.6-4.1c5.4-24.2,33.4-41.3,34.5-42
									c1.6-1,3.8-0.5,4.8,1.2c1,1.6,0.5,3.8-1.2,4.8c-0.3,0.2-26.6,16.3-31.4,37.6C481.5,299.5,480.2,300.5,478.8,300.7z"/>
							</g>
						</g>
						<g>
							<g>
								<path fill="#111D32" d="M669.8,219.4c-0.4,0-0.8,0-1.2-0.1c-36.6-9.1-57.2,3.5-57.4,3.6c-1.6,1-3.8,0.5-4.8-1.1
									c-1-1.6-0.5-3.8,1.1-4.8c0.9-0.6,23.3-14.4,62.8-4.5c1.9,0.5,3,2.3,2.5,4.2C672.5,218.2,671.2,219.2,669.8,219.4z"/>
							</g>
							<g>
								<path fill="#111D32" d="M665.3,253.3c-1,0.1-2-0.2-2.7-0.9c-21.1-19.8-56-13.2-56.4-13.1c-1.9,0.4-3.7-0.9-4.1-2.7
									c-0.4-1.9,0.9-3.7,2.7-4.1c1.6-0.3,38.8-7.3,62.4,14.9c1.4,1.3,1.5,3.5,0.2,4.9C666.9,252.9,666.1,253.2,665.3,253.3z"/>
							</g>
							<g>
								<path fill="#111D32" d="M639.4,284.4c-1.4,0.1-2.9-0.6-3.5-2c-8.9-19.9-38-30.5-38.3-30.6c-1.8-0.6-2.7-2.6-2.1-4.4
									c0.6-1.8,2.6-2.7,4.4-2.1c1.3,0.5,32.1,11.7,42.3,34.3c0.8,1.7,0,3.8-1.7,4.6C640.2,284.3,639.8,284.4,639.4,284.4z"/>
							</g>
						</g>
					</g>
				</g>
				<g>
					<g>
						<g>
							<path fill="#111D32" d="M516.4,213.8c-12.9,1.3-24.5-8.2-25.8-21.1c-0.2-1.9,1.2-3.6,3.1-3.8c1.9-0.2,3.6,1.2,3.8,3.1
								c0.9,9.1,9.1,15.8,18.3,14.9c9.1-0.9,15.8-9.1,14.9-18.3c-0.2-1.9,1.2-3.6,3.1-3.8c1.9-0.2,3.6,1.2,3.8,3.1
								C538.8,200.9,529.4,212.5,516.4,213.8z"/>
						</g>
						<g>
							<path fill="#111D32" d="M585.2,206.9c-12.9,1.3-24.5-8.2-25.8-21.1c-0.2-1.9,1.2-3.6,3.1-3.8c1.9-0.2,3.6,1.2,3.8,3.1
								c0.9,9.1,9.1,15.8,18.3,14.9c9.1-0.9,15.8-9.1,14.9-18.3c-0.2-1.9,1.2-3.6,3.1-3.8c1.9-0.2,3.6,1.2,3.8,3.1
								C607.6,194,598.1,205.6,585.2,206.9z"/>
						</g>
					</g>
				</g>
				<g>
					<g>
						<path fill="#111D32" d="M570.4,255.7c-7.3,0.7-12.4-2.7-15.7-6.8c-2.5,4.9-7.1,9.4-14.8,9.9c-15.8,1-18.4-9.2-18.5-9.6
							c-0.4-1.9,0.7-3.7,2.6-4.1c1.8-0.4,3.7,0.7,4.1,2.6c0,0.1,1.6,4.9,11.3,4.3c9.9-0.6,10.8-11.9,10.8-12.4
							c0.1-1.7,1.4-3,3.1-3.2c0,0,0,0,0,0c1.7-0.2,3.2,0.9,3.7,2.5c0.1,0.4,3.3,11.4,13.1,9.9c9.6-1.3,10.2-6.3,10.2-6.5
							c0.2-1.9,1.8-3.3,3.6-3.2c1.9,0.1,3.3,1.6,3.3,3.5c0,0.4-0.4,10.9-16.2,13.1C570.9,255.6,570.6,255.6,570.4,255.7z"/>
					</g>
				</g>
				<g>
					<path fill="#111D32" d="M552.2,224.2c0,0-12.1,0.9-11.3,8.7c0.6,5.8,7.6,8.7,11.2,9.8c1.3,0.4,2.7,0.3,4-0.4
						c3.3-1.8,9.6-6,9-11.8C564.2,222.7,552.2,224.2,552.2,224.2z"/>
				</g>
				<g>
					<path fill="#E0BA6E" d="M466.4,167.2c0.5,4.2,4.4,7.1,8.5,6.4c7.5-1.3,18.2-4.5,16.1-12.2c-3.2-11.6-22.1-31.9-23.1-29.7
						C467.1,133.5,464.9,154.4,466.4,167.2z"/>
					<path fill="#E0BA6E" d="M624.8,151.2c0.4,4.2-2.9,7.8-7.1,8c-7.6,0.2-18.7-0.8-18.2-8.7c0.8-12,15.3-35.6,16.7-33.7
						C617.4,118.3,623.7,138.4,624.8,151.2z"/>
				</g>
			</g>
		</g>
	</g>
	<g>
		<path opacity="0.66" fill="#0A5B53" d="M1047.8,263c2.4,4.1,6.2,7.2,10.6,8.7c4.8,1.6,10.1,1.3,14.7-0.8c-2.1,2.1-4,4.2-5.8,6.5
			c-6.5,8.6-4.9,20.9,3.7,27.5c1.7,1.3,3.6,2.3,5.6,3c8,2.7,16.8,0,21.9-6.7c1.6-2.2,4-4.2,7.1-6.1c13.7,13.9,30.7,24.6,50,31.1
			c19.3,6.6,39.3,8.6,58.6,5.9c1.3,3.4,1.9,6.5,1.9,9.2c-0.1,8.5,5.3,16,13.3,18.7c2,0.7,4.1,1,6.2,1c5.2,0,10.2-2,13.9-5.7
			c3.7-3.7,5.8-8.6,5.8-13.8c0-2.9-0.2-5.8-0.6-8.7c2.3,4.5,6.3,7.9,11.1,9.6c4.5,1.5,9.4,1.4,13.8-0.4c10-4.1,14.8-15.6,10.7-25.6
			c-0.3-0.7-0.5-1.3-0.8-2c6.2,0.3,12.3-2.3,16.3-7.3c3.3-4.1,4.8-9.2,4.2-14.4c-0.6-5.2-3.2-9.9-7.2-13.1c-2.3-1.8-4.6-3.5-6.9-5.2
			c1.2-2.6,2.2-5.3,3.1-8c2.9-8.5,4.5-17.4,4.8-26.5c31.6-42.3,17.5-93.4,16.9-95.6c-1.8-6.2-6.4-11.1-12.5-13.2
			c-2.7-0.9-5.6-1.2-8.4-0.9c-17.9,1.9-34.3,7-49.1,15.2c-8.9-5.7-18.5-10.4-28.6-13.8c-10.2-3.5-20.6-5.7-31.1-6.5
			c-6.7-15.5-16.6-29.6-29.6-42c-2.1-2-4.5-3.5-7.2-4.4c-6.1-2.1-12.8-1-18,2.8c-1.9,1.4-44.2,33.3-45,86
			c-5.3,7.4-9.5,15.4-12.4,23.9c-0.9,2.7-1.7,5.4-2.4,8.2c-2.9-0.1-5.7-0.2-8.6-0.1c-5.2,0.1-10.1,2.2-13.8,6
			c-3.6,3.8-5.6,8.7-5.5,14c0.1,6.4,3.3,12.2,8.4,15.8c-0.6,0.3-1.2,0.7-1.9,1C1045.5,241.6,1042.3,253.6,1047.8,263z"/>
		<g>
			<path fill="#FFFFFF" d="M1051.8,230.2c-0.6,0.3-1.2,0.7-1.9,1c-9.4,5.4-12.6,17.4-7.1,26.8c2.4,4.1,6.2,7.2,10.6,8.7
				c4.8,1.6,10.1,1.3,14.7-0.8c-2.1,2.1-4,4.2-5.8,6.5c-6.5,8.6-4.9,20.9,3.7,27.5c1.7,1.3,3.6,2.3,5.6,3c8,2.7,16.8,0,21.9-6.7
				c1.6-2.2,4-4.2,7.1-6.1c13.7,13.9,30.7,24.6,50,31.1c19.3,6.6,39.3,8.6,58.6,5.9c1.3,3.4,1.9,6.5,1.9,9.2
				c-0.1,8.5,5.3,16,13.3,18.7c2,0.7,4.1,1,6.2,1c5.2,0,10.2-2,13.9-5.7c3.7-3.7,5.8-8.6,5.8-13.8c0-2.9-0.2-5.8-0.6-8.7
				c2.3,4.5,6.3,7.9,11.1,9.6c4.5,1.5,9.4,1.4,13.8-0.4c10-4.1,14.8-15.6,10.7-25.6c-0.3-0.7-0.5-1.3-0.8-2
				c6.2,0.3,12.3-2.3,16.3-7.3c3.3-4.1,4.8-9.2,4.2-14.4c-0.6-5.2-3.2-9.9-7.2-13.1c-2.3-1.8-4.6-3.5-6.9-5.2c1.2-2.6,2.2-5.3,3.1-8
				c2.9-8.5,4.5-17.4,4.8-26.5c31.6-42.3,17.5-93.4,16.9-95.6c-1.8-6.2-6.4-11.1-12.5-13.2c-2.7-0.9-5.6-1.2-8.4-0.9
				c-17.9,1.9-34.3,7-49.1,15.2c-8.9-5.7-18.5-10.4-28.6-13.8c-10.2-3.5-20.6-5.7-31.1-6.5c-6.7-15.5-16.6-29.6-29.6-42
				c-2.1-2-4.5-3.5-7.2-4.4c-6.1-2.1-12.8-1-18,2.8c-1.9,1.4-44.2,33.3-45,86c-5.3,7.4-9.5,15.4-12.4,23.9c-0.9,2.7-1.7,5.4-2.4,8.2
				c-2.9-0.1-5.7-0.2-8.6-0.1c-5.2,0.1-10.1,2.2-13.8,6c-3.6,3.8-5.6,8.7-5.5,14C1043.5,220.8,1046.7,226.6,1051.8,230.2z"/>
			<g>
				<g>
					<g>
						<g>
							<g>
								<g>
									<path fill="#FCDFE6" d="M1175.7,173.6c0,0,6.2-43.9-33-81.4c0,0-41.7,30.8-36.6,80.2L1175.7,173.6z"/>
									<path fill="#F3B4C7" d="M1119.7,158.8c1.7-21.6,13.6-37.9,22.2-47.1c14.7,18.1,18.9,36.3,20,47.8L1119.7,158.8z"/>
								</g>
							</g>
							<g>
								<g>
									<path fill="#111D32" d="M1104.9,175.7c-1.2-0.4-2.2-1.5-2.3-2.9c-5.2-50.8,36.3-82,38-83.4c1.4-1,3.2-0.9,4.4,0.3
										c40,38.3,34.3,82.5,34,84.4c-0.2,1.7-1.7,3-3.5,3l-69.6-1.2C1105.6,175.9,1105.3,175.8,1104.9,175.7z M1142.5,96.8
										c-8.2,7-35.7,33.6-33.2,72.2l63.2,1.1C1172.9,160,1171.9,126.6,1142.5,96.8z"/>
								</g>
							</g>
						</g>
					</g>
					<g>
						<g>
							<g>
								<g>
									<path fill="#FCDFE6" d="M1220.9,189c0,0,21.9-38.5,75.8-44.3c0,0,14.2,49.9-20,85.9L1220.9,189z"/>
									<path fill="#F3B4C7" d="M1240.4,186.3c7.9-8.5,22.4-20.3,45.1-25.6c1.2,12.5,0.6,32.7-11.2,50.9L1240.4,186.3z"/>
								</g>
							</g>
							<g>
								<g>
									<path fill="#111D32" d="M1275.7,233.9c-0.3-0.1-0.7-0.3-1-0.5l-55.8-41.6c-1.4-1-1.8-3-0.9-4.5c0.9-1.6,23.4-40.1,78.5-46
										c1.7-0.2,3.2,0.9,3.7,2.5c0.6,2.1,14.4,52.2-20.8,89.2C1278.3,234,1276.9,234.3,1275.7,233.9z M1225.6,188.2l50.7,37.8
										c25.5-29.1,20-66.9,17.8-77.4C1252.7,154.1,1231.4,179.9,1225.6,188.2z"/>
								</g>
							</g>
						</g>
					</g>
				</g>
				<g>
					<g>
						<g>
							
								<ellipse transform="matrix(0.9465 0.3227 -0.3227 0.9465 135.6125 -370.0668)" fill="#FCDFE6" cx="1183.8" cy="223.9" rx="96.7" ry="83.2"/>
						</g>
					</g>
					<g>
						<g>
							<path fill="#111D32" d="M1155.8,305.9c-52.3-17.8-82.3-69.1-66.9-114.4s70.5-67.5,122.8-49.7c52.3,17.8,82.3,69.1,66.9,114.3
								S1208.1,323.8,1155.8,305.9z M1209.5,148.5c-48.7-16.6-99.8,3.7-114,45.4c-14.2,41.6,13.9,89,62.6,105.6
								c48.7,16.6,99.8-3.7,114-45.4C1286.3,212.4,1258.2,165.1,1209.5,148.5z"/>
						</g>
					</g>
				</g>
				<g>
					<g>
						<g>
							<g>
								<path fill="#111D32" d="M1061.8,217.3c-1.3-0.5-2.3-1.7-2.3-3.2c0-1.9,1.5-3.5,3.4-3.5c40.6-0.7,59.3,17.8,60.1,18.6
									c1.3,1.4,1.3,3.6,0,4.9c-1.4,1.3-3.5,1.3-4.9,0l0,0c-0.2-0.2-17.6-17.2-55.1-16.5C1062.6,217.5,1062.2,217.5,1061.8,217.3z"
									/>
							</g>
							<g>
								<path fill="#111D32" d="M1058.6,251.4c-0.8-0.3-1.4-0.8-1.9-1.5c-1-1.7-0.4-3.8,1.3-4.7c28.1-16.2,62.7-1,64.2-0.4
									c1.7,0.8,2.5,2.8,1.7,4.6c-0.8,1.7-2.8,2.5-4.6,1.7c-0.3-0.1-32.9-14.4-57.9,0C1060.6,251.7,1059.5,251.8,1058.6,251.4z"/>
							</g>
							<g>
								<path fill="#111D32" d="M1076.8,287.6c-0.3-0.1-0.7-0.3-1-0.5c-1.5-1.2-1.8-3.3-0.7-4.8c15-19.7,47.5-23.7,48.9-23.8
									c1.9-0.2,3.6,1.1,3.8,3c0.2,1.9-1.1,3.6-3,3.8c-0.3,0-31,3.8-44.2,21.1C1079.7,287.6,1078.1,288,1076.8,287.6z"/>
							</g>
						</g>
						<g>
							<g>
								<path fill="#111D32" d="M1284.3,293.2c-0.4-0.1-0.7-0.3-1-0.6c-29.3-23.4-53.5-20.6-53.7-20.6c-1.9,0.2-3.6-1.1-3.9-3
									c-0.2-1.9,1.1-3.6,3-3.9c1.1-0.1,27.2-3.4,58.9,22c1.5,1.2,1.7,3.4,0.5,4.9C1287.2,293.3,1285.7,293.7,1284.3,293.2z"/>
							</g>
							<g>
								<path fill="#111D32" d="M1266,322.2c-0.9-0.3-1.7-1-2.1-2c-11-26.8-45.4-35.3-45.8-35.4c-1.9-0.5-3-2.3-2.6-4.2
									c0.4-1.9,2.3-3,4.2-2.6c1.6,0.4,38.3,9.5,50.6,39.5c0.7,1.8-0.1,3.8-1.9,4.5C1267.7,322.4,1266.8,322.4,1266,322.2z"/>
							</g>
							<g>
								<path fill="#111D32" d="M1229.6,339.7c-1.4-0.5-2.4-1.8-2.3-3.3c0.1-21.9-21.8-43.5-22.1-43.7c-1.4-1.3-1.4-3.5-0.1-4.9
									c1.3-1.4,3.5-1.4,4.9-0.1c1,1,24.3,24,24.2,48.7c0,1.9-1.6,3.5-3.5,3.4C1230.3,339.9,1229.9,339.8,1229.6,339.7z"/>
							</g>
						</g>
					</g>
				</g>
				<g>
					<g>
						<g>
							<path fill="#111D32" d="M1231.6,253.1c-1.8-0.6-2.8-2.6-2.2-4.4c3-8.7-1.7-18.2-10.4-21.2c-8.7-3-18.2,1.7-21.2,10.4
								c-0.6,1.8-2.6,2.8-4.4,2.2c-1.8-0.6-2.8-2.6-2.2-4.4c4.2-12.3,17.6-18.9,29.9-14.7c12.3,4.2,18.9,17.6,14.7,29.9
								C1235.4,252.7,1233.4,253.7,1231.6,253.1z"/>
						</g>
						<g>
							<path fill="#111D32" d="M1166.2,230.8c-1.8-0.6-2.8-2.6-2.2-4.4c3-8.7-1.7-18.2-10.4-21.2s-18.2,1.7-21.2,10.4
								c-0.6,1.8-2.6,2.8-4.4,2.2c-1.8-0.6-2.8-2.6-2.2-4.4c4.2-12.3,17.6-18.9,29.9-14.7c12.3,4.2,18.9,17.6,14.7,29.9
								C1170,230.4,1168,231.4,1166.2,230.8z"/>
						</g>
					</g>
				</g>
				<g>
					<g>
						<path fill="#111D32" d="M1178.8,284.8c-6.9-2.4-10.1-7.6-11.4-12.7c-4.3,3.4-10.3,5.6-17.6,2.8c-14.8-5.7-12.9-16-12.8-16.4
							c0.4-1.9,2.2-3.1,4.1-2.7c1.9,0.4,3.1,2.2,2.7,4.1c0,0.1-0.6,5.1,8.5,8.6c9.2,3.6,14.8-6.3,15-6.7c0.8-1.5,2.6-2.2,4.1-1.6
							c0,0,0,0,0,0c1.6,0.5,2.6,2.2,2.3,3.8c-0.1,0.5-1.7,11.7,7.8,14.5c9.3,2.8,11.9-1.5,12-1.7c0.9-1.6,3-2.3,4.6-1.4
							c1.7,0.9,2.3,2.8,1.5,4.5c-0.2,0.4-5,9.8-20.2,5.2C1179.3,285,1179,284.9,1178.8,284.8z"/>
					</g>
				</g>
				<g>
					<path fill="#111D32" d="M1175.3,248.6c0,0-11.4-4.2-13.9,3.2c-1.9,5.5,3.3,11,6.1,13.5c1.1,0.9,2.4,1.4,3.8,1.3
						c3.7-0.3,11.2-1.5,13.1-7C1186.9,252.2,1175.3,248.6,1175.3,248.6z"/>
				</g>
				<g>
					
						<ellipse transform="matrix(0.9465 0.3227 -0.3227 0.9465 140.2305 -354.5345)" fill="#F3B4C7" cx="1139.2" cy="245.6" rx="10.8" ry="8.6"/>
					
						<ellipse transform="matrix(0.9465 0.3227 -0.3227 0.9465 151.1124 -374.7927)" fill="#F3B4C7" cx="1205.8" cy="268.3" rx="10.8" ry="8.6"/>
				</g>
			</g>
		</g>
	</g>
	<g>
		<path opacity="0.66" fill="#0A5B53" d="M749.8,681.8c-0.7,2.9-1.1,5.8-1.3,8.6c-0.8,10.8,7.2,20.2,18,21.1c2.1,0.2,4.2,0,6.3-0.5
			c8.2-2,14.2-9.1,14.8-17.5c0.1-1.9,0.6-3.9,1.4-6c17.6,5.7,37.7,7,60,3.7c0.6-0.1,1.3-0.2,1.9-0.4c0.6-0.2,1.2-0.3,1.8-0.6
			c21.2-7.6,38.4-18.1,51.3-31.4c1.7,1.5,3.1,3.1,4.1,4.6c4.5,7.1,13.1,10.6,21.3,8.5c2.1-0.5,4-1.4,5.8-2.5
			c9.1-5.8,11.8-17.9,6.1-27.1c-1.5-2.4-3.3-4.7-5.2-7c4.4,2.5,9.6,3.3,14.5,2c4.6-1.1,8.6-3.9,11.3-7.8c3-4.3,4.1-9.5,3.2-14.7
			c-0.9-5.2-3.8-9.6-8.1-12.6c-0.6-0.4-1.2-0.8-1.8-1.2c5.4-3.1,9.1-8.6,9.7-15c0.5-5.2-1-10.3-4.3-14.4c-3.3-4.1-8-6.6-13.2-7.1
			c-4.5-0.5-9-0.7-13.4-0.7c0.1-0.9,0.1-1.7,0.2-2.5l2.1-1.3c7.4-4.7,10.7-13.4,8.4-21.8l-4-14.4c-2.2-7.7-8.7-13.3-16.7-14.2
			c-0.8-0.1-3.5-0.4-8.1-0.4c-9.6-29.6-17.2-47.1-17.6-47.9c-2.7-6.1-8.2-10.4-14.8-11.4c-2.6-0.4-5.3-0.3-7.9,0.3
			c-3.8,0.9-7.2,3-9.8,5.8c-14.6,16-21.8,35.1-25.3,49.3c-11.7-0.3-23.5,1-35,3.9c-11.5,2.9-22.5,7.2-32.8,13
			c-9.8-10.9-25.1-24.4-45.4-31.7c-3.7-1.3-7.6-1.5-11.4-0.6c-2.6,0.6-5,1.8-7.1,3.4c-5.3,4-8.2,10.4-7.7,17.1
			c0.1,0.9,1.5,19.8,6.9,50.5c-4,2.2-6.3,3.7-6.9,4.1c-6.7,4.5-9.8,12.5-8.1,20.4l3.2,14.6c1.9,8.5,8.9,14.7,17.6,15.4l2.5,0.2
			c0.4,0.7,0.9,1.4,1.4,2.2c-3.9,2.1-7.7,4.4-11.4,6.9c-4.4,2.9-7.3,7.3-8.3,12.5c-1,5.1,0,10.4,2.9,14.7c3.5,5.3,9.4,8.5,15.6,8.7
			c-0.3,0.6-0.7,1.2-1,1.9c-2.4,4.7-2.8,10-1.2,15c1.6,5,5.1,9,9.7,11.4c4.2,2.2,9.1,2.7,13.7,1.6
			C742.9,689.2,747.2,686.1,749.8,681.8z"/>
		<g>
			<path fill="#FFFFFF" d="M711.8,655.6c-0.3,0.6-0.7,1.2-1,1.9c-2.4,4.7-2.8,10-1.2,15c1.6,5,5.1,9,9.7,11.4
				c4.2,2.2,9.1,2.7,13.7,1.6c5-1.2,9.2-4.3,11.9-8.6c-0.7,2.9-1.1,5.8-1.3,8.6c-0.8,10.8,7.2,20.2,18,21.1c2.1,0.2,4.2,0,6.3-0.5
				c8.2-2,14.2-9.1,14.8-17.5c0.1-1.9,0.6-3.9,1.4-6c17.6,5.7,37.7,7,60,3.7c0.6-0.1,1.3-0.2,1.9-0.4c0.6-0.2,1.2-0.3,1.8-0.6
				c21.2-7.6,38.4-18.1,51.3-31.4c1.7,1.5,3.1,3.1,4.1,4.6c4.5,7.1,13.1,10.6,21.3,8.5c2.1-0.5,4-1.4,5.8-2.5
				c9.1-5.8,11.8-17.9,6.1-27.1c-1.5-2.4-3.3-4.7-5.2-7c4.4,2.5,9.6,3.3,14.5,2c4.6-1.1,8.6-3.9,11.3-7.8c3-4.3,4.1-9.5,3.2-14.7
				c-0.9-5.2-3.8-9.6-8.1-12.6c-0.6-0.4-1.2-0.8-1.8-1.2c5.4-3.1,9.1-8.6,9.7-15c0.5-5.2-1-10.3-4.3-14.4c-3.3-4.1-8-6.6-13.2-7.1
				c-4.5-0.5-9-0.7-13.4-0.7c0.1-0.9,0.1-1.7,0.2-2.5l2.1-1.3c7.4-4.7,10.7-13.4,8.4-21.8l-4-14.4c-2.2-7.7-8.7-13.3-16.7-14.2
				c-0.8-0.1-3.5-0.4-8.1-0.4c-9.6-29.6-17.2-47.1-17.6-47.9c-2.7-6.1-8.2-10.4-14.8-11.4c-2.6-0.4-5.3-0.3-7.9,0.3
				c-3.8,0.9-7.2,3-9.8,5.8c-14.6,16-21.8,35.1-25.3,49.3c-11.7-0.3-23.5,1-35,3.9c-11.5,2.9-22.5,7.2-32.8,13
				c-9.8-10.9-25.1-24.4-45.4-31.7c-3.7-1.3-7.6-1.5-11.4-0.6c-2.6,0.6-5,1.8-7.1,3.4c-5.3,4-8.2,10.4-7.7,17.1
				c0.1,0.9,1.5,19.8,6.9,50.5c-4,2.2-6.3,3.7-6.9,4.1c-6.7,4.5-9.8,12.5-8.1,20.4l3.2,14.6c1.9,8.5,8.9,14.7,17.6,15.4l2.5,0.2
				c0.4,0.7,0.9,1.4,1.4,2.2c-3.9,2.1-7.7,4.4-11.4,6.9c-4.4,2.9-7.3,7.3-8.3,12.5c-1,5.1,0,10.4,2.9,14.7
				C699.7,652.2,705.6,655.4,711.8,655.6z"/>
			<g>
				<g>
					<path fill="#E8D9EB" d="M899.4,533c-12.6-43.3-23.8-68.8-23.8-68.8C854,487.9,852,521.6,852,521.6c-1.1-0.2-2.1-0.4-3.2-0.5
						c-29.1-4.2-58.9,3.2-82.6,20.6c-0.9,0.6-1.7,1.3-2.6,1.9c0,0-17.5-28.8-47.6-39.6c0,0,2,27.7,11.2,71.9
						c9.1,43.8,31,103.1,114,90.9C920.3,638.6,911.9,576,899.4,533z"/>
					<path fill="#111D32" d="M842,670.1c-0.1,0-0.2,0-0.3,0.1c-95.6,14-112.4-67-117.9-93.6c-9.1-43.9-11.2-72.1-11.2-72.4
						c-0.1-1.2,0.4-2.3,1.4-3c0.9-0.7,2.2-0.9,3.3-0.5c25.2,9,41.7,29.9,47.3,37.9c12.1-8.8,25.6-15.1,40.2-18.7
						c14.6-3.6,29.5-4.4,44.3-2.3c1.2-9.7,6-35.8,24.1-55.6c0.8-0.9,2-1.3,3.1-1.1c1.2,0.2,2.1,0.9,2.6,2c0.1,0.3,11.4,26.1,24,69.2
						c7.6,26.1,30.7,105.6-60.3,138C842.3,670.1,842.2,670.1,842,670.1z M720,509.3c1.1,10.2,3.9,33.7,10.6,65.9
						c9,43.4,30.2,99.8,109.8,88.2c75.7-27.1,68.1-86.8,55.7-129.4c-9.2-31.5-17.7-53.7-21.5-63.2c-17.2,22.1-19.1,50.6-19.1,50.9
						c-0.1,1-0.5,1.9-1.3,2.5c-0.8,0.6-1.8,0.9-2.7,0.7c-1-0.2-2.1-0.3-3.1-0.5c-14-2-28.2-1.3-42,2.1s-26.7,9.4-38.1,17.8
						c-0.8,0.6-1.7,1.2-2.5,1.9c-0.8,0.6-1.8,0.8-2.7,0.7c-1-0.2-1.8-0.8-2.3-1.6C760.5,545.1,745.4,520.7,720,509.3z"/>
				</g>
				<g>
					<g>
						<g>
							<g>
								<path fill="#111D32" d="M713.3,639.4c-1.4,0.3-2.9-0.2-3.7-1.4c-1.1-1.6-0.6-3.7,1-4.8c33.8-22.6,59.5-17.2,60.6-17
									c1.9,0.4,3,2.3,2.6,4.1c-0.4,1.9-2.3,3-4.1,2.6l0,0c-0.2-0.1-24.1-4.9-55.2,15.9C714,639.1,713.7,639.3,713.3,639.4z"/>
							</g>
							<g>
								<path fill="#111D32" d="M729,669.8c-0.8,0.2-1.6,0.1-2.4-0.3c-1.7-0.9-2.4-3-1.5-4.7c14.8-28.8,52.2-34.8,53.7-35.1
									c1.9-0.3,3.7,1,3.9,2.9c0.3,1.9-1,3.7-2.9,3.9c-0.4,0.1-35.5,5.7-48.6,31.4C730.8,668.9,730,669.5,729,669.8z"/>
							</g>
							<g>
								<path fill="#111D32" d="M763.9,690.3c-0.4,0.1-0.7,0.1-1.1,0.1c-1.9-0.1-3.3-1.8-3.2-3.7c1.9-24.7,27.1-45.6,28.2-46.5
									c1.5-1.2,3.7-1,4.9,0.5c1.2,1.5,1,3.7-0.5,4.9c-0.2,0.2-24,20-25.7,41.7C766.4,688.8,765.3,690,763.9,690.3z"/>
							</g>
						</g>
						<g>
							<g>
								<path fill="#111D32" d="M941.4,582.6c-0.4,0.1-0.8,0.1-1.2,0.1c-37.5-3.8-56.1,11.6-56.3,11.8c-1.5,1.2-3.6,1.1-4.9-0.4
									s-1.1-3.6,0.4-4.9c0.8-0.7,21-17.5,61.5-13.4c1.9,0.2,3.3,1.9,3.1,3.8C943.9,581.1,942.8,582.3,941.4,582.6z"/>
							</g>
							<g>
								<path fill="#111D32" d="M941.7,616.9c-0.9,0.2-2,0.1-2.8-0.5c-23.7-16.6-57.3-5.1-57.7-5c-1.8,0.6-3.8-0.3-4.4-2.1
									c-0.6-1.8,0.3-3.8,2.1-4.4c1.5-0.5,37.3-12.7,63.9,5.8c1.6,1.1,2,3.3,0.9,4.8C943.2,616.2,942.5,616.7,941.7,616.9z"/>
							</g>
							<g>
								<path fill="#111D32" d="M920.6,651.4c-1.4,0.3-2.9-0.2-3.8-1.5c-11.7-18.4-41.9-24.7-42.2-24.8c-1.9-0.4-3.1-2.2-2.7-4.1
									c0.4-1.9,2.2-3.1,4.1-2.7c1.4,0.3,33.4,7,46.7,27.9c1,1.6,0.5,3.8-1.1,4.8C921.3,651.1,920.9,651.3,920.6,651.4z"/>
							</g>
						</g>
					</g>
				</g>
				<g>
					<g>
						<path fill="#111D32" d="M848.1,632.7c-7.1,1.8-12.6-0.9-16.5-4.5c-1.8,5.2-5.6,10.3-13.2,11.9c-15.5,3.2-19.5-6.5-19.6-6.9
							c-0.7-1.8,0.2-3.8,2-4.5c1.8-0.7,3.8,0.2,4.5,2c0.1,0.1,2.2,4.6,11.8,2.6c9.7-2,9-13.3,9-13.8c-0.1-1.7,1-3.2,2.6-3.6
							c0,0,0,0,0,0c1.6-0.4,3.3,0.4,4,2c0.2,0.4,4.8,10.7,14.4,8c9.4-2.7,9.2-7.7,9.2-7.9c-0.1-1.9,1.3-3.5,3.1-3.7
							c1.9-0.2,3.5,1.1,3.7,3c0.1,0.4,1.1,10.9-14.1,15.3C848.6,632.6,848.4,632.7,848.1,632.7z"/>
					</g>
				</g>
				<g>
					<path fill="#111D32" d="M825.7,604.2c0,0-11.8,2.6-9.9,10.2c1.4,5.6,8.8,7.5,12.4,8.1c1.4,0.2,2.7-0.1,3.9-1
						c3-2.2,8.6-7.3,7.2-13C837.3,601,825.7,604.2,825.7,604.2z"/>
				</g>
				<g>
					<g>
						<path fill="#17648F" d="M917,524.1c0,0-41.8-4.6-105.3,24c-69.5,4.5-104.2,28.1-104.2,28.1l3.2,14.7l13.5,1.1
							c3.8,10.1,20.2,40.4,55.2,26.9c35-13.6,24.1-47,26-51.5c2-4.5,9.4-6.7,9.4-6.7s7.6-1.4,11.4,1.6c3.8,3,9.8,37.7,47.1,33.3
							c37.3-4.4,37.5-38.9,36.2-49.6l11.4-7.3L917,524.1z"/>
						<path fill="#111D32" d="M881,597.6C881,597.6,881,597.6,881,597.6c-2.3,0.6-4.7,1-7.3,1.3c-32.3,3.8-43.2-20-47.9-30.2
							c-0.7-1.5-1.5-3.3-1.9-3.9c-1.9-1.4-6.3-1.2-8.3-0.8c-2,0.7-5.9,2.5-7,4.6c-0.1,0.7,0,2.7,0.1,4.3
							c0.7,11.2,2.2,37.4-28.1,49.1c-2.4,0.9-4.7,1.7-7,2.2c-32.7,8.1-48-20.4-51.8-29.1l-11.4-0.9c-1.5-0.1-2.8-1.2-3.1-2.7
							l-3.2-14.7c-0.3-1.4,0.3-2.8,1.4-3.6c0.7-0.5,18-12.1,52.3-20.6c16.6-4.1,34.4-6.8,53-8.1c17-7.6,34-13.6,50.6-17.7
							c34.3-8.5,55-6.4,55.9-6.3c1.4,0.2,2.6,1.1,3,2.5l4,14.4c0.4,1.5-0.2,3-1.5,3.9l-9.6,6.1C913.9,557.1,913.8,589.4,881,597.6z
							 M814,557.2c0.1,0,0.1,0,0.2,0c0.9-0.2,9.3-1.6,14.2,2.3c1.4,1.1,2.3,3.1,3.8,6.3c4.7,10.3,13.4,29.5,40.8,26.2
							c2.2-0.3,4.4-0.7,6.4-1.2c30.5-7.6,27.2-40.8,26.8-44.6c-0.2-1.3,0.4-2.6,1.6-3.4l9.3-5.9l-2.7-9.6
							c-6.2-0.3-24.5-0.3-51.2,6.3c-16.4,4.1-33.2,10-50,17.5c-0.4,0.2-0.8,0.3-1.2,0.3c-18.4,1.2-36,3.9-52.4,7.9
							c-26.7,6.6-42.8,15.3-48.1,18.4l2.1,9.7l10.9,0.9c1.3,0.1,2.5,1,3,2.2c1.3,3.5,14,34.4,44.5,26.8c2-0.5,4.1-1.2,6.2-2
							c25.7-9.9,24.4-31,23.7-42.3c-0.2-3.6-0.3-5.7,0.4-7.4c2.5-5.7,10.6-8.4,11.5-8.6C813.8,557.3,813.9,557.2,814,557.2z"/>
					</g>
					<g>
						<g>
							<path fill="#111D32" d="M729.7,577.1c0,0,35.4-15.2,63.5-15.8c0,0,15.3,39.3-20.4,50.7S729.7,577.1,729.7,577.1z"/>
						</g>
						<g>
							<path fill="#111D32" d="M897.7,535.3c0,0-38.4,3.1-63.5,15.8c0,0,4.9,41.9,41.8,35.3C912.8,579.7,897.7,535.3,897.7,535.3z"
								/>
						</g>
					</g>
				</g>
				<g>
					<path fill="#1F2D42" d="M776.2,610.8c3.7-1.5,6.7-3.3,9.2-5.4l-38-34.9c-5.8,1.9-10.5,3.7-13.7,4.9L776.2,610.8z"/>
					<path fill="#1F2D42" d="M793.4,595.2c1.5-3.2,2.3-6.5,2.7-9.7c-6.7-6.3-15.9-14.7-23.6-21.6c-4.3,0.9-8.5,1.9-12.6,3
						L793.4,595.2z"/>
				</g>
				<g>
					<path fill="#1F2D42" d="M880.8,585.2c3.9-1.2,7.1-2.9,9.6-5l-39.1-35.8c-4.6,1.5-9.2,3.1-13.5,5.1L880.8,585.2z"/>
					<path fill="#1F2D42" d="M898.2,569.7c1.3-3.2,2-6.6,2.3-10c-6.6-6.2-15.8-14.6-23.4-21.5c-4,0.7-8.4,1.6-12.9,2.7L898.2,569.7z
						"/>
				</g>
			</g>
		</g>
	</g>
	<g>
		<path opacity="0.66" fill="#0A5B53" d="M291.6,401.3c-25.2-6.5-51,8.8-57.4,34c-1.7,6.6-1.9,13.4-0.8,20c-4.2,5.2-7.3,11.3-9,17.9
			c-6.5,25.2,8.8,51,34,57.4c18.5,4.7,37.6-2.4,48.9-16.7l86.2,22.1c3,18,16.4,33.5,34.8,38.2c25.2,6.5,51-8.8,57.4-34
			c1.7-6.6,1.9-13.4,0.8-20c4.2-5.2,7.3-11.3,9-17.9c6.5-25.2-8.8-51-34-57.4c-18.5-4.7-37.6,2.4-48.9,16.7l-86.2-22.1
			C323.4,421.5,310,406,291.6,401.3z"/>
		<g>
			<path fill="#FFFFFF" d="M480.9,535.2c1.7-6.6,1.9-13.4,0.8-20c4.2-5.2,7.3-11.3,9-17.9c6.5-25.2-8.8-51-34-57.4
				c-18.5-4.7-37.6,2.4-48.9,16.7l-86.2-22.1c-3-18-16.4-33.5-34.8-38.2c-25.2-6.5-51,8.8-57.4,34c-1.7,6.6-1.9,13.4-0.8,20
				c-4.2,5.2-7.3,11.3-9,17.9c-6.5,25.2,8.8,51,34,57.4c18.5,4.7,37.6-2.4,48.9-16.7l86.2,22.1c3,18,16.4,33.5,34.8,38.2
				C448.7,575.7,474.4,560.4,480.9,535.2z"/>
			<g>
				<path fill="#FFECBE" d="M471.6,492.5c3.8-14.8-5.1-29.8-19.9-33.6s-29.8,5.1-33.6,19.9c-0.1,0.3-0.1,0.5-0.2,0.8l-116.6-29.9
					c0.1-0.2,0.2-0.5,0.2-0.7c3.8-14.8-5.1-29.8-19.9-33.6c-14.8-3.8-29.8,5.1-33.6,19.9c-1.9,7.4-0.6,14.9,3,20.9
					c-6.1,3.6-10.8,9.5-12.7,16.9c-3.8,14.8,5.1,29.8,19.9,33.6c14.8,3.8,29.8-5.1,33.6-19.9c0.1-0.3,0.1-0.5,0.2-0.8l116.6,29.9
					c-0.1,0.2-0.2,0.5-0.2,0.7c-3.8,14.8,5.1,29.8,19.9,33.6c14.8,3.8,29.8-5.1,33.6-19.9c1.9-7.4,0.6-14.9-3-20.9
					C465,505.8,469.7,499.9,471.6,492.5z"/>
				<g>
					<g>
						<g>
							<path fill="#E0BA6E" d="M431.4,538.3c-14.8-3.8-23.7-18.8-19.9-33.6c0.1-0.3,0.2-0.5,0.2-0.7l-116.6-29.9
								c-0.1,0.3-0.1,0.5-0.2,0.8c-3.8,14.8-18.8,23.7-33.6,19.9c-12.7-3.3-21.1-14.9-20.7-27.5c-0.9,1.8-1.7,3.7-2.2,5.8
								c-3.8,14.8,5.1,29.8,19.9,33.6c14.8,3.8,29.8-5.1,33.6-19.9c0.1-0.3,0.1-0.5,0.2-0.8l116.6,29.9c-0.1,0.2-0.2,0.5-0.2,0.7
								c-3.8,14.8,5.1,29.8,19.9,33.6c14.8,3.8,29.8-5.1,33.6-19.9c0.5-2,0.8-4.1,0.8-6.1C457,535.4,444.1,541.6,431.4,538.3z"/>
						</g>
					</g>
				</g>
				<path fill="#111D32" d="M427.5,553.5c-15.7-4-25.5-19.4-22.9-35.2l-110.1-28.2c-5.3,15-21.3,23.8-37,19.8
					c-16.6-4.3-26.6-21.2-22.4-37.8c1.8-7,5.8-13,11.6-17.2c-3-6.5-3.6-13.7-1.8-20.6c4.3-16.6,21.2-26.6,37.8-22.4
					c15.7,4,25.5,19.4,22.9,35.2l110.1,28.2c5.3-15,21.3-23.8,37-19.8c16.6,4.3,26.6,21.2,22.4,37.8c-1.8,7-5.8,13-11.6,17.2
					c3,6.5,3.6,13.7,1.8,20.6C461,547.8,444,557.8,427.5,553.5z M289.5,481.7L413,513.4l-1.1,3.9c-3.4,13.1,4.4,26.2,17.3,29.5
					c12.9,3.3,26.1-4.5,29.4-17.4c1.6-6.3,0.7-12.8-2.6-18.3l-1.8-3l3-1.8c5.6-3.3,9.5-8.5,11.1-14.8c3.3-12.9-4.5-26.1-17.4-29.4
					c-12.9-3.3-26.1,4.5-29.4,17.4l-0.9,4.1l-123.5-31.7l1.1-3.9c3.4-13.1-4.4-26.2-17.3-29.5s-26.1,4.5-29.4,17.4
					c-1.6,6.3-0.7,12.8,2.6,18.3l1.8,3l-3,1.8c-5.6,3.3-9.5,8.5-11.1,14.8c-3.3,12.9,4.5,26.1,17.4,29.4
					c12.9,3.3,26.1-4.5,29.4-17.4L289.5,481.7z"/>
			</g>
		</g>
	</g>
	<g>
		<path opacity="0.66" fill="#0A5B53" d="M1001.7,440.6c6,11.2,15.9,18.9,26.7,21.6c0,0.4,0,0.8,0,1.2c0,19.4,14.5,42,55.3,42
			s55.3-22.6,55.3-42c0-0.4,0-0.8,0-1.2c10.9-2.7,20.7-10.4,26.7-21.6c10.6-19.6,5.3-43.1-11.8-52.4c-4.7-2.5-9.8-3.8-15.2-3.8
			c-0.3,0-0.5,0-0.8,0c-0.2-7.2-2.1-14.2-5.6-20.2c-5.4-9.1-14-15-23.8-16.3c-1.4-0.2-2.7-0.3-4.1-0.3c-7.6,0-14.8,2.9-20.8,7.7
			c-5.9-4.9-13.2-7.7-20.9-7.7c-1.5,0-3.1,0.1-4.6,0.3c-10.1,1.5-18.8,7.9-23.9,17.4c-3.1,5.7-4.7,12.3-4.9,19c-0.3,0-0.5,0-0.8,0
			c-5.4,0-10.5,1.3-15.2,3.8C996.3,397.5,991.1,421,1001.7,440.6z"/>
		<g>
			<path fill="#FFFFFF" d="M1134.1,457.2c10.9-2.7,20.7-10.4,26.7-21.6c10.6-19.6,5.3-43.1-11.8-52.4c-4.7-2.5-9.8-3.8-15.2-3.8
				c-0.3,0-0.5,0-0.8,0c-0.2-7.2-2.1-14.2-5.6-20.2c-5.4-9.1-14-15-23.8-16.3c-1.4-0.2-2.7-0.3-4.1-0.3c-7.6,0-14.8,2.9-20.8,7.7
				c-5.9-4.9-13.2-7.7-20.9-7.7c-1.5,0-3.1,0.1-4.6,0.3c-10.1,1.5-18.8,7.9-23.9,17.4c-3.1,5.7-4.7,12.3-4.9,19c-0.3,0-0.5,0-0.8,0
				c-5.4,0-10.5,1.3-15.2,3.8c-17.1,9.3-22.4,32.8-11.8,52.4c6,11.2,15.9,18.9,26.7,21.6c0,0.4,0,0.8,0,1.2c0,19.4,14.5,42,55.3,42
				s55.3-22.6,55.3-42C1134.1,458,1134.1,457.6,1134.1,457.2z"/>
			<g>
				<g>
					<path fill="#E0BA6E" d="M1043,458.4c0-16,16-46.5,35.7-46.5c19.7,0,35.7,30.5,35.7,46.5s-16,22.4-35.7,22.4
						C1059,480.8,1043,474.4,1043,458.4z"/>
					<path fill="#111D32" d="M1078.7,484.3c-24.5,0-39.2-9.7-39.2-25.9c0-17.1,16.6-49.9,39.2-49.9s39.2,32.8,39.2,49.9
						C1117.9,474.6,1103.3,484.3,1078.7,484.3z M1078.7,415.4c-17.3,0-32.3,28.8-32.3,43c0,17.1,22.6,19,32.3,19s32.3-1.8,32.3-19
						C1111,444.3,1096.1,415.4,1078.7,415.4z"/>
				</g>
				<g>
					<g>
						
							<ellipse transform="matrix(0.989 -0.1482 0.1482 0.989 -44.9376 161.2247)" fill="#E0BA6E" cx="1059.1" cy="382.1" rx="14.9" ry="19.9"/>
						<path fill="#111D32" d="M1060.4,405.4c-9.3,0-17.7-8.8-19.5-20.6c-0.9-6,0-11.9,2.6-16.7c2.8-5.1,7.1-8.4,12.1-9.1
							c0.7-0.1,1.5-0.2,2.2-0.2c9.3,0,17.7,8.8,19.5,20.6c1.9,12.8-4.7,24.4-14.7,25.9C1061.8,405.3,1061.1,405.4,1060.4,405.4z
							 M1057.8,365.7c-0.4,0-0.8,0-1.2,0.1c-2.8,0.4-5.4,2.4-7.1,5.6c-1.9,3.5-2.5,7.9-1.9,12.4c1.3,8.8,7.5,15.5,13.8,14.6
							c6.2-0.9,10.2-9.2,8.9-18C1069.2,372.1,1063.7,365.7,1057.8,365.7z"/>
					</g>
					<g>
						
							<ellipse transform="matrix(0.9912 0.1326 -0.1326 0.9912 60.3758 -142.3007)" fill="#E0BA6E" cx="1098.4" cy="382.1" rx="14.9" ry="19.9"/>
						<path fill="#111D32" d="M1097.3,405.4c-0.7,0-1.3,0-2-0.1c-5.1-0.7-9.4-3.8-12.3-8.9c-2.7-4.8-3.7-10.7-2.9-16.7
							c1.7-12.7,11.1-22.1,21.3-20.7c10.1,1.3,16.9,12.8,15.1,25.6C1115.1,396.4,1106.7,405.4,1097.3,405.4z M1099.5,365.7
							c-5.9,0-11.4,6.5-12.5,14.9c-0.6,4.5,0.1,8.9,2.1,12.4c1.8,3.1,4.3,5.1,7.1,5.4c6.3,0.8,12.4-6,13.6-14.8
							c1.2-8.8-3-17-9.2-17.8C1100.2,365.7,1099.9,365.7,1099.5,365.7z"/>
					</g>
				</g>
				<g>
					<g>
						
							<ellipse transform="matrix(0.8795 0.4758 -0.4758 0.8795 335.37 -487.1159)" fill="#E0BA6E" cx="1129.8" cy="418.8" rx="15.7" ry="20.9"/>
						<path fill="#111D32" d="M1125.7,442.1c-2.7,0-5.2-0.6-7.5-1.9c-9.3-5-11.6-18.7-5.2-30.5c4.7-8.6,12.8-14.2,20.9-14.2
							c2.7,0,5.2,0.6,7.5,1.9c9.3,5,11.6,18.7,5.2,30.5C1141.9,436.5,1133.7,442.1,1125.7,442.1z M1133.8,402.5
							c-5.4,0-11.3,4.2-14.8,10.6c-4.5,8.3-3.4,18,2.4,21.1c1.3,0.7,2.7,1,4.3,1c5.4,0,11.3-4.2,14.8-10.6c4.5-8.3,3.4-18-2.4-21.1
							C1136.8,402.8,1135.3,402.5,1133.8,402.5z"/>
					</g>
					<g>
						
							<ellipse transform="matrix(-0.8795 0.4758 -0.4758 -0.8795 2130.8977 298.1874)" fill="#E0BA6E" cx="1027.7" cy="418.8" rx="15.7" ry="20.9"/>
						<path fill="#111D32" d="M1031.7,442.1L1031.7,442.1c-8,0-16.2-5.6-20.9-14.2c-6.4-11.8-4-25.5,5.2-30.5
							c2.3-1.2,4.8-1.9,7.5-1.9c8,0,16.2,5.6,20.8,14.2c3,5.6,4.2,11.7,3.4,17.3c-0.9,6-3.9,10.7-8.6,13.2
							C1037,441.5,1034.4,442.1,1031.7,442.1z M1023.7,402.5c-1.5,0-3,0.4-4.3,1c-5.8,3.1-6.9,12.8-2.4,21.1
							c3.4,6.3,9.3,10.6,14.8,10.6l0,0c1.5,0,3-0.4,4.3-1c2.7-1.5,4.5-4.3,5.1-8.1c0.6-4.1-0.3-8.8-2.6-13
							C1035,406.7,1029.1,402.5,1023.7,402.5z"/>
					</g>
				</g>
			</g>
		</g>
	</g>
	<g>
		<path opacity="0.66" fill="#0A5B53" d="M677.7,442.7c8.8-7,14.5-18.1,15.3-30.8c1.5-22.3-13.1-41.5-32.5-42.8
			c-5.3-0.4-10.5,0.6-15.4,2.9c-0.2,0.1-0.5,0.2-0.7,0.3c-3.2-6.5-7.8-12.1-13.5-16c-8.6-6-19-7.8-28.4-5c-1.3,0.4-2.6,0.9-3.8,1.5
			c-7,3.2-12.3,8.8-15.7,15.7c-7.4-2-15.2-1.5-22.2,1.7c-1.4,0.6-2.8,1.4-4,2.2c-8.5,5.6-13.8,15-14.5,25.8
			c-0.4,6.4,0.8,13.1,3.5,19.3c-0.2,0.1-0.5,0.2-0.7,0.3c-4.9,2.3-9.1,5.6-12.3,9.8c-11.7,15.5-6.7,39.1,11.1,52.5
			c10.1,7.6,22.3,10.6,33.3,8.5c0.2,0.4,0.3,0.8,0.5,1.1c8.1,17.6,30.7,32.2,67.8,15.2c37.2-17,40.9-43.6,32.9-61.2
			C678.1,443.5,677.9,443.1,677.7,442.7z"/>
		<g>
			<path fill="#FFFFFF" d="M672.7,437.7c8.8-7,14.5-18.1,15.3-30.8c1.5-22.3-13.1-41.5-32.5-42.8c-5.3-0.4-10.5,0.6-15.4,2.9
				c-0.2,0.1-0.5,0.2-0.7,0.3c-3.2-6.5-7.8-12.1-13.5-16c-8.6-6-19-7.8-28.4-5c-1.3,0.4-2.6,0.9-3.8,1.5c-7,3.2-12.3,8.8-15.7,15.7
				c-7.4-2-15.2-1.5-22.2,1.7c-1.4,0.6-2.8,1.4-4,2.2c-8.5,5.6-13.8,15-14.5,25.8c-0.4,6.4,0.8,13.1,3.5,19.3
				c-0.2,0.1-0.5,0.2-0.7,0.3c-4.9,2.3-9.1,5.6-12.3,9.8c-11.7,15.5-6.7,39.1,11.1,52.5c10.1,7.6,22.3,10.6,33.3,8.5
				c0.2,0.4,0.3,0.8,0.5,1.1c8.1,17.6,30.7,32.2,67.8,15.2c37.2-17,40.9-43.6,32.9-61.2C673.1,438.5,672.9,438.1,672.7,437.7z"/>
			<g>
				<g>
					<path fill="#E0BA6E" d="M590.4,476.7c-6.6-14.5-4.8-48.9,13.2-57.1c18-8.2,45.2,12.9,51.8,27.4c6.6,14.5-5.2,27-23.2,35.3
						C614.3,490.4,597,491.2,590.4,476.7z"/>
					<path fill="#111D32" d="M633.6,485.4c-22.3,10.2-39.7,7.5-46.4-7.2c-7.1-15.5-5.7-52.3,14.9-61.7c20.6-9.4,49.3,13.6,56.4,29.1
						C665.3,460.3,656,475.2,633.6,485.4z M605,422.7c-15.8,7.2-17.4,39.7-11.5,52.5c7.1,15.6,28.4,7.9,37.2,3.8
						s28.6-15.1,21.5-30.7C646.3,435.5,620.8,415.5,605,422.7z"/>
				</g>
				<g>
					<g>
						
							<ellipse transform="matrix(0.8377 -0.5461 0.5461 0.8377 -125.7212 378.0314)" fill="#E0BA6E" cx="573.3" cy="400.6" rx="14.9" ry="19.9"/>
						<path fill="#111D32" d="M584.1,421.2c-8.5,3.9-19.8-0.7-26.3-10.6c-3.3-5.1-4.9-10.9-4.6-16.3c0.4-5.8,3-10.5,7.2-13.3
							c0.6-0.4,1.3-0.8,1.9-1.1c8.5-3.9,19.8,0.7,26.3,10.6c7,10.8,5.9,24.1-2.6,29.6C585.4,420.6,584.8,420.9,584.1,421.2z
							 M565.3,386.2c-0.4,0.2-0.7,0.4-1,0.6c-2.4,1.6-3.9,4.4-4.1,8c-0.3,4,1,8.2,3.5,12.1c4.8,7.4,13.3,11,18.6,7.5
							c5.2-3.4,5.5-12.6,0.6-20.1C578.4,387.3,570.6,383.8,565.3,386.2z"/>
					</g>
					<g>
						
							<ellipse transform="matrix(0.9566 -0.2915 0.2915 0.9566 -85.5631 194.2461)" fill="#E0BA6E" cx="609" cy="384.2" rx="14.9" ry="19.9"/>
						<path fill="#111D32" d="M617.7,405.9c-0.6,0.3-1.2,0.5-1.8,0.7c-4.9,1.5-10.2,0.4-14.9-3c-4.4-3.2-7.8-8.2-9.6-14
							c-3.7-12.3,0.9-24.7,10.8-27.7c9.7-3,20.7,4.7,24.4,17C630.1,390.3,626.3,402,617.7,405.9z M603.2,368.9
							c-5.4,2.5-7.7,10.7-5.2,18.7c1.3,4.4,3.8,8.1,7,10.4c2.9,2.1,6,2.8,8.8,2c6.1-1.8,8.8-10.6,6.2-19.1
							c-2.6-8.5-9.8-14.2-15.8-12.4C603.9,368.6,603.5,368.7,603.2,368.9z"/>
					</g>
				</g>
				<g>
					<g>
						
							<ellipse transform="matrix(0.9978 6.698608e-002 -6.698608e-002 0.9978 28.5691 -42.8211)" fill="#E0BA6E" cx="652.8" cy="404.6" rx="15.7" ry="20.9"/>
						<path fill="#111D32" d="M658.8,427.5c-2.5,1.1-5,1.6-7.6,1.4c-10.5-0.7-18.3-12.2-17.4-25.6c0.7-9.8,5.8-18.2,13.1-21.6
							c2.5-1.1,5-1.6,7.6-1.4c10.5,0.7,18.3,12.2,17.4,25.6C671.2,415.7,666.1,424.1,658.8,427.5z M649.7,388
							c-4.9,2.3-8.6,8.6-9,15.7c-0.6,9.4,4.4,17.8,11,18.2c1.4,0.1,2.9-0.2,4.3-0.8c4.9-2.3,8.6-8.6,9-15.7
							c0.6-9.4-4.4-17.8-11-18.2C652.5,387.1,651.1,387.4,649.7,388z"/>
					</g>
					<g>
						
							<ellipse transform="matrix(-0.602 0.7985 -0.7985 -0.602 1254.0896 269.0377)" fill="#E0BA6E" cx="560" cy="447" rx="15.7" ry="20.9"/>
						<path fill="#111D32" d="M573.3,466.5L573.3,466.5c-7.3,3.3-17,1.7-24.9-4.2c-10.7-8.1-14.3-21.5-7.9-29.9
							c1.6-2.1,3.6-3.7,6.1-4.8c7.3-3.3,17-1.7,24.9,4.2c5,3.8,8.7,8.9,10.3,14.4c1.7,5.8,0.8,11.3-2.3,15.6
							C577.9,463.8,575.8,465.4,573.3,466.5z M549.5,433.8c-1.4,0.6-2.6,1.6-3.4,2.7c-4,5.3-1,14.5,6.6,20.2
							c5.7,4.3,12.9,5.7,17.8,3.5l0,0c1.4-0.6,2.6-1.6,3.4-2.7c1.8-2.4,2.3-5.8,1.2-9.5c-1.2-4-3.9-7.8-7.8-10.7
							C561.6,433,554.4,431.6,549.5,433.8z"/>
					</g>
				</g>
			</g>
		</g>
	</g>
	<g>
		<path opacity="0.66" fill="#0A5B53" d="M316.8,592.4c-1.3-0.5-2.7-1-4-1.4c-18.6-5.4-37.2,0.5-47.8,5.2c-3-0.9-6.1-1.8-9.3-2.8
			c-9.2-2.7-17.5-4.9-21.9-6.1c-5.3-1.7-13.2-4.2-21.9-6.7c-3.2-0.9-6.4-1.8-9.4-2.7c-6.4-9.6-18.9-24.7-37.5-30.1
			c-1.4-0.4-2.7-0.7-4.1-1c-24.5-5-62.7,11.8-77.3,25.1c-10.4,9.5-11.7,18.7-11.1,24.8c0.2,1.8,4.6,39.6,17,64.4
			c-15.2,29.9-20.5,52.2-16.2,68.1c4.5,16.9,18.8,29.6,40.3,35.9c1.2,0.4,2.5,0.7,3.8,1c8.5,20,27.6,36.4,51.4,43.3
			c23.7,6.9,48.7,3.4,66.6-8.9c1.3,0.4,2.6,0.8,3.8,1.2c21.4,6.3,40.3,3.2,53.2-8.6c12.1-11.1,19.7-32.7,23-66.1
			c23.8-14.2,47.8-43.7,48.9-45.1c3.9-4.8,7.7-13.3,4-26.9C363.4,636.1,340.2,601.4,316.8,592.4z"/>
		<g>
			<path fill="#FFFFFF" d="M311.8,587.4c-1.3-0.5-2.7-1-4-1.4c-18.6-5.4-37.2,0.5-47.8,5.2c-3-0.9-6.1-1.8-9.3-2.8
				c-9.2-2.7-17.5-4.9-21.9-6.1c-5.3-1.7-13.2-4.2-21.9-6.7c-3.2-0.9-6.4-1.8-9.4-2.7c-6.4-9.6-18.9-24.7-37.5-30.1
				c-1.4-0.4-2.7-0.7-4.1-1c-24.5-5-62.7,11.8-77.3,25.1c-10.4,9.5-11.7,18.7-11.1,24.8c0.2,1.8,4.6,39.6,17,64.4
				c-15.2,29.9-20.5,52.2-16.2,68.1c4.5,16.9,18.8,29.6,40.3,35.9c1.2,0.4,2.5,0.7,3.8,1c8.5,20,27.6,36.4,51.4,43.3
				c23.7,6.9,48.7,3.4,66.6-8.9c1.3,0.4,2.6,0.8,3.8,1.2c21.4,6.3,40.3,3.2,53.2-8.6c12.1-11.1,19.7-32.7,23-66.1
				c23.8-14.2,47.8-43.7,48.9-45.1c3.9-4.8,7.7-13.3,4-26.9C358.4,631.1,335.2,596.4,311.8,587.4z"/>
			<g>
				<g>
					<g>
						<path fill="#FFFFFF" d="M234.3,759.6c-6.7,23-35.8,34.7-64.9,26.1c-29.2-8.5-47.4-34-40.7-57c6.7-23,40.3-50.2,69.5-41.6
							S241,736.6,234.3,759.6z"/>
						<path fill="#111D32" d="M168.4,789c-30.9-9-50.2-36.5-43-61.3c7.2-24.7,42.8-53,73.7-44c30.9,9,45.7,52,38.5,76.8
							C230.4,785.3,199.4,798.1,168.4,789z M197.2,690.4c-27.3-8-59,18.2-65.2,39.3c-6.2,21.1,11,44.7,38.3,52.7
							c27.3,8,54.5-2.7,60.6-23.8C237.1,737.5,224.5,698.4,197.2,690.4z"/>
					</g>
					<g>
						<path fill="#FFFFFF" d="M288.2,624.4c-3.6-6.5-48.2-18.8-64.9-23.2c-16.4-5.3-60.7-18.9-67.2-15.4
							c-8.1,4.4-77.8,99.6-68.7,133.3c8.5,31.7,75.8,29.3,95.6,20c11.7,18.5,67.1,56.7,91.3,34.6
							C300.1,750.2,292.6,632.5,288.2,624.4z"/>
						<g>
							<path fill="#E0BA6E" d="M156.1,585.9c-8.1,4.4-77.8,99.6-68.7,133.3c0.9,3.4,2.6,6.5,4.8,9.1c10.5-10.3,38.9-45.6,69.5-48.8
								c33.5-3.5,49.2-59.2,54-80.8C196.1,592.7,161.8,582.7,156.1,585.9z"/>
							<path fill="#E0BA6E" d="M288.2,624.4c-3.1-5.7-37.4-15.7-57.2-21.2c-7.5,20.7-24.4,76.2,2,97.1c24.1,19.1,29,64.2,32.3,78.5
								c3.3-1.1,6.3-2.7,8.9-5.1C300.1,750.2,292.6,632.5,288.2,624.4z"/>
						</g>
						<path fill="#111D32" d="M238.8,781.4C238.8,781.4,238.8,781.4,238.8,781.4c-22-6.4-47.1-24.6-57.1-37.9
							c-15.5,5.9-46.5,7.7-68.5,1.2c-16-4.7-26.1-13.2-29.2-24.6c-9.6-35.6,61-132.1,70.4-137.3c2.2-1.2,6.7-3.7,48,8.4
							c8.7,2.5,16.7,5.1,21.9,6.7c5.1,1.3,13.2,3.5,21.9,6.1c41.3,12.1,43.8,16.6,45,18.8c5.2,9.4,12.6,128.7-14.6,153.6
							C267.9,784.3,254.8,786,238.8,781.4z M183.9,735.9c0.8,0.2,1.5,0.7,2,1.5c6.7,10.7,31.4,30.5,54.8,37.4c0,0,0,0,0,0
							c13.8,4,24.3,2.9,31.2-3.5c24.2-22,16.9-138.3,13.2-145.1c-0.5-0.7-5-5-40.9-15.5c-8.6-2.5-16.7-4.7-21.9-6.1
							c-5.3-1.7-13.2-4.2-21.9-6.7c-35.8-10.5-42-9.3-42.8-8.9c-6.8,3.8-75.5,97.8-67,129.4c3,11.3,15,17,24.4,19.7
							c23.4,6.8,54.9,3.4,66.3-2C182.3,735.7,183.2,735.6,183.9,735.9z"/>
					</g>
					<g>
						<g>
							<path fill="#111D32" d="M192.9,705.1c0,0-18.3-5.7-20.7,2.4c-1.8,6,4.3,23.2,9.1,26.2c1.8,1.1,3.9,1.8,6.1,1.8
								c5.7,0,20-11.2,21.7-17.2C211.4,710.2,192.9,705.1,192.9,705.1z"/>
						</g>
					</g>
					<g>
						<g>
							<g>
								<circle fill="#111D32" cx="171.2" cy="647.8" r="12.4"/>
							</g>
						</g>
						<g>
							<g>
								<circle fill="#111D32" cx="242.1" cy="668.5" r="12.4"/>
							</g>
						</g>
					</g>
					<g>
						<g>
							<path fill="#C36F29" d="M182.2,585.3c-4.6-7.3-15-21.1-30.1-24.2c-20.7-4.2-66.2,17.2-64.9,28.5
								c1.3,11.3,10.7,69.8,28.5,71.3c17.8,1.5,38.2-46.4,49.7-51.2c9.8-4.2,14.2-5.9,17.8-14.7C184.3,591.8,184,588.2,182.2,585.3z
								"/>
							<path fill="#111D32" d="M113,664L113,664c-21.2-6.2-29.2-73.3-29.3-73.9c-0.4-3.5,1.6-7.2,5.9-11.1
								c12-11,45.1-24.8,63.2-21.2c16.2,3.3,27.3,17.8,32.3,25.7c2.4,3.8,2.8,8.6,1.1,12.8c-4,10-9.3,12.2-19,16.4l-0.6,0.2
								c-3.6,1.5-10,10.9-15.6,19.1c-10.7,15.7-22.9,33.5-35.7,32.4C114.6,664.4,113.8,664.2,113,664z M153.7,565.1
								c-0.7-0.2-1.5-0.4-2.3-0.6c-14.8-3-45.2,8.6-57.1,19.5c-3.1,2.8-3.8,4.6-3.7,5.3c2.4,21.3,12.2,64.5,24.3,68.1c0,0,0,0,0,0
								c0.3,0.1,0.7,0.2,1,0.2c8.7,0.8,20.7-16.7,29.4-29.4c7.3-10.7,13.2-19.2,18.6-21.6l0.6-0.2c9.3-3.9,12.4-5.3,15.3-12.6
								c0.9-2.2,0.7-4.6-0.6-6.6C175.1,580.5,166.2,568.7,153.7,565.1z"/>
						</g>
						<g>
							<path fill="#C36F29" d="M266.4,609.9c7.8-3.7,24-9.7,38.4-4.2c19.7,7.6,46.5,50.1,39.4,59c-7.2,8.9-46.5,53.1-62.4,44.8
								c-15.8-8.3-7.2-59.6-14.3-69.9c-6-8.8-8.8-12.6-7-21.9C261.1,614.3,263.3,611.4,266.4,609.9z"/>
							<path fill="#111D32" d="M282.4,713.5c-0.8-0.2-1.5-0.5-2.2-0.9c-11.4-5.9-12-27.5-12.6-46.5c-0.3-10-0.7-21.3-2.9-24.5
								l-0.3-0.5c-6-8.7-9.2-13.5-7.2-24c0.8-4.5,3.8-8.3,7.9-10.2c8.5-4,25.7-10.2,41.1-4.3c17.2,6.6,37.6,36.1,41.9,51.8
								c1.5,5.6,1.2,9.8-1,12.6C346.5,667.4,303.6,719.6,282.4,713.5z M301.4,608.2c-12.5-3.7-26.3,1.5-33.4,4.8
								c-2.1,1-3.6,2.9-4,5.2c-1.5,7.7,0.5,10.5,6.2,18.8l0.3,0.5c3.4,4.9,3.7,15.2,4.1,28.2c0.5,15.4,1.2,36.6,8.9,40.6
								c0.3,0.2,0.6,0.3,0.9,0.4c12.1,3.5,43.7-27.6,57.1-44.3c0.4-0.5,0.8-2.4-0.3-6.4c-4.2-15.6-23.6-41.7-37.7-47.2
								C302.8,608.7,302.1,608.4,301.4,608.2z"/>
						</g>
					</g>
				</g>
				<g>
					<g>
						<circle fill="#111D32" cx="158.3" cy="702.5" r="3"/>
						<circle fill="#111D32" cx="139.5" cy="702.8" r="3"/>
						<circle fill="#111D32" cx="147.9" cy="712.4" r="3"/>
						<circle fill="#111D32" cx="133.3" cy="716.2" r="3"/>
					</g>
					<g>
						<circle fill="#111D32" cx="223.5" cy="721.6" r="3"/>
						<circle fill="#111D32" cx="239.2" cy="731.9" r="3"/>
						<circle fill="#111D32" cx="226.9" cy="735.4" r="3"/>
						<circle fill="#111D32" cx="237.2" cy="746.5" r="3"/>
					</g>
				</g>
			</g>
		</g>
	</g>
	<g>
		<path opacity="0.66" fill="#0A5B53" d="M625.1,698.4c-6.6-65.2-23-75.7-28.4-79.3c-7.6-4.9-16.8-5.9-25.3-2.6l-1.1,0.4
			c-16.3,6.9-30.1,27.1-41,60.2c-11.1,1.6-21.5,4.2-29.7,7.3c-2,0.7-3.8,1.5-5.5,2.3c-1.8,0.5-3.7,1.2-5.7,1.9
			c-8.2,3.1-17.7,8.2-27,14.3c-30.2-17.4-53.9-23.3-70.7-17.6l-1.1,0.4c-8.5,3.2-14.7,10.1-17.1,18.8c-1.7,6.3-6.9,25.1,31.6,78.1
			c0,1,0,2,0.1,3c2.8,46.2,32.7,85.4,82.1,107.5c50.5,22.6,84,12,90,9.7l0.5-0.2c6.2-2.4,38.1-16.7,60.8-67.2
			c22.1-49.4,18.4-98.5-10.3-134.9C626.4,699.9,625.8,699.1,625.1,698.4z"/>
		<g>
			<path fill="#FFFFFF" d="M591.7,614.1c-7.6-4.9-16.8-5.9-25.3-2.6l-1.1,0.4c-16.3,6.9-30.1,27.1-41,60.2
				c-11.1,1.6-21.5,4.2-29.7,7.3c-2,0.7-3.8,1.5-5.5,2.3c-1.8,0.5-3.7,1.2-5.7,1.9c-8.2,3.1-17.7,8.2-27,14.3
				c-30.2-17.4-53.9-23.3-70.7-17.6l-1.1,0.4c-8.5,3.2-14.7,10.1-17.1,18.8c-1.7,6.3-6.9,25.1,31.6,78.1c0,1,0,2,0.1,3
				c2.8,46.2,32.7,85.4,82.1,107.5c50.5,22.6,84,12,90,9.7l0.5-0.2c6.2-2.4,38.1-16.7,60.8-67.2c22.1-49.4,18.4-98.5-10.3-134.9
				c-0.6-0.8-1.3-1.5-1.9-2.3C613.5,628.2,597.2,617.6,591.7,614.1z"/>
			<g>
				<g>
					<g>
						<g>
							<g>
								<path fill="#605F5D" d="M468.1,728.8c0,0-52.3-37.9-76.2-29.8c-23.8,8.1,30.4,77.1,30.4,77.1L468.1,728.8z"/>
								<path fill="#F4F3E7" d="M423.7,754.8C411.6,737.4,402,720,400,711.6c9.9,0.1,29.1,8.8,46.6,19.5L423.7,754.8z"/>
							</g>
						</g>
						<g>
							<path fill="#111D32" d="M422.1,781.4l-2.5-3.1c-4.3-5.5-42.1-54.4-36.6-74.4c1.1-3.8,3.6-6.6,7.3-8l0.5-0.2
								c25.2-8.6,77.1,28.7,79.3,30.3l3.2,2.3L422.1,781.4z M392.8,702.3c-1.7,0.6-2.6,1.7-3.1,3.4c-3.3,11.8,17.6,44.9,33,65.1
								l40.2-41.6c-16.4-11.3-52.8-32.8-69.8-27L392.8,702.3z"/>
						</g>
					</g>
					<g>
						<g>
							<g>
								<path fill="#605F5D" d="M536,702.9c0,0,13.8-63.1,37-72.9c23.2-9.8,28.7,77.8,28.7,77.8L536,702.9z"/>
								<path fill="#F4F3E7" d="M553.5,690.3c5.9-19.8,14.4-38.8,21.8-45.5c4.2,7.6,8.6,27,11.1,48L553.5,690.3z"/>
							</g>
						</g>
						<g>
							<path fill="#111D32" d="M605.4,711.5l-73.6-5.5l0.9-3.9c0.6-2.6,14.5-65,39-75.4l0.5-0.2c3.7-1.4,7.5-1,10.8,1.1
								c17.4,11.2,21.7,72.9,22.2,79.9L605.4,711.5z M540.3,699.7l57.6,4.3c-1.6-20.3-7.3-63.1-18.7-70.5c-1.5-1-2.9-1.1-4.6-0.5
								l-0.3,0.1C557.9,640.1,545,680.4,540.3,699.7z"/>
						</g>
					</g>
				</g>
				<g>
					<g>
						<path fill="#F4F3E7" d="M606.7,707.8c-21.2-26.8-88.1-19.3-110.6-7.7c-24.5,6.3-79.5,45.2-77.4,79.4
							c2,34.1,23.6,69.8,70.5,90.8c46.9,21,75.3,9.2,75.3,9.2s29.1-10.1,50.1-57C635.5,775.6,627.9,734.6,606.7,707.8z"/>
					</g>
					<path fill="#605F5D" d="M606.7,707.8c-21.2-26.8-88.1-19.3-110.6-7.7c-24.5,6.3-79.5,45.2-77.4,79.4
						c1.8,29.8,18.4,60.7,53.8,82c2.5-9.4-0.1-22.6-7.9-32.5c-12.2-15.4-17.5-33.4-10-52.6c7.5-19.2,28.5-23.5,46.3-15.5
						c17.8,8,19.8,3.5,19.8,3.5s4.5,2,12.4-15.8c8-17.8,26.6-28.6,44.9-19.2c18.3,9.4,26.4,26.3,27.5,46
						c0.7,12.6,7.6,24.1,15.7,29.5C633.3,765.4,625.2,731.2,606.7,707.8z"/>
					<g>
						<path fill="#111D32" d="M565.9,882.6L565.9,882.6l-0.3,0.1c0,0,0,0,0,0c-3.3,1.3-32.2,11.1-77.8-9.3
							c-43.7-19.6-70.2-53.7-72.5-93.7c-2-33.9,47-70.7,73.9-80.9c2-0.8,3.9-1.4,5.7-1.9c1.6-0.8,3.5-1.6,5.5-2.4
							c26.9-10.2,88-15.4,109,11.2c24.8,31.4,27.8,74.5,8.3,118.2C597.2,869.6,569,881.4,565.9,882.6z M563.3,876.2l1.3,3.2
							l-1.2-3.2c2.9-1.1,28.6-11.9,47.9-55.1c18.5-41.3,15.8-81.8-7.4-111.1c-18.7-23.7-76.6-18.4-101.2-9c-1.9,0.7-3.7,1.5-5.2,2.3
							l-0.3,0.2l-0.4,0.1c-1.6,0.4-3.4,1-5.4,1.7c-24.5,9.3-71.3,44-69.5,74.1c2.2,37.3,27.2,69.3,68.5,87.8
							c43.1,19.3,69.6,10.3,72.4,9.2L563.3,876.2z"/>
					</g>
				</g>
				<g>
					<g>
						<g>
							<path fill="#111D32" d="M566.9,843.9c-6.8,2.6-12.7,0.6-16.9-2.5c-1.1,5.4-4.3,10.9-11.7,13.4c-15,5.1-20.1-4.1-20.3-4.5
								c-0.9-1.7-0.3-3.8,1.4-4.7c1.7-0.9,3.8-0.3,4.7,1.4c0.1,0.1,2.8,4.3,12,1.2c9.4-3.1,7.3-14.3,7.2-14.8
								c-0.3-1.6,0.6-3.3,2.2-3.9c0,0,0,0,0,0c1.6-0.6,3.3,0,4.2,1.5c0.2,0.4,6.1,10.1,15.2,6.2c9-3.8,8.2-8.8,8.1-9
								c-0.3-1.8,0.8-3.7,2.7-4.1c1.8-0.4,3.6,0.7,4.1,2.5c0.1,0.4,2.4,10.7-12.2,16.9C567.3,843.7,567.1,843.8,566.9,843.9z"/>
						</g>
					</g>
					<g>
						<path fill="#111D32" d="M538.5,811.3c0,0-16,5.6-12.1,15.8c2.9,7.6,13.4,8.9,18.6,9.1c2,0.1,3.8-0.6,5.2-2
							c3.8-3.6,10.7-11.6,7.8-19.2C554.1,804.9,538.5,811.3,538.5,811.3z"/>
					</g>
				</g>
				<g>
					<g>
						<g>
							<circle fill="#111D32" cx="493.9" cy="798.1" r="12.4"/>
							<path fill="#F4F3E7" d="M499.7,806.8c-1.6,0.6-3.5-0.2-4.1-1.8c-0.6-1.6,0.2-3.5,1.8-4.1c1.6-0.6,3.5,0.2,4.1,1.8
								C502.1,804.3,501.3,806.1,499.7,806.8z"/>
						</g>
					</g>
					<g>
						<g>
							<circle fill="#111D32" cx="562.9" cy="771.8" r="12.4"/>
							<path fill="#F4F3E7" d="M568.7,780.5c-1.6,0.6-3.5-0.2-4.1-1.8c-0.6-1.6,0.2-3.5,1.8-4.1c1.6-0.6,3.5,0.2,4.1,1.8
								S570.3,779.8,568.7,780.5z"/>
						</g>
					</g>
				</g>
			</g>
		</g>
	</g>
	<g>
		<path opacity="0.66" fill="#0A5B53" d="M1284.7,576.6c-8.8-2.5-18.8-3.6-29.7-3.2c-6.1-2-13.2-4.2-21.3-6.6
			c-9.3-2.7-17.5-4.9-21.9-6c-5.3-1.7-13.2-4.1-21.9-6.6c-8.1-2.3-15.3-4.3-21.5-5.8c-9-6.2-18-10.6-26.9-13.1
			c-61.8-17.8-100.2,53.7-120.8,92.1c-19.3,36-24.4,67.3-14.6,90.5c7.1,17,21.6,29,41.9,34.9c4.6,1.3,9.6,2.4,14.8,3.1
			c13.5,1.8,25.7-1.2,35.1-8.6c0.4-0.3,0.8-0.6,1.2-1c9.6,17.1,27.2,30.8,48.4,36.9c21.2,6.1,43.4,3.9,60.6-5.5
			c0.2,0.5,0.3,1,0.5,1.5c4,11.3,12.7,20.3,25.1,26c4.8,2.2,9.6,4,14.2,5.3c20.3,5.8,38.9,3.4,54-7.2c20.6-14.4,33-43.6,35.8-84.4
			C1340.9,675.4,1346.5,594.5,1284.7,576.6z"/>
		<g>
			<path fill="#FFFFFF" d="M1332.9,713.9c3-43.5,8.7-124.5-53.1-142.3c-8.8-2.5-18.8-3.6-29.7-3.2c-6.1-2-13.2-4.2-21.3-6.6
				c-9.3-2.7-17.5-4.9-21.9-6c-5.3-1.7-13.2-4.1-21.9-6.6c-8.1-2.3-15.3-4.3-21.5-5.8c-9-6.2-18-10.6-26.9-13.1
				c-61.8-17.8-100.2,53.7-120.8,92.1c-19.3,36-24.4,67.3-14.6,90.5c7.1,17,21.6,29,41.9,34.9c4.6,1.3,9.6,2.4,14.8,3.1
				c13.5,1.8,25.7-1.2,35.1-8.6c0.4-0.3,0.8-0.6,1.2-1c9.6,17.1,27.2,30.8,48.4,36.9c21.2,6.1,43.4,3.9,60.6-5.5
				c0.2,0.5,0.3,1,0.5,1.5c4,11.3,12.7,20.3,25.1,26c4.8,2.2,9.6,4,14.2,5.3c20.3,5.8,38.9,3.4,54-7.2
				C1317.7,783.9,1330,754.7,1332.9,713.9z"/>
			<g>
				<g>
					<path fill="#FFFFFF" d="M1212.9,733c-6.6,23-35.7,34.8-64.8,26.4s-47.5-33.9-40.8-56.8c6.6-23,40.1-50.3,69.3-41.9
						S1219.5,710,1212.9,733z"/>
					<path fill="#111D32" d="M1147.1,762.6c-31-8.9-50.4-36.4-43.2-61.1c7.1-24.8,42.6-53.2,73.6-44.2c31,8.9,45.9,51.9,38.7,76.6
						C1209,758.7,1178,771.6,1147.1,762.6z M1175.5,663.9c-27.3-7.9-58.9,18.4-65,39.5s11.2,44.7,38.5,52.6
						c27.3,7.9,54.5-2.9,60.6-24C1215.6,710.9,1202.9,671.8,1175.5,663.9z"/>
				</g>
				<g>
					<path fill="#FFFFFF" d="M1266.3,597.7c-3.6-6.5-48.3-18.7-65-23c-16.4-5.2-60.7-18.7-67.2-15.1c-8,4.4-77.4,99.8-68.3,133.6
						c8.6,31.6,75.9,29.1,95.7,19.7c11.7,18.5,67.3,56.5,91.4,34.3C1278.6,723.4,1270.7,605.7,1266.3,597.7z"/>
					<g>
						<g>
							<path fill="#A1715C" d="M1134.1,559.5c-8,4.4-77.4,99.8-68.3,133.6c0.9,3.4,2.6,6.5,4.8,9.1c10.5-10.3,38.8-45.7,69.3-49
								c33.5-3.6,49-59.4,53.7-81C1174.1,566.2,1139.7,556.4,1134.1,559.5z"/>
							<path fill="#A1715C" d="M1266.3,597.7c-3.1-5.7-37.4-15.6-57.3-21c-7.5,20.8-24.1,76.2,2.4,97.1
								c24.1,19.1,29.2,64.1,32.6,78.4c3.3-1.1,6.3-2.8,8.9-5.2C1278.6,723.4,1270.7,605.7,1266.3,597.7z"/>
						</g>
					</g>
					<path fill="#111D32" d="M1217.4,754.8C1217.4,754.7,1217.4,754.7,1217.4,754.8c-22-6.4-47.2-24.5-57.2-37.7
						c-15.5,5.9-46.5,7.8-68.5,1.5c-16-4.6-26.2-13.1-29.3-24.5c-9.7-35.6,60.5-132.3,69.9-137.5c2.2-1.2,6.7-3.7,48.1,8.2
						c8.7,2.5,16.7,5,21.9,6.6c5.1,1.3,13.2,3.5,21.9,6c41.3,11.9,43.8,16.5,45,18.6c5.2,9.4,13.1,128.7-14.1,153.6
						C1246.5,757.6,1233.5,759.4,1217.4,754.8z M1162.4,709.4c0.8,0.2,1.5,0.7,2,1.5c6.8,10.7,31.5,30.4,55,37.2c0,0,0,0,0,0
						c13.8,4,24.3,2.8,31.2-3.6c24.1-22.1,16.4-138.3,12.7-145.2c-0.5-0.7-5-5-40.9-15.3c-8.6-2.5-16.7-4.6-21.9-6
						c-5.3-1.7-13.3-4.2-21.9-6.6c-35.9-10.4-42-9.1-42.8-8.8c-6.8,3.8-75.1,98.1-66.5,129.6c3.1,11.3,15,16.9,24.5,19.7
						c23.4,6.8,54.9,3.2,66.3-2.2C1160.8,709.3,1161.6,709.2,1162.4,709.4z"/>
				</g>
				<g>
					<g>
						<path fill="#111D32" d="M1171.3,678.7c0,0-18.3-5.6-20.7,2.4c-1.7,6,4.3,23.2,9.1,26.2c1.8,1.1,3.9,1.7,6.1,1.7
							c5.7,0,19.9-11.3,21.7-17.3C1189.8,683.7,1171.3,678.7,1171.3,678.7z"/>
					</g>
				</g>
				<g>
					<g>
						<g>
							<circle fill="#111D32" cx="1149.4" cy="621.4" r="12.4"/>
							<path fill="#FFFFFF" d="M1148.8,631.8c-1.7-0.5-2.7-2.3-2.2-3.9c0.5-1.7,2.3-2.7,3.9-2.2c1.7,0.5,2.7,2.3,2.2,3.9
								C1152.3,631.3,1150.5,632.3,1148.8,631.8z"/>
						</g>
					</g>
					<g>
						<g>
							<circle fill="#111D32" cx="1220.3" cy="641.9" r="12.4"/>
							<path fill="#FFFFFF" d="M1219.7,652.3c-1.7-0.5-2.7-2.3-2.2-3.9c0.5-1.7,2.3-2.7,3.9-2.2c1.7,0.5,2.7,2.3,2.2,3.9
								C1223.2,651.8,1221.4,652.7,1219.7,652.3z"/>
						</g>
					</g>
				</g>
				<g>
					<g>
						<circle fill="#111D32" cx="1136.7" cy="676.2" r="3"/>
						<circle fill="#111D32" cx="1117.9" cy="676.6" r="3"/>
						<circle fill="#111D32" cx="1126.3" cy="686.1" r="3"/>
						<circle fill="#111D32" cx="1111.7" cy="689.9" r="3"/>
					</g>
					<g>
						<circle fill="#111D32" cx="1201.9" cy="695" r="3"/>
						<circle fill="#111D32" cx="1217.6" cy="705.3" r="3"/>
						<circle fill="#111D32" cx="1205.4" cy="708.9" r="3"/>
						<circle fill="#111D32" cx="1215.7" cy="719.9" r="3"/>
					</g>
				</g>
				<g>
					<g>
						<path fill="#8D604E" d="M1158.6,564.2c0,0-36,9.8-51,53.5c-15,43.7-0.9,119.8-47.2,113.6s-58.6-41.5-27.4-99.7
							C1065.5,571.3,1101.5,519,1158.6,564.2z"/>
						<path fill="#111D32" d="M1047.5,732.3c-15.6-4.5-26.2-13.1-31.5-25.6c-7.8-18.5-3-45,14-76.6c25.5-47.6,56.6-97.3,102.1-84.2
							c9.2,2.7,18.9,7.9,28.7,15.7l5.4,4.2l-6.6,1.8c-0.3,0.1-34.4,10-48.6,51.3c-4.7,13.6-6.5,30.8-8.2,47.4
							c-2.8,26.8-5.5,52.1-19.7,63.2c-6,4.7-13.8,6.5-23,5.3C1055.6,734.2,1051.4,733.4,1047.5,732.3z M1130.2,552.5
							c-40.5-11.7-69.8,35.6-94.1,80.9c-15.9,29.7-20.7,54.1-13.7,70.6c5.6,13.2,18.7,21.4,38.5,24c7.4,1,13.2-0.3,17.8-3.9
							c11.9-9.4,14.4-33.2,17.1-58.5c1.8-17,3.6-34.6,8.6-48.9c11.8-34.3,35.7-48.4,47.1-53.4C1144.1,558.1,1137,554.5,1130.2,552.5
							z"/>
					</g>
					<g>
						<path fill="#8D604E" d="M1243,588.6c0,0,25.2,27.5,14.6,72.5c-10.6,45-63,101.9-20.6,121.3c42.4,19.4,71.7-3.9,76.3-69.8
							C1318.1,644.1,1315.4,580.8,1243,588.6z"/>
						<path fill="#111D32" d="M1247.5,790C1247.5,790,1247.5,790,1247.5,790c-3.9-1.1-7.9-2.6-11.9-4.5c-8.5-3.9-14.1-9.5-16.6-16.8
							c-6.1-17,5.2-39.8,17-64c7.4-15,15-30.5,18.3-44.5c10-42.5-13.6-69.1-13.8-69.3l-4.6-5l6.8-0.7c12.4-1.3,23.4-0.7,32.6,2
							c45.5,13.1,45.3,71.7,41.5,125.7c-2.5,35.8-12.5,60.8-29,72.3C1276.7,792.8,1263.1,794.5,1247.5,790z M1249.6,591.5
							c7,10.3,19.7,35.1,11.4,70.3c-3.5,14.8-11.3,30.6-18.8,46c-11.2,22.8-21.8,44.4-16.7,58.6c2,5.5,6.2,9.7,13,12.8
							c3.8,1.7,7.4,3.1,11,4.1l0,0c13.5,3.9,25.1,2.6,34.4-3.9c14.7-10.3,23.7-33.5,26-67.1c3.6-51.2,4-106.8-36.5-118.5
							C1266.5,591.8,1258.5,591.1,1249.6,591.5z"/>
					</g>
				</g>
			</g>
		</g>
	</g>
	<g>
		<path opacity="0.66" fill="#0A5B53" d="M732.4,303.4c3.3,15,6.1,28,19,32.7c5.4,2,11.3,1.6,16.5-0.9c0.3-0.1,0.6-0.3,0.8-0.4
			c9.8,30.4,32.4,41.8,43,45.7c3.8,1.4,7.1,2.2,9.4,2.6c1,0.4,2.1,0.8,3.4,1.3c20.2,7.3,45.6,8.7,66-4c2.5,4.7,6.6,8.2,11.6,10
			c13,4.7,23.4-3.5,35.5-13c4-3.1,8.1-6.4,11.8-8.8c21.3-14,38.6-33.6,54.4-61.8c6.6-11.7,6.5-26.8-0.2-44.8
			c-10.2-27.4-37.9-63.9-59.8-71.8c-1-0.4-2-0.7-3-0.9c-12.1-10.2-25.8-18.5-37.4-22.7c-1.7-0.6-3.4-1.1-5-1.6
			c-1.5-0.7-3.1-1.3-4.8-2c-11.7-4.2-27.6-6.5-43.4-6.4c-1.1-0.5-2.2-1-3.3-1.4c-21.8-7.9-66.5,2.5-91.8,17.1
			c-16.6,9.6-26.3,21.1-28.7,34.3c-5.8,31.8-5.1,57.9,2.4,82.3C730.2,293.3,731.3,298.4,732.4,303.4z"/>
		<g>
			<path fill="#FFFFFF" d="M939,185.3c-1-0.4-2-0.7-3-0.9c-12.1-10.2-25.8-18.5-37.4-22.7c-1.7-0.6-3.4-1.1-5-1.6
				c-1.5-0.7-3.1-1.3-4.8-2c-11.7-4.2-27.6-6.5-43.4-6.4c-1.1-0.5-2.2-1-3.3-1.4c-21.8-7.9-66.5,2.5-91.8,17.1
				c-16.6,9.6-26.3,21.1-28.7,34.3c-5.8,31.8-5.1,57.9,2.4,82.3c1.3,4.3,2.4,9.4,3.5,14.4c3.3,15,6.1,28,19,32.7
				c5.4,2,11.3,1.6,16.5-0.9c0.3-0.1,0.6-0.3,0.8-0.4c9.8,30.4,32.4,41.8,43,45.7c3.8,1.4,7.1,2.2,9.4,2.6c1,0.4,2.1,0.8,3.4,1.3
				c20.2,7.3,45.6,8.7,66-4c2.5,4.7,6.6,8.2,11.6,10c13,4.7,23.4-3.5,35.5-13c4-3.1,8.1-6.4,11.8-8.8c21.3-14,38.6-33.6,54.4-61.8
				c6.6-11.7,6.5-26.8-0.2-44.8C988.6,229.7,960.9,193.2,939,185.3z"/>
			<g>
				<g>
					<g>
						<g>
							<g>
								<g>
									<path fill="#F3C26B" d="M953.3,252.1c2.7-33.7-44.9-68.7-66.4-73.4c-19.6-10-78.5-13.5-98,14.2
										c-19.4,27.7-13.9,65.3-9.9,113.3c4.1,49.2,42.8,53.1,42.8,53.1s43.9,21,66.8-13.6C915.1,305.5,950.6,285.8,953.3,252.1z"/>
									<path fill="#111D32" d="M812.3,360.3c-12.4-4.5-33.7-17.4-36.7-53.9c-0.4-4.4-0.7-8.7-1.1-12.9
										c-3.8-42.7-6.7-76.5,11.6-102.6c19.3-27.5,73.5-26,97.2-17.5c1.8,0.6,3.4,1.3,4.8,2c1.6,0.4,3.2,0.9,5,1.5
										c23.6,8.5,66.3,42,63.6,75.5c-1.8,22.1-16.7,38.3-33.9,57c-10.1,10.9-21.5,23.3-31.3,38.2c-20.1,30.5-55.8,20.5-66.3,16.7
										l0,0c-2.1-0.7-3.6-1.4-4.3-1.7C819.6,362.4,816.4,361.8,812.3,360.3z M880.9,179.8c-21.3-7.7-72.1-9.3-89.1,15
										c-16.9,24.1-14,56.7-10.4,98.1c0.4,4.2,0.8,8.6,1.1,13c2.7,32.6,21.3,44.1,32.2,48c4.4,1.6,7.5,1.9,7.5,1.9l0.6,0.1
										l0.5,0.3c0,0,1.6,0.8,4.2,1.7c11.9,4.3,41.3,11.5,58.2-14c10.2-15.4,21.8-28,32-39.1c17-18.5,30.5-33.1,32.1-52.8
										c2.6-31.9-44.4-65.5-63.7-69.8l-0.4-0.1l-0.4-0.2C884.1,181.1,882.6,180.4,880.9,179.8z"/>
								</g>
							</g>
						</g>
						<g>
							<g>
								<g>
									<path fill="#111D32" d="M846.8,333.8c-6.9-2.5-10-7.8-11.2-12.9c-4.4,3.3-10.4,5.4-17.6,2.5c-14.7-5.9-12.6-16.2-12.5-16.7
										c0.4-1.9,2.3-3,4.1-2.6c1.9,0.4,3,2.3,2.6,4.1c0,0.1-0.7,5.1,8.3,8.7c9.2,3.8,14.9-6.1,15.1-6.5c0.8-1.5,2.6-2.1,4.2-1.5
										c0,0,0,0,0,0c1.6,0.6,2.5,2.2,2.2,3.9c-0.1,0.5-1.9,11.6,7.5,14.6c9.3,3,11.9-1.3,12-1.5c0.9-1.6,3-2.2,4.7-1.3
										c1.6,0.9,2.3,2.9,1.4,4.6c-0.2,0.4-5.1,9.7-20.2,4.9C847.3,334,847.1,333.9,846.8,333.8z"/>
								</g>
							</g>
							<g>
								<path fill="#111D32" d="M846.5,290.6c0,0-15.8-6.1-19.5,4.1c-2.8,7.6,4.3,15.5,8.2,19c1.4,1.3,3.3,2,5.2,1.9
									c5.2-0.3,15.7-1.8,18.4-9.4C862.6,295.9,846.5,290.6,846.5,290.6z"/>
							</g>
						</g>
						<g>
							<g>
								<g>
									<circle fill="#111D32" cx="821.4" cy="251.5" r="12.4"/>
									<path fill="#F4F3E7" d="M820.1,261.8c-1.7-0.6-2.5-2.4-1.9-4.1c0.6-1.7,2.4-2.5,4.1-1.9c1.7,0.6,2.5,2.4,1.9,4.1
										C823.6,261.6,821.8,262.4,820.1,261.8z"/>
								</g>
							</g>
							<g>
								<g>
									<circle fill="#111D32" cx="890.8" cy="276.6" r="12.4"/>
									<path fill="#F4F3E7" d="M889.6,286.9c-1.7-0.6-2.5-2.4-1.9-4.1s2.4-2.5,4.1-1.9c1.7,0.6,2.5,2.4,1.9,4.1
										S891.2,287.5,889.6,286.9z"/>
								</g>
							</g>
						</g>
					</g>
					<g>
						<g>
							<path fill="#C88F6A" d="M839,170.8c0,0-44.6,35.4-75.3,123.7c-13.7,39.5-14.4,5.9-21.1-16.2s-6.9-45.4-1.9-73
								C745.8,177.7,826.1,158.8,839,170.8z"/>
							<path fill="#111D32" d="M751.9,315.9c-4.4-1.6-5.9-7.9-8.7-20.9c-1.2-5.3-2.3-10.8-3.8-15.7c-6.7-21.8-7.3-45.5-2-74.7
								c1.5-8.3,8.5-16.2,20.9-23.2c23.4-13.4,62.9-21.5,78.3-15.9c2,0.7,3.6,1.7,4.8,2.8l2.9,2.7l-3.1,2.5
								c-0.4,0.4-44.3,36-74.1,122.1c-5.4,15.6-8.5,18.8-11,20C754.7,316.3,753.2,316.4,751.9,315.9z M832.9,171.6
								c-13.5-3.6-48.5,2.8-71.2,15.8c-10.3,5.9-16.4,12.3-17.5,18.5c-5.1,28-4.6,50.7,1.8,71.4c1.6,5.2,2.9,11.1,4,16.2
								c1.1,5.2,2.6,12.1,4,14.9c1.1-1.5,3.2-5.4,6.6-15.1C786.1,219.5,821.1,182.5,832.9,171.6z"/>
						</g>
						<g>
							<path fill="#C88F6A" d="M928.3,203c0,0,11.8,55.7-21,143.2c-14.7,39.1,7.3,13.7,26.6,1c19.3-12.7,34.3-30.5,48-55
								C995.7,267.8,945.8,202,928.3,203z"/>
							<path fill="#111D32" d="M902.7,370.3C902.7,370.3,902.7,370.3,902.7,370.3c-1.3-0.5-2.4-1.5-3-2.8c-1.2-2.5-1.5-7,4.3-22.4
								c32.1-85.6,21-140.8,20.9-141.3l-0.8-3.9l4-0.2c1.7-0.1,3.5,0.2,5.5,0.9c15.4,5.6,40.7,37,50.1,62.2
								c5,13.3,5.4,23.8,1.2,31.2c-14.5,25.8-30.1,43.7-49.2,56.2c-4.3,2.8-8.7,6.3-13,9.6C912.3,368,907.1,371.9,902.7,370.3z
								 M932.5,207.5c2.1,15.9,5.5,66.7-22,139.9c-3.6,9.6-4.4,13.9-4.6,15.8c2.8-1.3,8.4-5.7,12.6-9c4.2-3.3,8.9-7,13.4-10
								c18.1-11.9,33-29,46.9-53.8c3.1-5.5,2.5-14.2-1.7-25.4C968.1,240.6,945.2,213.4,932.5,207.5z"/>
						</g>
					</g>
				</g>
				<g>
					<g>
						<path fill="#F15A29" d="M970.4,264.5c0,0-32.1-27.1-100.8-38.6c-60.2-34.9-102.3-34.6-102.3-34.6l-5.5,14l10.6,8.4
							c-2.4,10.5-5.7,44.8,31,53s46.1-25.7,50.3-28.3c4.1-2.6,11.5-0.4,11.5-0.4s7.1,3,8.6,7.7c1.5,4.6-12.8,36.8,20.6,53.9
							c33.5,17.1,52.8-11.4,57.7-21.1l13.5,0.3L970.4,264.5z"/>
						<path fill="#111D32" d="M899.7,305.5C899.7,305.5,899.7,305.5,899.7,305.5c-2.2-0.8-4.5-1.8-6.8-2.9
							c-29-14.8-24.8-40.7-23-51.8c0.3-1.6,0.6-3.6,0.6-4.3c-0.9-2.2-4.6-4.5-6.5-5.3c-2-0.5-6.3-1.2-8.4,0
							c-0.5,0.5-1.5,2.2-2.3,3.6c-5.7,9.7-18.9,32.3-50.7,25.2c-2.5-0.6-4.9-1.2-7.1-2c-31.7-11.4-28.6-43.6-26.9-53l-9-7.1
							c-1.2-0.9-1.6-2.6-1.1-4l5.5-14c0.5-1.3,1.8-2.2,3.2-2.2c0.9,0,21.6,0,54.9,12c16.1,5.8,32.4,13.5,48.5,22.8
							c18.4,3.1,35.8,7.7,51.9,13.4c33.3,12,49.3,25.3,49.9,25.8c1.1,0.9,1.5,2.4,1.1,3.7l-4.7,14.2c-0.5,1.5-1.8,2.4-3.4,2.4
							l-11.4-0.3C949.5,290.1,931.4,316.9,899.7,305.5z M866.4,234.7c0.1,0,0.1,0,0.2,0.1c0.9,0.4,8.6,3.8,10.6,9.8
							c0.6,1.7,0.2,3.9-0.4,7.4c-1.8,11.2-5.2,32,19.3,44.5c2,1,4,1.9,6,2.6c29.6,10.7,45.4-18.8,47.1-22.2c0.6-1.2,1.8-1.9,3.2-1.9
							l11,0.3l3.1-9.5c-5-3.7-20.2-13.9-46-23.2c-15.9-5.7-33.1-10.2-51.3-13.2c-0.4-0.1-0.8-0.2-1.2-0.4
							c-16-9.3-32.1-16.8-47.9-22.6c-25.8-9.3-44.1-11.1-50.2-11.5l-3.7,9.3l8.6,6.8c1.1,0.8,1.5,2.2,1.2,3.5
							c-0.9,3.7-7.5,36.4,22.1,47.1c2,0.7,4.1,1.3,6.2,1.8c26.8,6,37.5-12.2,43.2-21.9c1.8-3.1,2.9-4.9,4.4-5.9
							c5.3-3.4,13.5-1.1,14.4-0.8C866.3,234.6,866.4,234.7,866.4,234.7z"/>
					</g>
					<g>
						<g>
							<path fill="#111D32" d="M785.4,204.3c0,0,37.9,7.1,61.5,22.2c0,0-9.2,41.2-45.1,30.8C765.8,246.9,785.4,204.3,785.4,204.3z"
								/>
						</g>
						<g>
							<path fill="#111D32" d="M948.2,263c0,0-33.7-18.8-61.5-22.2c0,0-19.2,37.6,15.1,52.5C936.1,308.3,948.2,263,948.2,263z"/>
						</g>
					</g>
				</g>
			</g>
		</g>
	</g>
	<g>
		<path opacity="0.66" fill="#0A5B53" d="M1027.5,776.9c-4.4-15.8-17-28.4-32.7-32.8c-9.7-2.7-21-5.1-33.6-7.1
			c-21.7-3.4-44-5.2-66.2-5.2c-22.2,0-44.5,1.7-66.2,5.2c-12.7,2-24,4.4-33.6,7.1c-15.7,4.4-28.2,17-32.7,32.9l-13.5,48.2
			c-3.4,12.3-1.9,25.2,4.4,36.3c6.3,11.1,16.5,19,28.8,22.4c21.5,5.8,58.3,13.2,111,15.1c0.6,0,1.2,0,1.8,0c0.6,0,1.2,0,1.8,0
			c52.7-1.9,89.5-9.2,111-15.1c12.3-3.3,22.5-11.3,28.8-22.4c6.3-11.1,7.9-24,4.4-36.3L1027.5,776.9z"/>
		<g>
			<path fill="#FFFFFF" d="M989.8,739c-9.7-2.7-21-5.1-33.6-7.1c-21.7-3.4-44-5.2-66.2-5.2c-22.2,0-44.5,1.7-66.2,5.2
				c-12.7,2-24,4.4-33.6,7.1c-15.7,4.4-28.2,17-32.7,32.9l-13.5,48.2c-3.4,12.3-1.9,25.2,4.4,36.3c6.3,11.1,16.5,19,28.8,22.4
				c21.5,5.8,58.3,13.2,111,15.1c0.6,0,1.2,0,1.8,0c0.6,0,1.2,0,1.8,0c52.7-1.9,89.5-9.2,111-15.1c12.3-3.3,22.5-11.3,28.8-22.4
				c6.3-11.1,7.9-24,4.4-36.3l-13.5-48.2C1018,756,1005.5,743.5,989.8,739z"/>
			<g>
				<g>
					<g>
						<path fill="#F15A29" d="M1017.1,825.3l-13.5-48.2c-2.6-9.3-9.8-16.7-19.1-19.3c-9.8-2.8-20.6-4.9-31.4-6.6
							c-41.8-6.6-84.5-6.6-126.3,0c-10.8,1.7-21.6,3.9-31.4,6.6c-9.3,2.6-16.5,10-19.1,19.3l-13.5,48.2
							c-4.2,14.9,4.6,30.4,19.5,34.5c21.5,5.8,56.5,12.6,106.6,14.4c0.7,0,1.4,0,2.2,0c50.1-1.8,85.1-8.6,106.6-14.4
							C1012.5,855.8,1021.3,840.2,1017.1,825.3z"/>
						<path fill="#111D32" d="M890,877.7c-0.4,0-0.8,0-1.2,0c-51.2-1.8-86.6-8.9-107.3-14.5c-8.1-2.2-14.8-7.4-19-14.8
							c-4.2-7.4-5.2-15.9-2.9-24l13.5-48.2c2.9-10.5,11.2-18.8,21.5-21.7c9-2.6,19.7-4.8,31.8-6.7c42-6.7,85.4-6.7,127.3,0
							c12,1.9,22.7,4.2,31.8,6.7c10.3,2.9,18.6,11.2,21.5,21.7l13.5,48.2c2.3,8.1,1.2,16.6-2.9,24c-4.2,7.3-10.9,12.6-19,14.8
							c-20.7,5.6-56.2,12.7-107.3,14.5C890.8,877.7,890.4,877.7,890,877.7z M890,749.7c-20.9,0-42,1.7-62.6,4.9
							c-11.8,1.9-22.2,4.1-31,6.6c-8,2.3-14.4,8.7-16.7,16.9l-13.5,48.2c-1.8,6.3-1,13,2.3,18.7c3.2,5.7,8.5,9.8,14.8,11.5
							c20.4,5.5,55.3,12.5,105.8,14.3c0.6,0,1.3,0,1.9,0c50.5-1.8,85.4-8.7,105.8-14.3c6.3-1.7,11.5-5.8,14.8-11.5
							c3.3-5.7,4.1-12.4,2.3-18.7l-13.5-48.2c-2.3-8.1-8.7-14.6-16.7-16.9c-8.8-2.5-19.2-4.7-31-6.6
							C931.9,751.4,910.9,749.7,890,749.7z"/>
					</g>
					<ellipse fill="#8C251C" cx="894.1" cy="778.2" rx="92.1" ry="16.2"/>
				</g>
				<g>
					<path fill="#FFFFFF" d="M873.2,851.4c0-7.5,7.5-21.8,16.7-21.8s16.7,14.3,16.7,21.8s-7.5,10.5-16.7,10.5
						S873.2,858.8,873.2,851.4z"/>
					
						<ellipse transform="matrix(0.989 -0.1482 0.1482 0.989 -111.1726 139.5782)" fill="#FFFFFF" cx="880.8" cy="815.6" rx="7" ry="9.3"/>
					
						<ellipse transform="matrix(0.9912 0.1326 -0.1326 0.9912 116.1106 -112.0491)" fill="#FFFFFF" cx="899.2" cy="815.6" rx="7" ry="9.3"/>
					
						<ellipse transform="matrix(0.8795 0.4758 -0.4758 0.8795 506.3427 -334.5211)" fill="#FFFFFF" cx="913.9" cy="832.8" rx="7.3" ry="9.8"/>
					
						<ellipse transform="matrix(-0.8795 0.4758 -0.4758 -0.8795 2024.0599 1153.1926)" fill="#FFFFFF" cx="866.1" cy="832.8" rx="7.3" ry="9.8"/>
				</g>
			</g>
		</g>
	</g>
</g>
</svg>
