<?xml version="1.0" encoding="iso-8859-1"?>
<!-- Generator: Adobe Illustrator 19.0.0, SVG Export Plug-In . SVG Version: 6.00 Build 0)  -->
<svg version="1.1" id="Capa_1" xmlns="http://www.w3.org/2000/svg" xmlns:xlink="http://www.w3.org/1999/xlink" x="0px" y="0px"
	 viewBox="0 0 512 512" style="enable-background:new 0 0 512 512;" xml:space="preserve">
<g>
	<g>
		<path d="M470.735,158.055L305.743,6.62C300.323,2.285,293.849,0,287.023,0c-6.825,0-13.314,2.285-18.733,6.62L103.315,157.603
			c-12.93,10.326-15.074,29.186-4.688,42.154c10.293,12.89,29.176,15.085,42.154,4.688L287.023,69.461l146.274,135.451
			c12.073,9.722,32.31,7.625,42.125-4.717C485.793,187.281,483.678,168.392,470.735,158.055z"/>
	</g>
</g>
<g>
	<g>
		<path d="M437.01,0.044h-59.995c-8.29,0-14.999,6.708-14.999,14.999v2.366l89.992,83.002V15.043
			C452.009,6.752,445.301,0.044,437.01,0.044z"/>
	</g>
</g>
<g>
	<g>
		<path d="M47.044,241.023H15.047c-8.29,0-14.999,6.708-14.999,14.999v240.979c0,8.29,6.708,14.999,14.999,14.999h31.997
			c24.812,0,44.996-20.184,44.996-44.996V286.019C92.04,261.207,71.857,241.023,47.044,241.023z"/>
	</g>
</g>
<g>
	<g>
		<path d="M499.706,276.72c-12.3-8.999-29.398-7.199-39.597,3.9l-80.993,100.791c-5.7,5.999-16.499,9.599-22.198,9.599h-129.89
			c-8.4,0-14.999-6.598-14.999-14.999s6.598-14.999,14.999-14.999c67.194,0,45.296,0,119.99,0c16.499,0,29.997-13.499,29.997-29.997
			c0-16.499-13.499-29.997-29.997-29.997c-70.44,0-3.25,0-78.593,0c-7.475,0-11.203-4.741-17.099-9.9
			c-8.999-8.098-19.198-14.098-29.697-18.298c-32.506-13.274-70.067-9.257-99.591,11.275c0,54.614,0,135.993,0,197.907h224.981
			c28.198,0,55.196-13.499,71.995-35.997l86.992-126.989C515.904,305.817,513.204,286.619,499.706,276.72z"/>
	</g>
</g>
<g>
	<g>
		<path d="M286.994,110.312L152.035,234.89v4.07c9.901-2.281,19.993-3.825,30.319-3.825c17.475,0,34.494,3.34,50.606,9.916
			c3.177,1.271,6.026,3.069,9.066,4.565v-23.591c0-8.29,6.708-14.999,14.999-14.999h59.995c8.29,0,14.999,6.708,14.999,14.999
			v44.996h15c24.065,0,44.864,14.237,54.414,34.728l20.579-25.609v-44.893L286.994,110.312z"/>
	</g>
</g>
<g>
	<g>
		<polygon points="272.024,241.023 272.024,269.391 273.826,271.021 302.022,271.021 302.022,241.023 		"/>
	</g>
</g>
<g>
</g>
<g>
</g>
<g>
</g>
<g>
</g>
<g>
</g>
<g>
</g>
<g>
</g>
<g>
</g>
<g>
</g>
<g>
</g>
<g>
</g>
<g>
</g>
<g>
</g>
<g>
</g>
<g>
</g>
</svg>
