<?xml version="1.0" encoding="utf-8"?>
<!-- Generator: Adobe Illustrator 16.0.0, SVG Export Plug-In . SVG Version: 6.00 Build 0)  -->
<!DOCTYPE svg PUBLIC "-//W3C//DTD SVG 1.1//EN" "http://www.w3.org/Graphics/SVG/1.1/DTD/svg11.dtd">
<svg version="1.1" id="Layer_1" xmlns="http://www.w3.org/2000/svg" xmlns:xlink="http://www.w3.org/1999/xlink" x="0px" y="0px"
	 width="1400px" height="980px" viewBox="0 0 1400 980" enable-background="new 0 0 1400 980" xml:space="preserve">
<pattern  width="645" height="644" patternUnits="userSpaceOnUse" id="New_Pattern_Swatch_2" viewBox="0 -644 645 644" overflow="visible">
	<g>
		<polygon fill="none" points="0,0 645,0 645,-644 0,-644 		"/>
		<polygon fill="none" points="88.103,-617.607 87.374,-619.639 86.62,-621.739 87,-619.639 		"/>
		<polygon fill="none" points="575.508,-346.311 575.505,-346.302 575.523,-346.268 		"/>
		<path fill="none" d="M90.214-345H55.033c0.096,0,0.185-0.13,0.278,0h34.624C90.029-345.131,90.119-345,90.214-345z"/>
		<polygon fill="none" points="416.103,-276.607 415.374,-278.639 414.62,-280.739 415,-278.639 		"/>
		<path fill="none" d="M457.311-349h34.624c0.094-0.131,0.184,0,0.279,0h-35.181C457.129-349,457.218-349.13,457.311-349z"/>
		<polygon fill="none" points="220.508,-504.311 220.505,-504.302 220.523,-504.268 		"/>
		<path fill="none" d="M645-644V0H0v-644H645z M519.945-597.097c0,5.084,4.122,9.207,9.206,9.207c5.084,0,9.206-4.122,9.206-9.207
			c0-5.084-4.122-9.206-9.206-9.206C524.067-606.303,519.945-602.181,519.945-597.097z M529.402-357.974l4.022-44.532
			l-41.141,27.079c-6.313-0.975-12.467-1.415-17.667-1.415c-5.149,0-11.236,0.436-17.484,1.391L416.031-402.5l3.996,44.252
			c-0.051,0.08-0.111,0.248-0.161,0.248c-0.001,0-0.002,0-0.004,0c0,0-2.826,3.933-2.491,8.619l0.39,0.381h-0.39l47.932,48.017
			c0.045-0.021,0.092-0.039,0.137-0.059l9.037,9.036l9.582-9.582c0.047,0.018,0.096,0.034,0.144,0.053L531.862-349h-0.393
			l0.393-0.393C532.196-354.079,529.402-357.974,529.402-357.974z M470.188-249.358c-0.018,0.106-0.038,0.206-0.055,0.313
			l0.254-0.065c22.281,27.942,38.948-5.413,41.347-10.631l0.442-0.114c0,0-0.103-0.081-0.29-0.222
			c0.096-0.214,0.147-0.335,0.147-0.335l-0.443,0.114c-4.618-3.415-35.306-24.593-41.348,10.63l-0.252,0.065
			C470.057-249.519,470.122-249.442,470.188-249.358z M520.151-415.891c5.084,0,9.206-4.122,9.206-9.207
			c0-5.084-4.122-9.206-9.206-9.206c-5.084,0-9.206,4.122-9.206,9.206C510.945-420.013,515.067-415.891,520.151-415.891z
			 M448.509-562.655l0.161,0.128L411.011-457H470v39h3h1v-39h58.005l-13.562-37.499l0.002-0.002l-1.415-3.942l-0.011,0.009
			l-12.513-34.598l0.088-0.07l-1.414-3.942l-0.097,0.077l-6.939-19.186l0.139-0.11l-1.415-3.941l-0.147,0.117l-0.094-0.261
			L474-544.035l20.386-16.17L474-617.019l-0.492-2.718l0.976,2.718l-0.976-2.718L473-622.546l-1.477-2.722l-0.015-0.042
			l-0.003,0.009l-0.005-0.009l-1.5,2.765L448.509-562.655z M400.948-612.096c-2.234,5.292-15.609,40.097,20.049,37.692l0.122,0.229
			c0.067-0.084,0.126-0.166,0.192-0.25c0.107-0.008,0.208-0.011,0.316-0.02l-0.123-0.231c21.927-28.224-14.412-36.587-20.049-37.692
			l-0.214-0.402c0,0-0.054,0.119-0.147,0.333c-0.23-0.043-0.36-0.064-0.36-0.064L400.948-612.096z M377.945-373.097
			c0,5.084,4.122,9.207,9.206,9.207c5.084,0,9.206-4.122,9.206-9.207c0-5.084-4.122-9.206-9.206-9.206
			C382.067-382.303,377.945-378.181,377.945-373.097z M308.446-593.276l-0.155,0.21c0.105,0.024,0.204,0.042,0.309,0.065
			c0.053,0.093,0.1,0.183,0.154,0.276l0.155-0.21c34.928,7.564,26.757-28.814,25.316-34.376l0.271-0.368
			c0,0-0.131,0.002-0.365,0.011c-0.061-0.226-0.098-0.353-0.098-0.353l-0.271,0.368
			C328.022-627.379,290.859-624.387,308.446-593.276z M320.319-402.945c1.069-1.504,1.705-3.338,1.705-5.324
			c0-5.084-4.122-9.206-9.206-9.206s-9.206,4.122-9.206,9.206c0,5.084,4.122,9.207,9.206,9.207c2.129,0,4.084-0.73,5.644-1.944
			L333-388.92V-378h3v-10.664l15.071-12.575c1.604,1.355,3.673,2.176,5.937,2.176c5.084,0,9.207-4.122,9.207-9.207
			c0-5.084-4.122-9.206-9.207-9.206c-5.084,0-9.206,4.122-9.206,9.206c0,1.854,0.553,3.577,1.497,5.022L336-392.151v-27.312
			l15.071-12.575c1.603,1.355,3.673,2.175,5.936,2.175c5.084,0,9.207-4.122,9.207-9.206c0-5.084-4.122-9.206-9.207-9.206
			c-5.084,0-9.206,4.122-9.206,9.206c0,1.854,0.553,3.577,1.497,5.022L336-422.95v-27.312l15.071-12.575
			c1.603,1.355,3.673,2.175,5.936,2.175c5.084,0,9.207-4.122,9.207-9.206c0-5.084-4.122-9.206-9.207-9.206
			c-5.084,0-9.206,4.122-9.206,9.206c0,1.854,0.553,3.577,1.497,5.022L336-453.749v-27.312l15.071-12.575
			c1.603,1.355,3.673,2.175,5.936,2.175c5.084,0,9.207-4.122,9.207-9.206c0-5.084-4.122-9.206-9.207-9.206
			c-5.084,0-9.206,4.122-9.206,9.206c0,1.854,0.553,3.577,1.497,5.022L336-484.548v-27.312l14.322-11.95
			c1.678,1.775,4.049,2.89,6.685,2.89c5.084,0,9.207-4.122,9.207-9.206c0-5.084-4.122-9.207-9.207-9.207
			c-5.084,0-9.206,4.122-9.206,9.207c0,1.48,0.358,2.875,0.979,4.114L336-515.347v-25.831c4.243-0.821,7.449-4.551,7.449-9.034
			c0-5.084-4.122-9.206-9.206-9.206s-9.206,4.122-9.206,9.206c0,4.662,3.468,8.504,7.963,9.112v25.501l-12.124-10.079
			c0.729-1.319,1.147-2.834,1.147-4.448c0-5.084-4.122-9.207-9.206-9.207s-9.206,4.122-9.206,9.207c0,5.084,4.122,9.206,9.206,9.206
			c2.505,0,4.773-1.003,6.433-2.626L333-512.115v27.315l-12.681-10.542c1.069-1.504,1.705-3.338,1.705-5.324
			c0-5.084-4.122-9.206-9.206-9.206s-9.206,4.122-9.206,9.206c0,5.084,4.122,9.206,9.206,9.206c2.129,0,4.084-0.73,5.644-1.943
			L333-481.316v27.315l-12.681-10.542c1.069-1.504,1.705-3.338,1.705-5.324c0-5.084-4.122-9.206-9.206-9.206
			s-9.206,4.122-9.206,9.206c0,5.084,4.122,9.206,9.206,9.206c2.129,0,4.084-0.73,5.644-1.943L333-450.518v27.315l-12.681-10.542
			c1.069-1.504,1.705-3.338,1.705-5.324c0-5.084-4.122-9.206-9.206-9.206s-9.206,4.122-9.206,9.206c0,5.084,4.122,9.206,9.206,9.206
			c2.129,0,4.084-0.73,5.644-1.943L333-419.719v27.315L320.319-402.945z M219-336v39h3h1v-39h58.005l-13.562-37.499l0.002-0.002
			l-1.415-3.942l-0.011,0.009l-12.513-34.598l0.088-0.07l-1.414-3.942l-0.097,0.077l-6.939-19.186l0.139-0.11l-1.415-3.941
			l-0.147,0.117l-0.094-0.261L223-423.035l20.386-16.17L223-496.019l-0.492-2.718l0.976,2.718l-0.976-2.718L222-501.546
			l-1.477-2.722l-0.015-0.042l-0.003,0.009l-0.005-0.009l-1.5,2.765l-21.491,59.891l0.161,0.128L160.011-336H219z M176.646-270.429
			c19.972-29.636-16.844-35.531-22.544-36.254l-0.241-0.388c0,0-0.046,0.123-0.125,0.344c-0.232-0.027-0.363-0.04-0.363-0.04
			l0.241,0.388c-1.873,5.432-12.869,41.057,22.544,36.255l0.138,0.222c0.061-0.089,0.115-0.174,0.175-0.263
			c0.106-0.015,0.207-0.025,0.314-0.041L176.646-270.429z M153.151-237.303c-5.084,0-9.206,4.122-9.206,9.206
			c0,5.084,4.122,9.207,9.206,9.207c5.084,0,9.206-4.122,9.206-9.207C162.357-233.181,158.235-237.303,153.151-237.303z
			 M176.151-478.891c5.084,0,9.206-4.122,9.206-9.207c0-5.084-4.122-9.206-9.206-9.206c-5.084,0-9.206,4.122-9.206,9.206
			C166.945-483.013,171.067-478.891,176.151-478.891z M257.945-521.097c0,5.084,4.122,9.207,9.206,9.207
			c5.084,0,9.206-4.122,9.206-9.207c0-5.084-4.122-9.206-9.206-9.206C262.067-530.303,257.945-526.181,257.945-521.097z
			 M182.151-584.859l-3.839,3.839l-0.022-0.006l-34.968,33.979l14.514-2.31l0.331,10.886l19.244-22.046
			c8.55,4.543,18.198,6.27,27.589,5.195v11.788l-5.908,4.64l0.826,1.053L205-541.83v5.83h2v-5.148l4.163,3.305l0.833-1.049
			L207-542.857v-12.734c4.108-0.648,8.146-1.837,12-3.571v14.075l-5.611,4.406l0.827,1.053l4.784-3.755V-538h1v-5.965l5.46,4.334
			l0.833-1.049L220-545.675v-13.951c4.713-2.254,9.134-5.323,13.039-9.228c11.897-11.899,16.119-28.555,12.69-43.842l8.094-7.879
			l-10.967-0.843c-2.295-5.197-5.559-10.069-9.817-14.328l-21.749,21.749c0,0-0.001-0.001-0.001-0.001L182.151-584.859z
			 M133.945-620.097c0,5.084,4.122,9.207,9.206,9.207c5.084,0,9.206-4.122,9.206-9.207c0-5.084-4.122-9.206-9.206-9.206
			C138.067-629.303,133.945-625.181,133.945-620.097z M26.945-603.097c0,5.084,4.122,9.207,9.206,9.207
			c5.084,0,9.206-4.122,9.206-9.207c0-5.084-4.122-9.206-9.206-9.206C31.067-612.303,26.945-608.181,26.945-603.097z M25.885-454H86
			v38h1h3v-38h56.879l-31.345-87.547l0.392-0.311L90-614.112l-1.897-3.495l-0.729-2.032l-0.753-2.1l-0.12-0.665l-0.04,0.219
			l-0.079-0.219l-0.991,2.765l0.991-2.765l0.079,0.219L86-619.639l-27.031,75.333L86-522.867l-27.336-21.439l26.879-75.43
			l-27.159,75.45l-0.025-0.02l-1.415,3.942l0.022,0.018l-5.602,15.562l-0.008-0.007l-0.707,1.971l0.007,0.005L25.885-454z
			 M15.761-345h-0.39l47.932,48.017c0.045-0.021,0.092-0.039,0.137-0.059l9.037,9.036l9.582-9.582
			c0.047,0.018,0.096,0.034,0.144,0.053L129.862-345h-0.393l0.393-0.393c0.334-4.687-2.46-8.581-2.46-8.581l4.022-44.532
			l-41.141,27.079c-6.313-0.975-12.467-1.415-17.667-1.415c-5.149,0-11.236,0.436-17.484,1.391L14.031-398.5l3.996,44.252
			c-0.051,0.08-0.111,0.248-0.161,0.248c-0.001,0-0.002,0-0.004,0c0,0-2.826,3.933-2.491,8.619L15.761-345z M78-113.508v6.99
			c0,4.96-3.442,8.518-8.55,8.518H58v-69h11.45c6.526,0,11.55-5.549,11.55-12.057v-6.842c30.942-14.67,3-38.623-1-42.209v-0.458
			c0,0-0.316,0.08-0.5,0.226c-0.184-0.146-0.5-0.226-0.5-0.226v0.458c-4,3.574-31.451,27.378-1,42.061v6.99
			c0,5.007-3.525,9.057-8.55,9.057H58v-32h2v-3h-2h-2h-8.75c-5.138,0-9.25-3.665-9.25-8.599v-6.66c31.565-14.654,4-38.793-1-42.392
			v-0.457c0,0,0.183,0.08,0,0.226c-0.183-0.146,0-0.226,0-0.226v0.457c-5,3.595-32.412,27.688-1,42.347v6.704
			C36-207.138,40.585-202,47.25-202H56v67H45.522c-4.916,0-8.522-4.268-8.522-9.514v-7.004c30.405-14.684,3-38.474-1-42.046v-0.458
			c0,0-0.316,0.08-0.5,0.226c-0.184-0.146-0.5-0.226-0.5-0.226v0.458c-4,3.587-31.986,27.552-1,42.221v6.829
			C34-137.852,39.185-133,45.522-133H56v67H45.522C40.768-66,37-70.054,37-75.43v-7.003c30.405-14.684,3-38.475-1-42.047v-0.458
			c0,0-0.316,0.08-0.5,0.226c-0.184-0.146-0.5-0.226-0.5-0.226v0.458c-4,3.587-31.986,27.553-1,42.222v6.828
			C34-68.576,39.291-63,45.522-63H56v59h2v-22h11.45C75.867-26,81-30.857,81-37.434v-6.841c30.942-14.669,3-38.622-1-42.208v-0.458
			c0,0-0.316,0.08-0.5,0.226C79.316-86.86,79-86.94,79-86.94v0.458c-4,3.574-31.451,27.378-1,42.06v6.989
			C78-32.333,74.391-28,69.45-28H58v-67h11.45C76.085-95,81-100.031,81-106.518v-6.842c30.942-14.669,3-38.622-1-42.208v-0.458
			c0,0-0.316,0.08-0.5,0.226c-0.184-0.146-0.5-0.226-0.5-0.226v0.458C75-151.994,47.549-128.189,78-113.508z M134.151-172.891
			c5.084,0,9.206-4.122,9.206-9.207c0-5.084-4.122-9.205-9.206-9.205c-5.084,0-9.206,4.121-9.206,9.205
			C124.945-177.013,129.067-172.891,134.151-172.891z M152.357-43.098c0-5.084-4.122-9.205-9.206-9.205
			c-5.084,0-9.206,4.121-9.206,9.205c0,5.085,4.122,9.207,9.206,9.207C148.235-33.891,152.357-38.013,152.357-43.098z M209-52v-34
			h57.885l-60.498-168.599l-0.232,0.646l-0.147-0.408L205-251.596v0.865L145.891-86H206v34H209z M306.886-205.077
			c0.096-0.214,0.147-0.335,0.147-0.335l-0.443,0.114c-4.618-3.415-35.306-24.593-41.348,10.63l-0.252,0.064
			c0.066,0.085,0.132,0.162,0.198,0.246c-0.018,0.105-0.038,0.205-0.055,0.313l0.254-0.065
			c22.281,27.942,38.948-5.413,41.347-10.631l0.442-0.114C307.176-204.855,307.073-204.937,306.886-205.077z M301.734-49.742
			l0.442-0.113c0,0-0.103-0.081-0.29-0.222c0.096-0.214,0.147-0.335,0.147-0.335l-0.443,0.114
			c-4.618-3.415-35.306-24.594-41.348,10.63l-0.252,0.064c0.066,0.085,0.132,0.162,0.198,0.246
			c-0.018,0.105-0.038,0.205-0.055,0.313l0.254-0.065C282.668-11.168,299.335-44.523,301.734-49.742z M322.357-132.098
			c0-5.084-4.122-9.205-9.206-9.205c-5.084,0-9.206,4.121-9.206,9.205c0,5.085,4.122,9.207,9.206,9.207
			C318.235-122.891,322.357-127.013,322.357-132.098z M339.357-28.098c0-5.084-4.122-9.205-9.206-9.205
			c-5.084,0-9.206,4.121-9.206,9.205c0,5.085,4.122,9.207,9.206,9.207C335.235-18.891,339.357-23.013,339.357-28.098z
			 M343.039-275.854c11.897-11.899,16.119-28.555,12.69-43.842l8.094-7.879l-10.967-0.843c-2.295-5.197-5.559-10.069-9.817-14.328
			l-21.749,21.749c0,0-0.001-0.001-0.001-0.001l-29.138,29.139l-3.839,3.839l-0.022-0.006l-34.968,33.979l14.514-2.31l0.331,10.886
			l19.244-22.046c8.55,4.543,18.198,6.27,27.589,5.195v11.788l-5.908,4.64l0.826,1.053L315-248.83v5.83h2v-5.148l4.163,3.305
			l0.833-1.049L317-249.857v-12.734c4.108-0.648,8.146-1.837,12-3.571v14.075l-5.611,4.406l0.827,1.053l4.784-3.755V-245h1v-5.965
			l5.46,4.334l0.833-1.049L330-252.675v-13.951C334.713-268.88,339.134-271.949,343.039-275.854z M387.357-65.098
			c0-5.084-4.122-9.205-9.206-9.205c-5.084,0-9.206,4.121-9.206,9.205c0,5.085,4.122,9.207,9.206,9.207
			C383.235-55.891,387.357-60.013,387.357-65.098z M418-113h56.879l-31.345-87.547l0.392-0.311L418-273.112l-1.897-3.495
			l-0.729-2.032l-0.753-2.1l-0.12-0.665l-0.04,0.219l-0.079-0.219l-0.991,2.765l0.991-2.765l0.079,0.219l-0.46,2.545l-27.031,75.333
			L414-181.867l-27.336-21.439l26.879-75.43l-27.159,75.45l-0.025-0.02l-1.415,3.942l0.022,0.018l-5.602,15.562l-0.008-0.007
			l-0.707,1.971l0.007,0.005L353.885-113H414v38h1h3V-113z M437.357-20.098c0-5.084-4.122-9.205-9.206-9.205
			c-5.084,0-9.206,4.121-9.206,9.205c0,5.085,4.122,9.207,9.206,9.207C433.235-10.891,437.357-15.013,437.357-20.098z
			 M469.357-81.098c0-5.084-4.122-9.205-9.206-9.205c-5.084,0-9.206,4.121-9.206,9.205c0,5.085,4.122,9.207,9.206,9.207
			C465.235-71.891,469.357-76.013,469.357-81.098z M573.729-96.695l8.094-7.88l-10.967-0.843
			c-2.295-5.197-5.559-10.069-9.817-14.328L539.29-97.997c0-0.001-0.001-0.001-0.001-0.001L506.312-65.02l-0.021-0.006
			l-34.968,33.979l14.514-2.311l0.331,10.887l19.243-22.046c8.55,4.543,18.199,6.27,27.589,5.195v11.788l-5.908,4.639l0.826,1.053
			L533-25.83V-20h2v-5.147l4.163,3.304l0.833-1.049L535-26.857v-12.734c4.108-0.647,8.146-1.837,12-3.57v14.075l-5.611,4.405
			l0.827,1.053L547-27.385V-22h1v-5.966l5.46,4.335l0.833-1.049L548-29.675v-13.951c4.713-2.254,9.134-5.323,13.039-9.228
			C572.936-64.753,577.157-81.409,573.729-96.695z M540.151-129.891c5.084,0,9.206-4.122,9.206-9.207
			c0-5.084-4.122-9.205-9.206-9.205c-5.084,0-9.206,4.121-9.206,9.205C530.945-134.013,535.067-129.891,540.151-129.891z
			 M621.357-60.098c0-5.084-4.122-9.205-9.206-9.205c-5.084,0-9.206,4.121-9.206,9.205c0,5.085,4.122,9.207,9.206,9.207
			C617.235-50.891,621.357-55.013,621.357-60.098z M623.357-127.098c0-5.084-4.122-9.205-9.206-9.205
			c-5.084,0-9.206,4.121-9.206,9.205c0,5.085,4.122,9.207,9.206,9.207C619.235-117.891,623.357-122.013,623.357-127.098z
			 M636.005-178l-13.562-37.499l0.002-0.002l-1.415-3.942l-0.011,0.009l-12.513-34.598l0.088-0.07l-1.414-3.942l-0.097,0.077
			l-6.939-19.186l0.139-0.11l-1.415-3.941l-0.147,0.117l-0.094-0.261L578-265.035l20.386-16.17L578-338.019l-0.492-2.718
			l0.976,2.718l-0.976-2.718L577-343.546l-1.477-2.722l-0.015-0.042l-0.003,0.009l-0.005-0.009l-1.5,2.765l-21.491,59.891
			l0.161,0.128L515.011-178H574v39h3h1v-39H636.005z M621.151-331.891c5.084,0,9.206-4.122,9.206-9.207
			c0-5.084-4.122-9.205-9.206-9.205c-5.084,0-9.206,4.121-9.206,9.205C611.945-336.013,616.067-331.891,621.151-331.891z
			 M620-482.507v6.99c0,4.96-3.442,8.518-8.55,8.518H600v-69h11.45c6.526,0,11.55-5.549,11.55-12.057v-6.841
			c30.942-14.67,3-38.624-1-42.209v-0.458c0,0-0.316,0.08-0.5,0.226c-0.184-0.146-0.5-0.226-0.5-0.226v0.458
			c-4,3.574-31.451,27.378-1,42.061v6.99c0,5.007-3.525,9.057-8.55,9.057H600v-32h2v-3h-2h-2h-8.75c-5.138,0-9.25-3.665-9.25-8.599
			v-6.66c31.565-14.654,4-38.793-1-42.392v-0.457c0,0,0.183,0.08,0,0.226c-0.183-0.146,0-0.226,0-0.226v0.457
			c-5,3.595-32.412,27.688-1,42.347v6.704c0,6.461,4.585,11.599,11.25,11.599H598v67h-10.478c-4.916,0-8.522-4.268-8.522-9.514
			v-7.004c30.405-14.684,3-38.474-1-42.046v-0.458c0,0-0.316,0.08-0.5,0.226c-0.184-0.146-0.5-0.226-0.5-0.226v0.458
			c-4,3.587-31.986,27.552-1,42.221v6.829c0,6.662,5.185,11.514,11.522,11.514H598v67h-10.478c-4.754,0-8.522-4.054-8.522-9.43
			v-7.003c30.405-14.684,3-38.474-1-42.047v-0.458c0,0-0.316,0.08-0.5,0.226c-0.184-0.146-0.5-0.226-0.5-0.226v0.458
			c-4,3.587-31.986,27.553-1,42.222v6.828c0,6.854,5.291,12.43,11.522,12.43H598v59h2v-22h11.45c6.417,0,11.55-4.857,11.55-11.434
			v-6.84c30.942-14.669,3-38.623-1-42.209v-0.458c0,0-0.316,0.08-0.5,0.226c-0.184-0.146-0.5-0.226-0.5-0.226v0.458
			c-4,3.574-31.451,27.378-1,42.061v6.989c0,5.101-3.609,9.434-8.55,9.434H600v-67h11.45c6.635,0,11.55-5.031,11.55-11.518v-6.841
			c30.942-14.669,3-38.623-1-42.209v-0.458c0,0-0.316,0.08-0.5,0.226c-0.184-0.146-0.5-0.226-0.5-0.226v0.458
			C617-520.994,589.549-497.189,620-482.507z"/>
		<polygon fill="none" points="471.508,-625.311 471.505,-625.302 471.523,-625.268 		"/>
		<polygon fill="#BDCFB8" points="174.45,-375.948 175.864,-379.892 219,-345.678 219,-390.202 188.3,-414.551 189.715,-418.494 
			219,-395.266 219,-419.955 196.611,-437.711 197.911,-441.336 197.67,-441.527 160.011,-336 219,-336 219,-340.614 		"/>
		<polygon fill="#BDCFB8" points="223,-343.312 266.02,-377.435 253.507,-412.033 223,-387.836 		"/>
		<polygon fill="#BDCFB8" points="243.722,-439.088 243.627,-439.349 223,-423.035 223,-422.652 		"/>
		<polygon fill="#BDCFB8" points="223,-336 281.005,-336 267.443,-373.499 223,-338.248 		"/>
		<polygon fill="#BDCFB8" points="223,-392.899 252.084,-415.968 245.145,-435.153 223,-417.589 		"/>
		<polygon fill="#8C8D9B" points="222,-297 223,-297 223,-336 222,-336 		"/>
		<polygon fill="#8C8D9B" points="222,-297 222,-336 219,-336 219,-297 		"/>
		<polygon fill="#8C8D9B" points="222,-387.823 219,-390.202 219,-345.678 222,-343.298 		"/>
		<polygon fill="#8C8D9B" points="222,-338.235 219,-340.614 219,-336 222,-336 		"/>
		<polygon fill="#8C8D9B" points="222,-423.035 220.524,-423.809 222,-422.639 		"/>
		<polygon fill="#8C8D9B" points="222,-417.576 219,-419.955 219,-395.266 222,-392.886 		"/>
		<polygon fill="#8C8D9B" points="222.492,-342.908 223,-343.312 223,-387.836 222.492,-387.433 222,-387.823 222,-343.298 		"/>
		<polygon fill="#8C8D9B" points="222.492,-422.249 222.497,-422.253 222,-423.035 222,-422.639 		"/>
		<polygon fill="#8C8D9B" points="222.492,-392.496 223,-392.899 223,-417.589 222.492,-417.186 222,-417.576 222,-392.886 		"/>
		<polygon fill="#8C8D9B" points="222.492,-337.845 222,-338.235 222,-336 223,-336 223,-338.248 		"/>
		<polygon fill="#8C8D9B" points="223,-422.652 223,-423.035 222.508,-422.262 		"/>
		<polygon fill="#BDCFB8" points="243.386,-439.205 223,-496.019 223,-423.035 		"/>
		<polygon fill="#BDCFB8" points="198.025,-441.655 219,-425.018 219,-501.546 197.509,-441.655 197.67,-441.527 197.911,-441.336 
					"/>
		
			<line fill="none" stroke="#8C8D9B" stroke-width="0" stroke-linecap="round" stroke-linejoin="round" x1="220.508" y1="-504.311" x2="220.523" y2="-504.268"/>
		
			<line fill="none" stroke="#8C8D9B" stroke-width="0" stroke-linecap="round" stroke-linejoin="round" x1="223.484" y1="-496.019" x2="222.508" y2="-498.737"/>
		
			<line fill="none" stroke="#8C8D9B" stroke-width="0" stroke-linecap="round" stroke-linejoin="round" x1="220.508" y1="-504.311" x2="220.505" y2="-504.302"/>
		<polygon fill="#8C8D9B" points="222,-423.035 222.497,-422.253 222.508,-422.262 223,-423.035 223,-496.019 222.508,-498.737 
			222,-501.546 		"/>
		<polygon fill="#8C8D9B" points="220.524,-423.809 222,-423.035 222,-501.546 220.523,-504.268 220.505,-504.302 220.5,-504.311 
			219,-501.546 219,-425.018 		"/>
		<polygon fill="#8C8D9B" points="222.492,-342.908 222,-343.298 219,-345.678 175.864,-379.892 174.45,-375.948 219,-340.614 
			222,-338.235 222.492,-337.845 223,-338.248 267.443,-373.499 267.446,-373.501 266.031,-377.443 266.02,-377.435 223,-343.312 		
			"/>
		<polygon fill="#8C8D9B" points="222.508,-422.262 222.497,-422.253 222.492,-422.249 222,-422.639 220.524,-423.809 219,-425.018 
			198.025,-441.655 197.911,-441.336 196.611,-437.711 219,-419.955 222,-417.576 222.492,-417.186 223,-417.589 245.145,-435.153 
			245.284,-435.264 243.869,-439.205 243.722,-439.088 223,-422.652 		"/>
		<polygon fill="#8C8D9B" points="222.492,-392.496 222,-392.886 219,-395.266 189.715,-418.494 188.3,-414.551 219,-390.202 
			222,-387.823 222.492,-387.433 223,-387.836 253.507,-412.033 253.595,-412.103 252.181,-416.044 252.084,-415.968 223,-392.899 
					"/>
		<polygon fill="#BDCFB8" points="529.45,-217.948 530.864,-221.892 574,-187.678 574,-232.202 543.3,-256.551 544.715,-260.494 
			574,-237.266 574,-261.955 551.611,-279.711 552.911,-283.336 552.67,-283.527 515.011,-178 574,-178 574,-182.614 		"/>
		<polygon fill="#BDCFB8" points="578,-234.899 607.084,-257.968 600.145,-277.153 578,-259.589 		"/>
		<polygon fill="#BDCFB8" points="578,-185.312 621.02,-219.435 608.507,-254.033 578,-229.836 		"/>
		<polygon fill="#BDCFB8" points="598.722,-281.088 598.627,-281.349 578,-265.035 578,-264.652 		"/>
		<polygon fill="#BDCFB8" points="578,-180.248 578,-178 636.005,-178 622.443,-215.499 		"/>
		<polygon fill="#8C8D9B" points="577,-139 578,-139 578,-178 577,-178 		"/>
		<polygon fill="#8C8D9B" points="574,-178 574,-139 577,-139 577,-178 		"/>
		<polygon fill="#8C8D9B" points="577,-265.035 575.524,-265.809 577,-264.639 		"/>
		<polygon fill="#8C8D9B" points="577,-259.576 574,-261.955 574,-237.266 577,-234.886 		"/>
		<polygon fill="#8C8D9B" points="577,-180.234 574,-182.614 574,-178 577,-178 		"/>
		<polygon fill="#8C8D9B" points="577,-229.823 574,-232.202 574,-187.678 577,-185.298 		"/>
		<polygon fill="#8C8D9B" points="577.492,-179.845 577,-180.234 577,-178 578,-178 578,-180.248 		"/>
		<polygon fill="#8C8D9B" points="578,-264.652 578,-265.035 577.508,-264.262 		"/>
		<polygon fill="#8C8D9B" points="577.492,-264.249 577.497,-264.253 577,-265.035 577,-264.639 		"/>
		<polygon fill="#8C8D9B" points="577.492,-234.496 578,-234.899 578,-259.589 577.492,-259.186 577,-259.576 577,-234.886 		"/>
		<polygon fill="#8C8D9B" points="577.492,-184.908 578,-185.312 578,-229.836 577.492,-229.433 577,-229.823 577,-185.298 		"/>
		<polygon fill="#BDCFB8" points="598.386,-281.205 578,-338.019 578,-265.035 		"/>
		<polygon fill="#BDCFB8" points="553.025,-283.655 574,-267.018 574,-343.546 552.509,-283.655 552.67,-283.527 552.911,-283.336 
					"/>
		
			<line fill="none" stroke="#8C8D9B" stroke-width="0" stroke-linecap="round" stroke-linejoin="round" x1="575.508" y1="-346.311" x2="575.523" y2="-346.268"/>
		
			<line fill="none" stroke="#8C8D9B" stroke-width="0" stroke-linecap="round" stroke-linejoin="round" x1="578.484" y1="-338.019" x2="577.508" y2="-340.737"/>
		
			<line fill="none" stroke="#8C8D9B" stroke-width="0" stroke-linecap="round" stroke-linejoin="round" x1="575.508" y1="-346.311" x2="575.505" y2="-346.302"/>
		<polygon fill="#8C8D9B" points="577,-265.035 577.497,-264.253 577.508,-264.262 578,-265.035 578,-338.019 577.508,-340.737 
			577,-343.546 		"/>
		<polygon fill="#8C8D9B" points="575.524,-265.809 577,-265.035 577,-343.546 575.523,-346.268 575.505,-346.302 575.5,-346.311 
			574,-343.546 574,-267.018 		"/>
		<polygon fill="#8C8D9B" points="577.492,-184.908 577,-185.298 574,-187.678 530.864,-221.892 529.45,-217.948 574,-182.614 
			577,-180.234 577.492,-179.845 578,-180.248 622.443,-215.499 622.446,-215.501 621.031,-219.443 621.02,-219.435 578,-185.312 		
			"/>
		<polygon fill="#8C8D9B" points="577.508,-264.262 577.497,-264.253 577.492,-264.249 577,-264.639 575.524,-265.809 574,-267.018 
			553.025,-283.655 552.911,-283.336 551.611,-279.711 574,-261.955 577,-259.576 577.492,-259.186 578,-259.589 600.145,-277.153 
			600.284,-277.264 598.869,-281.205 598.722,-281.088 578,-264.652 		"/>
		<polygon fill="#8C8D9B" points="577.492,-234.496 577,-234.886 574,-237.266 544.715,-260.494 543.3,-256.551 574,-232.202 
			577,-229.823 577.492,-229.433 578,-229.836 608.507,-254.033 608.595,-254.103 607.181,-258.044 607.084,-257.968 578,-234.899 
					"/>
		<polygon fill="#BDCFB8" points="425.45,-496.948 426.864,-500.892 470,-466.678 470,-511.202 439.3,-535.551 440.715,-539.494 
			470,-516.266 470,-540.955 447.611,-558.711 448.911,-562.336 448.67,-562.527 411.011,-457 470,-457 470,-461.614 		"/>
		<polygon fill="#BDCFB8" points="474,-457 532.005,-457 518.443,-494.499 474,-459.248 		"/>
		<polygon fill="#BDCFB8" points="494.722,-560.088 494.627,-560.349 474,-544.035 474,-543.652 		"/>
		<polygon fill="#BDCFB8" points="474,-464.312 517.02,-498.435 504.507,-533.033 474,-508.836 		"/>
		<polygon fill="#BDCFB8" points="474,-513.899 503.084,-536.968 496.145,-556.153 474,-538.589 		"/>
		<polygon fill="#8C8D9B" points="473,-418 474,-418 474,-457 473,-457 		"/>
		<polygon fill="#8C8D9B" points="470,-457 470,-418 473,-418 473,-457 		"/>
		<polygon fill="#8C8D9B" points="473,-464.298 473,-508.823 470,-511.202 470,-466.678 		"/>
		<polygon fill="#8C8D9B" points="473,-513.886 473,-538.576 470,-540.955 470,-516.266 		"/>
		<polygon fill="#8C8D9B" points="473,-544.035 471.524,-544.809 473,-543.639 		"/>
		<polygon fill="#8C8D9B" points="473,-459.235 470,-461.614 470,-457 473,-457 		"/>
		<polygon fill="#8C8D9B" points="473.492,-458.845 473,-459.235 473,-457 474,-457 474,-459.248 		"/>
		<polygon fill="#8C8D9B" points="474,-543.652 474,-544.035 473.508,-543.262 		"/>
		<polygon fill="#8C8D9B" points="473.492,-513.496 474,-513.899 474,-538.589 473.492,-538.186 473,-538.576 473,-513.886 		"/>
		<polygon fill="#8C8D9B" points="473.492,-463.908 474,-464.312 474,-508.836 473.492,-508.433 473,-508.823 473,-464.298 		"/>
		<polygon fill="#8C8D9B" points="473.492,-543.249 473.497,-543.253 473,-544.035 473,-543.639 		"/>
		<polygon fill="#BDCFB8" points="494.386,-560.205 474,-617.019 474,-544.035 		"/>
		<polygon fill="#BDCFB8" points="448.911,-562.336 449.025,-562.655 470,-546.018 470,-622.546 448.509,-562.655 448.67,-562.527 
					"/>
		
			<line fill="none" stroke="#8C8D9B" stroke-width="0" stroke-linecap="round" stroke-linejoin="round" x1="471.523" y1="-625.268" x2="471.508" y2="-625.311"/>
		
			<line fill="none" stroke="#8C8D9B" stroke-width="0" stroke-linecap="round" stroke-linejoin="round" x1="474.484" y1="-617.019" x2="473.508" y2="-619.737"/>
		
			<line fill="none" stroke="#8C8D9B" stroke-width="0" stroke-linecap="round" stroke-linejoin="round" x1="471.505" y1="-625.302" x2="471.508" y2="-625.311"/>
		<polygon fill="#8C8D9B" points="473,-544.035 473.497,-543.253 473.508,-543.262 474,-544.035 474,-617.019 473.508,-619.737 
			473,-622.546 		"/>
		<polygon fill="#8C8D9B" points="471.524,-544.809 473,-544.035 473,-622.546 471.523,-625.268 471.505,-625.302 471.5,-625.311 
			470,-622.546 470,-546.018 		"/>
		<polygon fill="#8C8D9B" points="473.492,-463.908 473,-464.298 470,-466.678 426.864,-500.892 425.45,-496.948 470,-461.614 
			473,-459.235 473.492,-458.845 474,-459.248 518.443,-494.499 518.446,-494.501 517.031,-498.443 517.02,-498.435 474,-464.312 		
			"/>
		<polygon fill="#8C8D9B" points="473.508,-543.262 473.497,-543.253 473.492,-543.249 473,-543.639 471.524,-544.809 470,-546.018 
			449.025,-562.655 448.911,-562.336 447.611,-558.711 470,-540.955 473,-538.576 473.492,-538.186 474,-538.589 496.145,-556.153 
			496.284,-556.264 494.869,-560.205 494.722,-560.088 474,-543.652 		"/>
		<polygon fill="#8C8D9B" points="473.492,-513.496 473,-513.886 470,-516.266 440.715,-539.494 439.3,-535.551 470,-511.202 
			473,-508.823 473.492,-508.433 474,-508.836 504.507,-533.033 504.595,-533.103 503.181,-537.044 503.084,-536.968 474,-513.899 
					"/>
		<polygon fill="#C3B9AE" points="86,-463.765 41.985,-498.674 43.4,-502.618 86,-468.828 86,-494.783 50.656,-522.816 25.885,-454 
			86,-454 		"/>
		<polygon fill="#C3B9AE" points="86,-522.867 58.664,-544.307 85.543,-619.737 58.385,-544.287 86,-522.383 		"/>
		<polygon fill="#C3B9AE" points="86,-517.32 56.967,-540.347 51.365,-524.785 86,-497.315 		"/>
		<polygon fill="#C3B9AE" points="116.698,-537.916 90,-516.74 90,-496.735 122.286,-522.343 122.993,-520.373 90,-494.203 
			90,-468.248 130.243,-500.169 131.657,-496.226 90,-463.185 90,-454 146.879,-454 115.534,-541.547 115.426,-541.461 		"/>
		<polygon fill="#5A4C5C" points="86,-454 86,-416 87,-416 87,-454 		"/>
		<polygon fill="#5A4C5C" points="87,-416 90,-416 90,-454 87,-454 		"/>
		
			<line fill="none" stroke="#8C8D9B" stroke-width="0" stroke-linecap="round" stroke-linejoin="round" x1="86.62" y1="-621.739" x2="87.374" y2="-619.639"/>
		
			<line fill="none" stroke="#8C8D9B" stroke-width="0" stroke-linecap="round" stroke-linejoin="round" x1="86.46" y1="-622.185" x2="86.382" y2="-622.404"/>
		<polygon fill="#5A4C5C" points="88.366,-520.507 88.419,-520.549 88.104,-520.714 		"/>
		<polygon fill="#5A4C5C" points="88.366,-461.888 87,-462.971 87,-454 90,-454 90,-463.185 		"/>
		<polygon fill="#5A4C5C" points="88.366,-466.951 90,-468.248 90,-494.203 88.366,-492.907 87,-493.99 87,-468.034 		"/>
		<polygon fill="#5A4C5C" points="88.366,-515.443 87,-516.526 87,-496.521 88.366,-495.438 90,-496.735 90,-516.74 		"/>
		<polygon fill="#5A4C5C" points="86,-517.32 86,-497.315 87,-496.521 87,-516.526 		"/>
		<polygon fill="#5A4C5C" points="87,-462.971 86,-463.765 86,-454 87,-454 		"/>
		<polygon fill="#5A4C5C" points="86.619,-521.892 86,-522.867 86,-522.383 		"/>
		<polygon fill="#5A4C5C" points="87,-493.99 86,-494.783 86,-468.828 87,-468.034 		"/>
		
			<line fill="none" stroke="#8C8D9B" stroke-width="0" stroke-linecap="round" stroke-linejoin="round" x1="88.103" y1="-617.607" x2="87.374" y2="-619.639"/>
		
			<line fill="none" stroke="#8C8D9B" stroke-width="0" stroke-linecap="round" stroke-linejoin="round" x1="85.391" y1="-619.639" x2="86.382" y2="-622.404"/>
		<polygon fill="#C3B9AE" points="58.969,-544.307 86,-522.867 86,-619.639 		"/>
		<polygon fill="#C3B9AE" points="90,-521.803 115.283,-541.858 115.426,-541.461 115.534,-541.547 115.926,-541.858 90,-614.112 		
			"/>
		<polygon fill="#5A4C5C" points="87,-521.59 88.104,-520.714 88.419,-520.549 90,-521.803 90,-614.112 88.103,-617.607 
			87,-619.639 		"/>
		<polygon fill="#5A4C5C" points="87,-521.59 87,-619.639 86.62,-621.739 86.5,-622.404 86.46,-622.185 86,-619.639 86,-522.867 
			86.619,-521.892 		"/>
		<polygon fill="#5A4C5C" points="88.366,-461.888 90,-463.185 131.657,-496.226 130.243,-500.169 90,-468.248 88.366,-466.951 
			87,-468.034 86,-468.828 43.4,-502.618 41.985,-498.674 86,-463.765 87,-462.971 		"/>
		<polygon fill="#5A4C5C" points="87,-516.526 88.366,-515.443 90,-516.74 116.698,-537.916 115.426,-541.461 115.283,-541.858 
			90,-521.803 88.419,-520.549 88.366,-520.507 88.104,-520.714 87,-521.59 86.619,-521.892 86,-522.383 58.385,-544.287 
			58.359,-544.307 56.944,-540.365 56.967,-540.347 86,-517.32 		"/>
		<polygon fill="#5A4C5C" points="87,-493.99 88.366,-492.907 90,-494.203 122.993,-520.373 122.286,-522.343 90,-496.735 
			88.366,-495.438 87,-496.521 86,-497.315 51.365,-524.785 51.356,-524.792 50.649,-522.821 50.656,-522.816 86,-494.783 		"/>
		<polygon fill="#C3B9AE" points="369.985,-157.674 371.4,-161.617 414,-127.828 414,-153.782 378.656,-181.816 353.885,-113 
			414,-113 414,-122.765 		"/>
		<polygon fill="#C3B9AE" points="414,-181.867 386.664,-203.307 413.543,-278.737 386.385,-203.287 414,-181.383 		"/>
		<polygon fill="#C3B9AE" points="414,-176.319 384.967,-199.347 379.365,-183.785 414,-156.314 		"/>
		<polygon fill="#C3B9AE" points="443.534,-200.547 443.426,-200.461 444.698,-196.916 418,-175.739 418,-155.734 450.286,-181.343 
			450.993,-179.373 418,-153.202 418,-127.247 458.243,-159.169 459.657,-155.227 418,-122.185 418,-113 474.879,-113 		"/>
		<polygon fill="#5A4C5C" points="414,-113 414,-75 415,-75 415,-113 		"/>
		<polygon fill="#5A4C5C" points="415,-75 418,-75 418,-113 415,-113 		"/>
		
			<line fill="none" stroke="#8C8D9B" stroke-width="0" stroke-linecap="round" stroke-linejoin="round" x1="415.374" y1="-278.639" x2="414.62" y2="-280.739"/>
		
			<line fill="none" stroke="#8C8D9B" stroke-width="0" stroke-linecap="round" stroke-linejoin="round" x1="414.46" y1="-281.185" x2="414.382" y2="-281.404"/>
		<polygon fill="#5A4C5C" points="415,-175.526 415,-155.521 416.366,-154.438 418,-155.734 418,-175.739 416.366,-174.443 		"/>
		<polygon fill="#5A4C5C" points="416.366,-120.889 415,-121.972 415,-113 418,-113 418,-122.185 		"/>
		<polygon fill="#5A4C5C" points="416.366,-179.507 416.419,-179.549 416.104,-179.714 		"/>
		<polygon fill="#5A4C5C" points="415,-152.989 415,-127.034 416.366,-125.951 418,-127.247 418,-153.202 416.366,-151.906 		"/>
		<polygon fill="#5A4C5C" points="415,-152.989 414,-153.782 414,-127.828 415,-127.034 		"/>
		<polygon fill="#5A4C5C" points="415,-121.972 414,-122.765 414,-113 415,-113 		"/>
		<polygon fill="#5A4C5C" points="414,-176.319 414,-156.314 415,-155.521 415,-175.526 		"/>
		<polygon fill="#5A4C5C" points="414.62,-180.892 414,-181.867 414,-181.383 		"/>
		
			<line fill="none" stroke="#8C8D9B" stroke-width="0" stroke-linecap="round" stroke-linejoin="round" x1="415.374" y1="-278.639" x2="416.103" y2="-276.607"/>
		
			<line fill="none" stroke="#8C8D9B" stroke-width="0" stroke-linecap="round" stroke-linejoin="round" x1="413.391" y1="-278.639" x2="414.382" y2="-281.404"/>
		<polygon fill="#C3B9AE" points="386.969,-203.307 414,-181.867 414,-278.639 		"/>
		<polygon fill="#C3B9AE" points="418,-180.803 443.283,-200.858 443.426,-200.461 443.534,-200.547 443.926,-200.858 418,-273.112 
					"/>
		<polygon fill="#5A4C5C" points="415,-180.59 416.104,-179.714 416.419,-179.549 418,-180.803 418,-273.112 416.103,-276.607 
			415,-278.639 		"/>
		<polygon fill="#5A4C5C" points="415,-180.59 415,-278.639 414.62,-280.739 414.5,-281.404 414.46,-281.185 414,-278.639 
			414,-181.867 414.62,-180.892 		"/>
		<polygon fill="#5A4C5C" points="415,-127.034 414,-127.828 371.4,-161.617 369.985,-157.674 414,-122.765 415,-121.972 
			416.366,-120.889 418,-122.185 459.657,-155.227 458.243,-159.169 418,-127.247 416.366,-125.951 		"/>
		<polygon fill="#5A4C5C" points="415,-175.526 416.366,-174.443 418,-175.739 444.698,-196.916 443.426,-200.461 443.283,-200.858 
			418,-180.803 416.419,-179.549 416.366,-179.507 416.104,-179.714 415,-180.59 414.62,-180.892 414,-181.383 386.385,-203.287 
			386.359,-203.307 384.944,-199.365 384.967,-199.347 414,-176.319 		"/>
		<polygon fill="#5A4C5C" points="415,-152.989 416.366,-151.906 418,-153.202 450.993,-179.373 450.286,-181.343 418,-155.734 
			416.366,-154.438 415,-155.521 414,-156.314 379.365,-183.785 379.356,-183.792 378.649,-181.821 378.656,-181.816 414,-153.782 
					"/>
		<polygon fill="#C3B9AE" points="205.396,-98.188 162.545,-132.175 163.959,-136.117 205,-103.566 205,-111.355 207.991,-108.995 
			208.183,-109.145 205.396,-111.355 166.223,-142.425 166.93,-144.395 205,-114.201 205,-157.693 207.991,-155.334 
			208.183,-155.483 205.396,-157.693 179.167,-178.497 180.581,-182.439 205,-163.071 205,-250.731 145.891,-86 206,-86 
			206,-97.709 		"/>
		<polygon fill="#C3B9AE" points="209,-161.184 208.183,-160.546 208.371,-160.396 209.363,-161.184 233.073,-179.99 
			234.488,-176.048 209.363,-156.12 209,-155.832 209,-112.313 208.183,-111.677 208.371,-111.527 209.363,-112.313 
			246.725,-141.947 247.431,-139.977 209.363,-109.781 209,-109.494 209,-106 209,-101.678 209,-101.39 209.363,-101.678 
			249.695,-133.669 251.109,-129.727 209.363,-96.615 209,-96.327 209,-86 266.885,-86 206.388,-254.599 206.156,-253.952 
			209,-246.068 		"/>
		<polygon fill="#8C8D9B" points="205.396,-162.757 208.183,-160.546 209,-161.184 209,-246.068 206.156,-253.952 206.009,-254.36 
			205,-251.596 205,-250.731 205,-163.071 		"/>
		<polygon fill="#8C8D9B" points="208.371,-108.995 208.183,-109.145 207.991,-108.995 205,-111.355 205,-103.566 205.396,-103.252 
			206,-102.772 206,-106 209,-106 209,-109.494 		"/>
		<polygon fill="#8C8D9B" points="208.183,-111.677 209,-112.313 209,-155.832 208.371,-155.334 208.183,-155.483 207.991,-155.334 
			205,-157.693 205,-114.201 205.396,-113.887 		"/>
		<polygon fill="#8C8D9B" points="251.109,-129.727 249.695,-133.669 209.363,-101.678 209,-101.39 209,-96.327 209.363,-96.615 		
			"/>
		<polygon fill="#8C8D9B" points="205,-103.566 163.959,-136.117 162.545,-132.175 205.396,-98.188 206,-97.709 206,-102.772 
			205.396,-103.252 		"/>
		<polygon fill="#8C8D9B" points="209,-155.832 209.363,-156.12 234.488,-176.048 233.073,-179.99 209.363,-161.184 
			208.371,-160.396 208.183,-160.546 205.396,-162.757 205,-163.071 180.581,-182.439 179.167,-178.497 205.396,-157.693 
			208.183,-155.483 208.371,-155.334 		"/>
		<polygon fill="#8C8D9B" points="209,-109.494 209.363,-109.781 247.431,-139.977 246.725,-141.947 209.363,-112.313 
			208.371,-111.527 208.183,-111.677 205.396,-113.887 205,-114.201 166.93,-144.395 166.223,-142.425 205.396,-111.355 
			208.183,-109.145 208.371,-108.995 		"/>
		<polygon fill="#8C8D9B" points="209,-96.327 209,-101.39 209,-101.678 209,-106 206,-106 206,-102.772 206,-97.709 206,-86 
			206,-52 209,-52 209,-86 		"/>
		<path fill="#8C8D9B" d="M318.461-401.007L333-388.92v-3.483l-12.681-10.542C319.798-402.211,319.171-401.559,318.461-401.007z"/>
		<path fill="#8C8D9B" d="M351.071-401.239c-0.685-0.579-1.282-1.255-1.773-2.008L336-392.151v3.487L351.071-401.239z"/>
		<path fill="#8C8D9B" d="M351.071-432.038c-0.685-0.579-1.282-1.255-1.773-2.009L336-422.95v3.487L351.071-432.038z"/>
		<path fill="#8C8D9B" d="M320.319-433.744c-0.522,0.734-1.148,1.386-1.858,1.938L333-419.719v-3.483L320.319-433.744z"/>
		<path fill="#8C8D9B" d="M320.319-464.543c-0.522,0.734-1.148,1.386-1.858,1.938L333-450.518v-3.483L320.319-464.543z"/>
		<path fill="#8C8D9B" d="M351.071-462.836c-0.685-0.579-1.282-1.255-1.773-2.009L336-453.749v3.487L351.071-462.836z"/>
		<path fill="#8C8D9B" d="M320.319-495.342c-0.522,0.734-1.148,1.386-1.858,1.938L333-481.316v-3.483L320.319-495.342z"/>
		<path fill="#8C8D9B" d="M351.071-493.635c-0.685-0.579-1.282-1.255-1.773-2.009L336-484.548v3.487L351.071-493.635z"/>
		<path fill="#8C8D9B" d="M320.876-525.678c-0.437,0.789-0.986,1.506-1.625,2.132L333-512.115v-3.483L320.876-525.678z"/>
		<path fill="#8C8D9B" d="M350.322-523.809c-0.616-0.652-1.136-1.393-1.542-2.202L336-515.347v3.487L350.322-523.809z"/>
		<path fill="#8C8D9B" d="M333-378h3v-10.664v-3.487v-27.312v-3.487v-27.312v-3.487v-27.312v-3.487v-27.312v-3.487v-25.831
			c-0.569,0.11-1.155,0.172-1.757,0.172c-0.423,0-0.835-0.039-1.243-0.094v25.501v3.483v27.315v3.483v27.315v3.483v27.315v3.483
			v27.315v3.483V-378z"/>
		<path fill="#C3B9AE" d="M351.071-432.038c1.603,1.355,3.673,2.175,5.936,2.175c5.084,0,9.207-4.122,9.207-9.206
			c0-5.084-4.122-9.206-9.207-9.206c-5.084,0-9.206,4.122-9.206,9.206c0,1.854,0.553,3.577,1.497,5.022
			C349.789-433.293,350.387-432.616,351.071-432.038z"/>
		<path fill="#A5867D" d="M320.319-433.744c1.069-1.504,1.705-3.338,1.705-5.324c0-5.084-4.122-9.206-9.206-9.206
			s-9.206,4.122-9.206,9.206c0,5.084,4.122,9.206,9.206,9.206c2.129,0,4.084-0.73,5.644-1.943
			C319.171-432.358,319.797-433.01,320.319-433.744z"/>
		<path fill="#A5867D" d="M351.071-401.239c1.604,1.355,3.673,2.176,5.937,2.176c5.084,0,9.207-4.122,9.207-9.207
			c0-5.084-4.122-9.206-9.207-9.206c-5.084,0-9.206,4.122-9.206,9.206c0,1.854,0.553,3.577,1.497,5.022
			C349.789-402.494,350.386-401.817,351.071-401.239z"/>
		<path fill="#C3B9AE" d="M312.818-417.476c-5.084,0-9.206,4.122-9.206,9.206c0,5.084,4.122,9.207,9.206,9.207
			c2.129,0,4.084-0.73,5.644-1.944c0.71-0.552,1.336-1.205,1.858-1.938c1.069-1.504,1.705-3.338,1.705-5.324
			C322.024-413.354,317.902-417.476,312.818-417.476z"/>
		<path fill="#C3B9AE" d="M351.071-493.635c1.603,1.355,3.673,2.175,5.936,2.175c5.084,0,9.207-4.122,9.207-9.206
			c0-5.084-4.122-9.206-9.207-9.206c-5.084,0-9.206,4.122-9.206,9.206c0,1.854,0.553,3.577,1.497,5.022
			C349.789-494.891,350.387-494.214,351.071-493.635z"/>
		<path fill="#C3B9AE" d="M320.319-495.342c1.069-1.504,1.705-3.338,1.705-5.324c0-5.084-4.122-9.206-9.206-9.206
			s-9.206,4.122-9.206,9.206c0,5.084,4.122,9.206,9.206,9.206c2.129,0,4.084-0.73,5.644-1.943
			C319.171-493.956,319.797-494.608,320.319-495.342z"/>
		<path fill="#A5867D" d="M357.007-520.919c5.084,0,9.207-4.122,9.207-9.206c0-5.084-4.122-9.207-9.207-9.207
			c-5.084,0-9.206,4.122-9.206,9.207c0,1.48,0.358,2.875,0.979,4.114c0.406,0.81,0.926,1.55,1.542,2.202
			C352-522.034,354.372-520.919,357.007-520.919z"/>
		<path fill="#C3B9AE" d="M336-541.178c4.243-0.821,7.449-4.551,7.449-9.034c0-5.084-4.122-9.206-9.206-9.206
			s-9.206,4.122-9.206,9.206c0,4.662,3.468,8.504,7.963,9.112c0.408,0.055,0.82,0.094,1.243,0.094
			C334.845-541.006,335.431-541.068,336-541.178z"/>
		<path fill="#C3B9AE" d="M320.876-525.678c0.729-1.319,1.147-2.834,1.147-4.448c0-5.084-4.122-9.207-9.206-9.207
			s-9.206,4.122-9.206,9.207c0,5.084,4.122,9.206,9.206,9.206c2.505,0,4.773-1.003,6.433-2.626
			C319.891-524.172,320.44-524.889,320.876-525.678z"/>
		<path fill="#C3B9AE" d="M351.071-462.836c1.603,1.355,3.673,2.175,5.936,2.175c5.084,0,9.207-4.122,9.207-9.206
			c0-5.084-4.122-9.206-9.207-9.206c-5.084,0-9.206,4.122-9.206,9.206c0,1.854,0.553,3.577,1.497,5.022
			C349.789-464.092,350.387-463.415,351.071-462.836z"/>
		<path fill="#C3B9AE" d="M320.319-464.543c1.069-1.504,1.705-3.338,1.705-5.324c0-5.084-4.122-9.206-9.206-9.206
			s-9.206,4.122-9.206,9.206c0,5.084,4.122,9.206,9.206,9.206c2.129,0,4.084-0.73,5.644-1.943
			C319.171-463.157,319.797-463.809,320.319-464.543z"/>
		<polygon fill="#8C8D9B" points="57,-98 58,-98 58,-167 57,-167 57,-170 58,-170 58,-202 56,-202 56,-135 57,-135 57,-133 56,-133 
			56,-66 57,-66 57,-63 56,-63 56,-4 58,-4 58,-26 57,-26 57,-28 58,-28 58,-95 57,-95 		"/>
		<path fill="#8C8D9B" d="M57-26h1h11.45C75.867-26,81-30.857,81-37.434v-6.841c-0.343,0.163-1,0.322-1,0.482v0.262
			c0-0.043-0.402-0.088-0.5-0.131c-0.098,0.043-0.5,0.088-0.5,0.131v-0.262c0-0.208-0.56-0.418-1-0.631v6.989
			C78-32.333,74.391-28,69.45-28H58h-1V-26z"/>
		<path fill="#C3B9AE" d="M79.938-86.94c0,0-0.104,0.08-0.288,0.226c0.081,0.064,0.176,0.141,0.288,0.232V-86.94z"/>
		<path fill="#C3B9AE" d="M79.938-43.53v-0.262c-0.097,0.044-0.19,0.088-0.288,0.131C79.748-43.618,79.839-43.573,79.938-43.53z"/>
		<path fill="#C3B9AE" d="M79-86.482c-4,3.574-31.813,27.378-1.362,42.06C78.078-44.21,79-44,79-43.792V-86.482z"/>
		<path fill="#8C8D9B" d="M79-43.792v0.262c0-0.043,0.371-0.088,0.469-0.131c0.098-0.043,0.282-0.087,0.378-0.131
			c0.357-0.16,0.764-0.319,1.107-0.482c30.942-14.669,3.373-38.622-1.039-42.208c-0.112-0.092-0.377-0.168-0.458-0.232
			C79.274-86.86,79-86.94,79-86.94v0.458V-43.792z"/>
		<path fill="#8C8D9B" d="M57-66h-1H45.522C40.768-66,37-70.054,37-75.43v-7.003c-0.45,0.218-1,0.432-1,0.645v0.262
			c0-0.043-0.402-0.088-0.5-0.131c-0.098,0.043-0.5,0.088-0.5,0.131v-0.262c0-0.156-0.666-0.312-1-0.47v6.828
			C34-68.576,39.291-63,45.522-63H56h1V-66z"/>
		<path fill="#C3B9AE" d="M35.034-124.938v0.458c0.112-0.092,0.207-0.168,0.288-0.232C35.139-124.857,35.034-124.938,35.034-124.938
			z"/>
		<path fill="#C3B9AE" d="M35.034-81.526c0.099-0.043,0.19-0.088,0.288-0.131c-0.098-0.043-0.191-0.087-0.288-0.131V-81.526z"/>
		<path fill="#C3B9AE" d="M36-81.788c0-0.213,0.94-0.427,1.39-0.645C67.795-97.116,40-120.907,36-124.479V-81.788z"/>
		<path fill="#8C8D9B" d="M35.518-81.657C35.615-81.614,36-81.569,36-81.526v-0.262v-42.691v-0.458c0,0-0.3,0.08-0.482,0.226
			c-0.081,0.064-0.273,0.141-0.386,0.232c-4.413,3.587-32.069,27.553-1.083,42.222c0.334,0.158,0.759,0.313,1.107,0.47
			C35.253-81.744,35.419-81.7,35.518-81.657z"/>
		<path fill="#8C8D9B" d="M69.45-98H58h-1v3h1h11.45C76.085-95,81-100.031,81-106.518v-6.842c-0.343,0.163-1,0.322-1,0.482v0.262
			c0-0.043-0.402-0.088-0.5-0.131c-0.098,0.043-0.5,0.088-0.5,0.131v-0.262c0-0.208-0.56-0.418-1-0.631v6.99
			C78-101.558,74.558-98,69.45-98z"/>
		<path fill="#C3B9AE" d="M79.938-156.025c0,0-0.104,0.08-0.288,0.226c0.081,0.064,0.176,0.141,0.288,0.232V-156.025z"/>
		<path fill="#C3B9AE" d="M79-155.567c-4,3.573-31.813,27.378-1.362,42.06c0.44,0.213,1.362,0.423,1.362,0.631V-155.567z"/>
		<path fill="#C3B9AE" d="M79.938-112.615v-0.262c-0.097,0.044-0.19,0.088-0.288,0.131
			C79.748-112.703,79.839-112.658,79.938-112.615z"/>
		<path fill="#8C8D9B" d="M79-112.877v0.262c0-0.043,0.371-0.088,0.469-0.131c0.098-0.043,0.282-0.087,0.378-0.131
			c0.357-0.16,0.764-0.319,1.107-0.482c30.942-14.669,3.373-38.622-1.039-42.208c-0.112-0.092-0.377-0.168-0.458-0.232
			c-0.184-0.146-0.458-0.226-0.458-0.226v0.458V-112.877z"/>
		<path fill="#8C8D9B" d="M57-167h1h11.45c6.526,0,11.55-5.549,11.55-12.057v-6.842c-0.343,0.163-1,0.322-1,0.482v0.262
			c0-0.043-0.402-0.088-0.5-0.131c-0.098,0.043-0.5,0.088-0.5,0.131v-0.262c0-0.208-0.56-0.418-1-0.631v6.99
			c0,5.007-3.525,9.057-8.55,9.057H58h-1V-167z"/>
		<path fill="#C3B9AE" d="M79.938-228.565c0,0-0.104,0.08-0.288,0.226c0.081,0.064,0.176,0.141,0.288,0.231V-228.565z"/>
		<path fill="#C3B9AE" d="M79.938-185.154v-0.262c-0.097,0.044-0.19,0.088-0.288,0.131
			C79.748-185.242,79.839-185.197,79.938-185.154z"/>
		<path fill="#C3B9AE" d="M79-228.107c-4,3.574-31.813,27.378-1.362,42.061c0.44,0.213,1.362,0.423,1.362,0.631V-228.107z"/>
		<path fill="#8C8D9B" d="M79-185.416v0.262c0-0.043,0.371-0.088,0.469-0.131c0.098-0.043,0.282-0.087,0.378-0.131
			c0.357-0.16,0.764-0.319,1.107-0.482c30.942-14.67,3.373-38.623-1.039-42.209c-0.112-0.091-0.377-0.167-0.458-0.231
			c-0.184-0.146-0.458-0.226-0.458-0.226v0.458V-185.416z"/>
		<path fill="#8C8D9B" d="M57-135h-1H45.522c-4.916,0-8.522-4.268-8.522-9.514v-7.004c-0.45,0.218-1,0.432-1,0.645v0.262
			c0-0.043-0.402-0.088-0.5-0.131c-0.098,0.043-0.5,0.088-0.5,0.131v-0.262c0-0.156-0.666-0.312-1-0.47v6.829
			C34-137.852,39.185-133,45.522-133H56h1V-135z"/>
		<path fill="#C3B9AE" d="M35.034-194.021v0.458c0.112-0.092,0.207-0.168,0.288-0.232C35.139-193.941,35.034-194.021,35.034-194.021
			z"/>
		<path fill="#C3B9AE" d="M36-150.873c0-0.213,0.94-0.427,1.39-0.645C67.795-166.201,40-189.991,36-193.563V-150.873z"/>
		<path fill="#C3B9AE" d="M35.034-150.611c0.099-0.043,0.19-0.088,0.288-0.131c-0.098-0.043-0.191-0.087-0.288-0.131V-150.611z"/>
		<path fill="#8C8D9B" d="M35.518-150.742c0.098,0.043,0.482,0.088,0.482,0.131v-0.262v-42.69v-0.458c0,0-0.3,0.08-0.482,0.226
			c-0.081,0.064-0.273,0.141-0.386,0.232c-4.413,3.587-32.069,27.552-1.083,42.221c0.334,0.158,0.759,0.313,1.107,0.47
			C35.253-150.829,35.419-150.785,35.518-150.742z"/>
		<path fill="#8C8D9B" d="M60-202v-3h-2h-2h-8.75c-5.138,0-9.25-3.665-9.25-8.599v-6.66c-0.218,0.101,0,0.201-1,0.301v0.261
			c0-0.043,0.098-0.087,0-0.13c-0.098,0.043,0,0.087,0,0.13v-0.261c0-0.115-0.751-0.229-1-0.346v6.704
			C36-207.138,40.585-202,47.25-202H56h2H60z"/>
		<path fill="#C3B9AE" d="M36.762-263.107v0.457c0.112-0.091,0.207-0.167,0.287-0.231C36.866-263.027,36.762-263.107,36.762-263.107
			z"/>
		<path fill="#C3B9AE" d="M36.762-219.696c0.099-0.043,0.189-0.087,0.287-0.13c-0.098-0.043-0.19-0.087-0.287-0.131V-219.696z"/>
		<path fill="#C3B9AE" d="M37-219.958c1-0.1,0.446-0.2,0.664-0.301C69.229-234.913,42-259.052,37-262.65V-219.958z"/>
		<path fill="#8C8D9B" d="M36.881-219.827c0.098,0.043,0.119,0.087,0.119,0.13v-0.261v-42.693v-0.457c0,0,0.063,0.08-0.119,0.226
			c-0.081,0.064-0.091,0.14-0.203,0.231c-4.423,3.595-32.132,27.688-0.72,42.347c0.249,0.116,0.442,0.231,0.699,0.346
			C36.753-219.914,36.783-219.87,36.881-219.827z"/>
		<polygon fill="#8C8D9B" points="599,-467 600,-467 600,-536 599,-536 599,-539 600,-539 600,-571 598,-571 598,-504 599,-504 
			599,-502 598,-502 598,-435 599,-435 599,-432 598,-432 598,-373 600,-373 600,-395 599,-395 599,-397 600,-397 600,-464 
			599,-464 		"/>
		<path fill="#8C8D9B" d="M599-395h1h11.45c6.417,0,11.55-4.857,11.55-11.434v-6.84c-0.343,0.163-1,0.322-1,0.482v0.262
			c0-0.043-0.402-0.087-0.5-0.131c-0.098,0.043-0.5,0.088-0.5,0.131v-0.262c0-0.208-0.56-0.418-1-0.63v6.989
			c0,5.101-3.609,9.434-8.55,9.434H600h-1V-395z"/>
		<path fill="#C3B9AE" d="M621.938-455.94c0,0-0.104,0.08-0.288,0.226c0.081,0.064,0.176,0.141,0.288,0.231V-455.94z"/>
		<path fill="#C3B9AE" d="M621.938-412.53v-0.262c-0.097,0.043-0.19,0.088-0.288,0.131
			C621.748-412.618,621.839-412.573,621.938-412.53z"/>
		<path fill="#C3B9AE" d="M621-455.483c-4,3.574-31.813,27.378-1.362,42.061c0.44,0.212,1.362,0.422,1.362,0.63V-455.483z"/>
		<path fill="#8C8D9B" d="M621-412.792v0.262c0-0.043,0.371-0.087,0.469-0.131c0.098-0.043,0.282-0.087,0.378-0.131
			c0.357-0.16,0.764-0.319,1.107-0.482c30.942-14.669,3.373-38.623-1.039-42.209c-0.112-0.091-0.377-0.167-0.458-0.231
			c-0.184-0.146-0.458-0.226-0.458-0.226v0.458V-412.792z"/>
		<path fill="#8C8D9B" d="M599-435h-1h-10.478c-4.754,0-8.522-4.054-8.522-9.43v-7.003c-0.45,0.217-1,0.432-1,0.645v0.262
			c0-0.043-0.402-0.087-0.5-0.131c-0.098,0.043-0.5,0.088-0.5,0.131v-0.262c0-0.156-0.666-0.311-1-0.47v6.828
			c0,6.854,5.291,12.43,11.522,12.43H598h1V-435z"/>
		<path fill="#C3B9AE" d="M577.034-493.938v0.458c0.112-0.091,0.207-0.167,0.288-0.231
			C577.139-493.857,577.034-493.938,577.034-493.938z"/>
		<path fill="#C3B9AE" d="M578-450.788c0-0.213,0.94-0.427,1.39-0.645c30.405-14.684,2.61-38.474-1.39-42.047V-450.788z"/>
		<path fill="#C3B9AE" d="M577.034-450.526c0.099-0.043,0.19-0.087,0.288-0.131c-0.098-0.043-0.191-0.087-0.288-0.131V-450.526z"/>
		<path fill="#8C8D9B" d="M577.518-450.657c0.098,0.043,0.482,0.088,0.482,0.131v-0.262v-42.692v-0.458c0,0-0.3,0.08-0.482,0.226
			c-0.081,0.064-0.273,0.141-0.386,0.231c-4.413,3.587-32.069,27.553-1.083,42.222c0.334,0.159,0.759,0.314,1.107,0.47
			C577.253-450.745,577.419-450.7,577.518-450.657z"/>
		<path fill="#8C8D9B" d="M611.45-467H600h-1v3h1h11.45c6.635,0,11.55-5.031,11.55-11.518v-6.841c-0.343,0.163-1,0.322-1,0.482
			v0.262c0-0.043-0.402-0.087-0.5-0.131c-0.098,0.043-0.5,0.088-0.5,0.131v-0.262c0-0.208-0.56-0.418-1-0.63v6.99
			C620-470.558,616.558-467,611.45-467z"/>
		<path fill="#C3B9AE" d="M621.938-525.025c0,0-0.104,0.08-0.288,0.226c0.081,0.064,0.176,0.141,0.288,0.231V-525.025z"/>
		<path fill="#C3B9AE" d="M621.938-481.615v-0.262c-0.097,0.043-0.19,0.088-0.288,0.131
			C621.748-481.703,621.839-481.658,621.938-481.615z"/>
		<path fill="#C3B9AE" d="M621-524.568c-4,3.574-31.813,27.378-1.362,42.061c0.44,0.212,1.362,0.422,1.362,0.63V-524.568z"/>
		<path fill="#8C8D9B" d="M621-481.877v0.262c0-0.043,0.371-0.087,0.469-0.131c0.098-0.043,0.282-0.087,0.378-0.131
			c0.357-0.16,0.764-0.319,1.107-0.482c30.942-14.669,3.373-38.623-1.039-42.209c-0.112-0.091-0.377-0.167-0.458-0.231
			c-0.184-0.146-0.458-0.226-0.458-0.226v0.458V-481.877z"/>
		<path fill="#8C8D9B" d="M599-536h1h11.45c6.526,0,11.55-5.549,11.55-12.057v-6.841c-0.343,0.163-1,0.322-1,0.482v0.262
			c0-0.043-0.402-0.087-0.5-0.131c-0.098,0.043-0.5,0.088-0.5,0.131v-0.262c0-0.208-0.56-0.418-1-0.63v6.99
			c0,5.007-3.525,9.057-8.55,9.057H600h-1V-536z"/>
		<path fill="#C3B9AE" d="M621.938-597.565c0,0-0.104,0.08-0.288,0.226c0.081,0.064,0.176,0.141,0.288,0.231V-597.565z"/>
		<path fill="#C3B9AE" d="M621.938-554.154v-0.262c-0.097,0.043-0.19,0.088-0.288,0.131
			C621.748-554.242,621.839-554.197,621.938-554.154z"/>
		<path fill="#C3B9AE" d="M621-597.107c-4,3.574-31.813,27.378-1.362,42.061c0.44,0.212,1.362,0.422,1.362,0.63V-597.107z"/>
		<path fill="#8C8D9B" d="M621-554.416v0.262c0-0.043,0.371-0.087,0.469-0.131c0.098-0.043,0.282-0.087,0.378-0.131
			c0.357-0.16,0.764-0.319,1.107-0.482c30.942-14.67,3.373-38.624-1.039-42.209c-0.112-0.091-0.377-0.167-0.458-0.231
			c-0.184-0.146-0.458-0.226-0.458-0.226v0.458V-554.416z"/>
		<path fill="#8C8D9B" d="M599-504h-1h-10.478c-4.916,0-8.522-4.268-8.522-9.514v-7.004c-0.45,0.217-1,0.432-1,0.645v0.262
			c0-0.043-0.402-0.087-0.5-0.131c-0.098,0.043-0.5,0.088-0.5,0.131v-0.262c0-0.156-0.666-0.311-1-0.47v6.829
			c0,6.662,5.185,11.514,11.522,11.514H598h1V-504z"/>
		<path fill="#C3B9AE" d="M577.034-563.021v0.458c0.112-0.091,0.207-0.167,0.288-0.231
			C577.139-562.941,577.034-563.021,577.034-563.021z"/>
		<path fill="#C3B9AE" d="M578-519.873c0-0.213,0.94-0.427,1.39-0.645c30.405-14.684,2.61-38.474-1.39-42.046V-519.873z"/>
		<path fill="#C3B9AE" d="M577.034-519.611c0.099-0.043,0.19-0.087,0.288-0.131c-0.098-0.043-0.191-0.087-0.288-0.131V-519.611z"/>
		<path fill="#8C8D9B" d="M577.518-519.742c0.098,0.043,0.482,0.088,0.482,0.131v-0.262v-42.691v-0.458c0,0-0.3,0.08-0.482,0.226
			c-0.081,0.064-0.273,0.141-0.386,0.231c-4.413,3.587-32.069,27.552-1.083,42.221c0.334,0.159,0.759,0.314,1.107,0.47
			C577.253-519.83,577.419-519.785,577.518-519.742z"/>
		<path fill="#8C8D9B" d="M602-571v-3h-2h-2h-8.75c-5.138,0-9.25-3.665-9.25-8.599v-6.66c-0.218,0.101,0,0.201-1,0.301v0.261
			c0-0.043,0.098-0.087,0-0.13c-0.098,0.043,0,0.087,0,0.13v-0.261c0-0.115-0.751-0.229-1-0.346v6.704
			c0,6.461,4.585,11.599,11.25,11.599H598h2H602z"/>
		<path fill="#C3B9AE" d="M578.762-632.107v0.457c0.112-0.091,0.207-0.167,0.287-0.231
			C578.866-632.027,578.762-632.107,578.762-632.107z"/>
		<path fill="#C3B9AE" d="M579-588.958c1-0.1,0.446-0.2,0.664-0.301C611.229-603.913,584-628.052,579-631.65V-588.958z"/>
		<path fill="#C3B9AE" d="M578.762-588.696c0.099-0.043,0.189-0.087,0.287-0.13c-0.098-0.043-0.19-0.087-0.287-0.131V-588.696z"/>
		<path fill="#8C8D9B" d="M578.881-588.827c0.098,0.043,0.119,0.087,0.119,0.13v-0.261v-42.693v-0.457c0,0,0.063,0.08-0.119,0.226
			c-0.081,0.064-0.091,0.14-0.203,0.231c-4.423,3.595-32.132,27.688-0.72,42.347c0.249,0.116,0.442,0.231,0.699,0.346
			C578.753-588.914,578.783-588.87,578.881-588.827z"/>
		<path fill="#C07489" d="M43.267-359.118l-15.324,3.323C41.16-357.132,49.644-353,55.033-345h35.181
			c5.474-8,14.209-12.323,28.002-10.651l-16.029-3.369l-14.507-10.647l2.602-1.737c-6.313-0.975-12.467-1.428-17.667-1.428
			c-5.149,0-11.236,0.429-17.484,1.383l2.642,1.735L43.267-359.118z"/>
		<path fill="#C07489" d="M18.026-354.26c-0.051,0.08-0.111,0.155-0.161,0.235c0.061-0.017,0.118-0.03,0.178-0.046L18.026-354.26z"
			/>
		<path fill="#C07489" d="M82.059-297.589c0.047,0.018,0.096,0.034,0.144,0.053L129.862-345h-0.393l-47.267,47.268L82.059-297.589z"
			/>
		<path fill="#C07489" d="M82.202-297.732c0,0-4.416-30.295,7.733-47.268H55.311c12.327,17.127,7.992,47.82,7.992,47.82
			c3.073-1.422,6.483-2.236,10.091-2.236C76.506-299.416,79.471-298.807,82.202-297.732z"/>
		<path fill="#C07489" d="M63.303-296.983c0.045-0.021,0.092-0.039,0.137-0.059l-0.137-0.137L15.761-345h-0.39L63.303-296.983z"/>
		<path fill="#4C403E" d="M73.394-299.416c-3.608,0-7.018,0.814-10.091,2.236l0.137,0.137l9.037,9.036l9.582-9.582l0.144-0.144
			C79.471-298.807,76.506-299.416,73.394-299.416z"/>
		<path fill="#C07489" d="M102.188-359.118l16.029,3.271c2.844,0.345,5.896,0.952,9.186,1.874c0,0-23.429-7.038,4.022-44.533
			l-41.141,27.078l-2.602,1.712L102.188-359.118z"/>
		<path fill="#4C403E" d="M127.402-353.974l4.022-44.533C103.973-361.012,127.402-353.974,127.402-353.974z"/>
		<path fill="#C07489" d="M18.853-354.282c3.253-0.862,6.281-1.426,9.09-1.71l15.324-3.126l14.507-10.598l-2.642-1.739
			l-41.101-27.052C38.364-365.271,22.721-355.967,18.853-354.282z"/>
		<path fill="#4C403E" d="M18.853-354.282c3.868-1.685,19.511-10.989-4.822-44.225l3.996,44.247l0.017,0.189
			C18.317-354.147,18.582-354.21,18.853-354.282z"/>
		<path fill="#FFD6CC" d="M127.402-353.974c0,0,2.794,3.895,2.46,8.581L129.469-345l-47.267,47.268c0,0-4.416-30.295,7.733-47.268
			c0.094-0.131,0.184-0.264,0.279-0.393c5.474-7.397,14.209-12.126,28.002-10.455C121.061-355.503,124.112-354.896,127.402-353.974z
			 M92.141-325.305c0-1.725-1.398-3.124-3.125-3.124c-1.726,0-3.125,1.399-3.125,3.124c0,1.727,1.399,3.124,3.125,3.124
			C90.742-322.181,92.141-323.578,92.141-325.305z"/>
		<path fill="#FFD6CC" d="M63.303-297.177l-47.542-47.817l-0.39-0.387c-0.335-4.687,2.491-8.619,2.491-8.619
			c0.001,0,0.002,0,0.004,0c0.061,0,0.118-0.042,0.178-0.059c0.274-0.076,0.538-0.151,0.809-0.223
			c3.253-0.862,6.281-1.426,9.09-1.71c13.218-1.336,21.701,3.352,27.091,10.599c0.096,0.128,0.185,0.263,0.278,0.393
			C67.638-327.873,63.303-297.177,63.303-297.177z M58.664-325.305c0-1.725-1.398-3.124-3.125-3.124
			c-1.726,0-3.124,1.399-3.124,3.124c0,1.727,1.398,3.124,3.124,3.124C57.265-322.181,58.664-323.578,58.664-325.305z"/>
		<path fill="#4C403E" d="M89.016-328.429c-1.726,0-3.125,1.399-3.125,3.124c0,1.727,1.399,3.124,3.125,3.124
			c1.726,0,3.125-1.397,3.125-3.124C92.141-327.029,90.742-328.429,89.016-328.429z"/>
		<path fill="#4C403E" d="M55.539-328.429c-1.726,0-3.124,1.399-3.124,3.124c0,1.727,1.398,3.124,3.124,3.124
			c1.726,0,3.125-1.397,3.125-3.124C58.664-327.029,57.265-328.429,55.539-328.429z"/>
		<path fill="#C07489" d="M420.026-358.26c-0.051,0.08-0.111,0.155-0.161,0.235c0.061-0.017,0.118-0.03,0.178-0.046L420.026-358.26z
			"/>
		<path fill="#C07489" d="M445.267-363.118l-15.324,3.323C443.16-361.132,451.644-357,457.033-349h35.181
			c5.474-8,14.209-12.323,28.002-10.651l-16.029-3.369l-14.507-10.647l2.602-1.737c-6.313-0.975-12.467-1.428-17.667-1.428
			c-5.149,0-11.236,0.429-17.484,1.383l2.642,1.735L445.267-363.118z"/>
		<path fill="#C07489" d="M465.303-301.18c3.073-1.422,6.483-2.236,10.091-2.236c3.112,0,6.078,0.609,8.809,1.684
			c0,0-4.416-30.295,7.733-47.268h-34.624C469.638-331.873,465.303-301.18,465.303-301.18z"/>
		<path fill="#C07489" d="M484.059-301.589c0.047,0.018,0.096,0.034,0.144,0.053L531.862-349h-0.393l-47.267,47.268L484.059-301.589
			z"/>
		<path fill="#C07489" d="M417.761-349h-0.39l47.932,48.017c0.045-0.021,0.092-0.039,0.137-0.059l-0.137-0.137L417.761-349z"/>
		<path fill="#4C403E" d="M475.394-303.416c-3.608,0-7.018,0.814-10.091,2.236l0.137,0.137l9.037,9.036l9.582-9.582l0.144-0.144
			C481.471-302.807,478.506-303.416,475.394-303.416z"/>
		<path fill="#C07489" d="M533.424-402.506l-41.141,27.078l-2.602,1.712l14.507,10.598l16.029,3.271
			c2.844,0.345,5.896,0.952,9.186,1.874C529.402-357.974,505.973-365.012,533.424-402.506z"/>
		<path fill="#4C403E" d="M529.402-357.974l4.022-44.533C505.973-365.012,529.402-357.974,529.402-357.974z"/>
		<path fill="#C07489" d="M420.853-358.282c3.253-0.862,6.281-1.426,9.09-1.71l15.324-3.126l14.507-10.598l-2.642-1.739
			l-41.101-27.052C440.364-369.271,424.721-359.967,420.853-358.282z"/>
		<path fill="#4C403E" d="M420.853-358.282c3.868-1.685,19.511-10.989-4.822-44.225l3.996,44.247l0.017,0.189
			C420.317-358.147,420.582-358.21,420.853-358.282z"/>
		<path fill="#FFD6CC" d="M529.402-357.974c0,0,2.794,3.895,2.46,8.581L531.469-349l-47.267,47.268c0,0-4.416-30.295,7.733-47.268
			c0.094-0.131,0.184-0.264,0.279-0.393c5.474-7.397,14.209-12.126,28.002-10.455C523.061-359.503,526.112-358.896,529.402-357.974z
			 M494.141-329.305c0-1.725-1.398-3.124-3.125-3.124c-1.726,0-3.125,1.399-3.125,3.124c0,1.727,1.399,3.124,3.125,3.124
			C492.742-326.181,494.141-327.578,494.141-329.305z"/>
		<path fill="#FFD6CC" d="M465.303-301.177l-47.542-47.817l-0.39-0.387c-0.335-4.687,2.491-8.619,2.491-8.619
			c0.001,0,0.002,0,0.004,0c0.061,0,0.118-0.042,0.178-0.059c0.274-0.076,0.538-0.151,0.809-0.223
			c3.253-0.862,6.281-1.426,9.09-1.71c13.218-1.336,21.701,3.352,27.091,10.599c0.096,0.128,0.185,0.263,0.278,0.393
			C469.638-331.873,465.303-301.177,465.303-301.177z M460.664-329.305c0-1.725-1.398-3.124-3.125-3.124
			c-1.726,0-3.124,1.399-3.124,3.124c0,1.727,1.398,3.124,3.124,3.124C459.265-326.181,460.664-327.578,460.664-329.305z"/>
		<path fill="#4C403E" d="M491.016-332.429c-1.726,0-3.125,1.399-3.125,3.124c0,1.727,1.399,3.124,3.125,3.124
			c1.726,0,3.125-1.397,3.125-3.124C494.141-331.029,492.742-332.429,491.016-332.429z"/>
		<path fill="#4C403E" d="M457.539-332.429c-1.726,0-3.124,1.399-3.124,3.124c0,1.727,1.398,3.124,3.124,3.124
			c1.726,0,3.125-1.397,3.125-3.124C460.664-331.029,459.265-332.429,457.539-332.429z"/>
		<path fill="#C07489" d="M253.823-620.575l-10.967-0.843c1.248,2.826,2.206,5.747,2.873,8.722L253.823-620.575z"/>
		<path fill="#C07489" d="M178.313-581.02l-0.022-0.006l-34.968,33.979l14.514-2.31l0.331,10.886l19.244-22.046
			c-4.049-2.151-7.853-4.928-11.263-8.339L178.313-581.02z"/>
		<path fill="#5A4C5C" d="M178.313-581.02l3.839-3.839l-6.131,6.131c9.739,9.74,25.529,9.74,35.269,0.001
			c9.739-9.742,9.739-25.529,0.001-35.27l21.749-21.749c4.258,4.258,7.522,9.131,9.817,14.328c1.248,2.826,2.206,5.747,2.873,8.722
			c3.429,15.287-0.792,31.943-12.69,43.842c-3.904,3.905-8.325,6.974-13.039,9.228V-562h-1v2.837c-3.854,1.733-7.892,2.923-12,3.571
			V-559h-2v3.678c-9.391,1.074-19.039-0.652-27.589-5.195c-4.049-2.151-7.853-4.928-11.263-8.339L178.313-581.02z M228.1-620.106
			c0,2.281,1.849,4.129,4.13,4.129c2.281,0,4.129-1.849,4.129-4.129c0-2.281-1.849-4.129-4.129-4.129
			C229.949-624.236,228.1-622.388,228.1-620.106z"/>
		<path fill="#C07489" d="M176.021-578.728c9.739,9.74,25.529,9.74,35.269,0.001c9.739-9.742,9.739-25.529,0.001-35.27
			c0,0-0.001-0.001-0.001-0.001l-29.138,29.139L176.021-578.728z"/>
		<path fill="#C07489" d="M232.23-615.977c2.281,0,4.129-1.849,4.129-4.129c0-2.281-1.849-4.129-4.129-4.129
			c-2.281,0-4.13,1.848-4.13,4.129C228.1-617.826,229.949-615.977,232.23-615.977z"/>
		<polygon fill="#C07489" points="219,-543.384 219,-538 220,-538 220,-543.965 219.871,-544.068 		"/>
		<polygon fill="#C07489" points="219,-562 219,-559.163 219,-545.087 219.875,-545.774 220,-545.675 220,-559.626 220,-562 		"/>
		<polygon fill="#C07489" points="219,-545.087 213.389,-540.682 214.216,-539.629 219,-543.384 219.871,-544.068 220,-543.965 
			225.46,-539.631 226.293,-540.68 220,-545.675 219.875,-545.774 		"/>
		<polygon fill="#C07489" points="205,-541.83 205,-536 207,-536 207,-541.148 205.573,-542.28 		"/>
		<polygon fill="#C07489" points="205,-559 205,-555.322 205,-543.534 205.577,-543.987 207,-542.857 207,-555.592 207,-559 		"/>
		<polygon fill="#C07489" points="205,-543.534 199.092,-538.894 199.918,-537.841 205,-541.83 205.573,-542.28 207,-541.148 
			211.163,-537.843 211.996,-538.892 207,-542.857 205.577,-543.987 		"/>
		<path fill="#C07489" d="M363.823-327.575l-10.967-0.843c1.248,2.826,2.206,5.747,2.873,8.722L363.823-327.575z"/>
		<path fill="#C07489" d="M288.313-288.02l-0.022-0.006l-34.968,33.979l14.514-2.31l0.331,10.886l19.244-22.046
			c-4.049-2.151-7.853-4.928-11.263-8.339L288.313-288.02z"/>
		<path fill="#5A4C5C" d="M343.039-275.854c-3.904,3.905-8.325,6.974-13.039,9.228V-269h-1v2.837c-3.854,1.733-7.892,2.923-12,3.571
			V-266h-2v3.678c-9.391,1.074-19.039-0.652-27.589-5.195c-4.049-2.151-7.853-4.928-11.263-8.339l12.165-12.164l3.839-3.839
			l-6.131,6.131c9.739,9.74,25.529,9.74,35.269,0.001c9.739-9.742,9.739-25.529,0.001-35.27l21.749-21.749
			c4.258,4.258,7.522,9.131,9.817,14.328c1.248,2.826,2.206,5.747,2.873,8.722C359.157-304.409,354.936-287.753,343.039-275.854z
			 M346.359-327.106c0-2.281-1.849-4.129-4.129-4.129c-2.281,0-4.13,1.848-4.13,4.129c0,2.281,1.849,4.129,4.13,4.129
			C344.511-322.977,346.359-324.826,346.359-327.106z"/>
		<path fill="#C07489" d="M286.021-285.728c9.739,9.74,25.529,9.74,35.269,0.001c9.739-9.742,9.739-25.529,0.001-35.27
			c0,0-0.001-0.001-0.001-0.001l-29.138,29.139L286.021-285.728z"/>
		<path fill="#C07489" d="M342.23-331.236c-2.281,0-4.13,1.848-4.13,4.129c0,2.281,1.849,4.129,4.13,4.129
			c2.281,0,4.129-1.849,4.129-4.129C346.359-329.388,344.511-331.236,342.23-331.236z"/>
		<polygon fill="#C07489" points="329,-250.384 329,-245 330,-245 330,-250.965 329.871,-251.068 		"/>
		<polygon fill="#C07489" points="329,-269 329,-266.163 329,-252.087 329.875,-252.774 330,-252.675 330,-266.626 330,-269 		"/>
		<polygon fill="#C07489" points="329,-252.087 323.389,-247.682 324.216,-246.629 329,-250.384 329.871,-251.068 330,-250.965 
			335.46,-246.631 336.293,-247.68 330,-252.675 329.875,-252.774 		"/>
		<polygon fill="#C07489" points="315,-248.83 315,-243 317,-243 317,-248.148 315.573,-249.28 		"/>
		<polygon fill="#C07489" points="315,-266 315,-262.322 315,-250.534 315.577,-250.987 317,-249.857 317,-262.592 317,-266 		"/>
		<polygon fill="#C07489" points="315,-250.534 309.092,-245.894 309.918,-244.841 315,-248.83 315.573,-249.28 317,-248.148 
			321.163,-244.843 321.996,-245.892 317,-249.857 315.577,-250.987 		"/>
		<path fill="#C07489" d="M570.855-105.418c1.248,2.826,2.206,5.747,2.873,8.723l8.094-7.88L570.855-105.418z"/>
		<path fill="#C07489" d="M504.021-62.729L504.021-62.729l2.291-2.291l-0.021-0.006l-34.968,33.979l14.514-2.311l0.331,10.887
			l19.243-22.046c-4.048-2.151-7.852-4.928-11.263-8.339L504.021-62.729z"/>
		<path fill="#5A4C5C" d="M570.855-105.418c1.248,2.826,2.206,5.747,2.873,8.723c3.429,15.286-0.792,31.942-12.69,43.842
			c-3.904,3.904-8.325,6.974-13.039,9.228V-46h-1v2.838c-3.854,1.733-7.892,2.923-12,3.57V-43h-2v3.679
			c-9.391,1.074-19.039-0.652-27.589-5.195c-4.048-2.151-7.852-4.928-11.263-8.339l9.873-9.873c9.74,9.74,25.529,9.74,35.269,0.002
			c9.739-9.742,9.739-25.529,0.001-35.271l21.749-21.749C565.297-115.487,568.561-110.615,570.855-105.418z M564.359-104.106
			c0-2.281-1.849-4.13-4.129-4.13c-2.281,0-4.13,1.849-4.13,4.13c0,2.28,1.849,4.13,4.13,4.13
			C562.511-99.977,564.359-101.826,564.359-104.106z"/>
		<path fill="#C07489" d="M504.021-62.729c9.74,9.74,25.529,9.74,35.269,0.002c9.739-9.742,9.739-25.529,0.001-35.271
			c0-0.001-0.001-0.001-0.001-0.001L506.312-65.02L504.021-62.729L504.021-62.729z"/>
		<path fill="#C07489" d="M560.23-108.236c-2.281,0-4.13,1.849-4.13,4.13c0,2.28,1.849,4.13,4.13,4.13
			c2.281,0,4.129-1.85,4.129-4.13C564.359-106.388,562.511-108.236,560.23-108.236z"/>
		<polygon fill="#C07489" points="547,-27.385 547,-22 548,-22 548,-27.966 547.871,-28.068 		"/>
		<polygon fill="#C07489" points="547,-46 547,-43.162 547,-29.087 547.875,-29.774 548,-29.675 548,-43.626 548,-46 		"/>
		<polygon fill="#C07489" points="547,-29.087 541.389,-24.682 542.216,-23.629 547,-27.385 547.871,-28.068 548,-27.966 
			553.46,-23.631 554.293,-24.68 548,-29.675 547.875,-29.774 		"/>
		<polygon fill="#C07489" points="533,-25.83 533,-20 535,-20 535,-25.147 533.573,-26.28 		"/>
		<polygon fill="#C07489" points="533,-43 533,-39.321 533,-27.533 533.577,-27.986 535,-26.857 535,-39.592 535,-43 		"/>
		<polygon fill="#C07489" points="533,-27.533 527.092,-22.895 527.918,-21.842 533,-25.83 533.573,-26.28 535,-25.147 
			539.163,-21.844 539.996,-22.893 535,-26.857 533.577,-27.986 		"/>
		<path fill="#C3B9AE" d="M308.291-593.066c0.105,0.024,0.204,0.042,0.309,0.065c-0.053-0.093-0.102-0.184-0.154-0.275
			L308.291-593.066z"/>
		<path fill="#C3B9AE" d="M334.225-627.312l-25.316,34.376C343.837-585.371,335.667-621.75,334.225-627.312z"/>
		<path fill="#C3B9AE" d="M334.033-628.021l-0.271,0.368c0.145-0.007,0.266-0.012,0.369-0.016
			C334.07-627.895,334.033-628.021,334.033-628.021z"/>
		<path fill="#8C8D9B" d="M308.6-593.001c0.053,0.093,0.1,0.183,0.154,0.276l0.155-0.21l25.316-34.376l0.271-0.368
			c0,0-0.131,0.002-0.365,0.011c-0.103,0.004-0.225,0.009-0.369,0.016c-5.739,0.274-42.903,3.266-25.316,34.376
			C308.498-593.185,308.546-593.094,308.6-593.001z"/>
		<path fill="#C3B9AE" d="M400.733-612.5l0.215,0.404c0.056-0.133,0.104-0.245,0.146-0.34
			C400.863-612.479,400.733-612.5,400.733-612.5z"/>
		<path fill="#C3B9AE" d="M401.455-612.367l20.049,37.692C443.43-602.898,407.092-611.262,401.455-612.367z"/>
		<path fill="#C3B9AE" d="M421.119-574.174c0.067-0.084,0.126-0.166,0.192-0.25c-0.106,0.008-0.208,0.013-0.314,0.02
			L421.119-574.174z"/>
		<path fill="#8C8D9B" d="M420.997-574.404c0.105-0.007,0.208-0.012,0.314-0.02c0.107-0.008,0.208-0.011,0.316-0.02l-0.123-0.231
			l-20.049-37.692l-0.214-0.402c0,0-0.054,0.119-0.147,0.333c-0.041,0.095-0.089,0.207-0.146,0.34
			C398.714-606.805,385.339-572,420.997-574.404z"/>
		<path fill="#C3B9AE" d="M154.102-306.683l22.544,36.254C196.618-300.065,159.802-305.96,154.102-306.683z"/>
		<path fill="#C3B9AE" d="M176.295-269.902c0.061-0.089,0.115-0.174,0.175-0.263c-0.106,0.015-0.208,0.027-0.313,0.041
			L176.295-269.902z"/>
		<path fill="#C3B9AE" d="M153.373-306.768l0.241,0.388c0.047-0.136,0.087-0.251,0.122-0.348
			C153.503-306.755,153.373-306.768,153.373-306.768z"/>
		<path fill="#8C8D9B" d="M153.861-307.071c0,0-0.046,0.123-0.125,0.344c-0.035,0.097-0.075,0.212-0.122,0.348
			c-1.873,5.432-12.869,41.057,22.544,36.255c0.105-0.014,0.207-0.026,0.313-0.041s0.207-0.025,0.314-0.041l-0.138-0.223
			l-22.544-36.254L153.861-307.071z"/>
		<path fill="#C3B9AE" d="M302.033-50.412l-0.443,0.114c0.116,0.085,0.213,0.158,0.296,0.221
			C301.982-50.291,302.033-50.412,302.033-50.412z"/>
		<path fill="#C3B9AE" d="M259.99-39.604c0.066,0.085,0.132,0.162,0.198,0.246c0.018-0.105,0.037-0.207,0.055-0.311L259.99-39.604z"
			/>
		<path fill="#C3B9AE" d="M301.734-49.742L260.387-39.11C282.668-11.168,299.335-44.523,301.734-49.742z"/>
		<path fill="#8C8D9B" d="M301.886-50.077c-0.083-0.063-0.18-0.136-0.296-0.221c-4.618-3.415-35.306-24.594-41.348,10.63
			c-0.018,0.104-0.037,0.205-0.055,0.311s-0.038,0.205-0.055,0.313l0.254-0.065l41.347-10.632l0.442-0.113
			C302.176-49.855,302.073-49.937,301.886-50.077z"/>
		<path fill="#C3B9AE" d="M511.734-259.742l-41.347,10.631C492.668-221.168,509.335-254.523,511.734-259.742z"/>
		<path fill="#C3B9AE" d="M512.033-260.412l-0.443,0.114c0.116,0.086,0.213,0.159,0.296,0.221
			C511.982-260.291,512.033-260.412,512.033-260.412z"/>
		<path fill="#C3B9AE" d="M469.99-249.604c0.066,0.085,0.132,0.162,0.198,0.246c0.018-0.105,0.037-0.206,0.055-0.311L469.99-249.604
			z"/>
		<path fill="#8C8D9B" d="M470.387-249.11l41.347-10.631l0.442-0.114c0,0-0.103-0.081-0.29-0.222
			c-0.083-0.063-0.18-0.135-0.296-0.221c-4.618-3.415-35.306-24.593-41.348,10.63c-0.018,0.104-0.037,0.205-0.055,0.311
			c-0.018,0.106-0.038,0.206-0.055,0.313L470.387-249.11z"/>
		<path fill="#C3B9AE" d="M306.59-205.298c0.116,0.086,0.213,0.159,0.296,0.221c0.096-0.214,0.147-0.335,0.147-0.335L306.59-205.298
			z"/>
		<path fill="#C3B9AE" d="M264.99-194.604c0.066,0.085,0.132,0.162,0.198,0.246c0.018-0.105,0.037-0.207,0.055-0.311L264.99-194.604
			z"/>
		<path fill="#C3B9AE" d="M306.734-204.742l-41.347,10.631C287.668-166.168,304.335-199.523,306.734-204.742z"/>
		<path fill="#8C8D9B" d="M265.243-194.668c-0.018,0.104-0.037,0.205-0.055,0.311s-0.038,0.205-0.055,0.313l0.254-0.065
			l41.347-10.631l0.442-0.114c0,0-0.103-0.081-0.29-0.222c-0.083-0.063-0.18-0.135-0.296-0.221
			C301.972-208.713,271.285-229.892,265.243-194.668z"/>
		<path fill="#EDDDB7" d="M36.151-593.891c5.084,0,9.206-4.122,9.206-9.207c0-5.084-4.122-9.206-9.206-9.206
			c-5.084,0-9.206,4.122-9.206,9.206C26.945-598.013,31.067-593.891,36.151-593.891z"/>
		<path fill="#EDDDB7" d="M185.357-488.097c0-5.084-4.122-9.206-9.206-9.206c-5.084,0-9.206,4.122-9.206,9.206
			c0,5.084,4.122,9.207,9.206,9.207C181.235-478.891,185.357-483.013,185.357-488.097z"/>
		<path fill="#EDDDB7" d="M529.357-425.097c0-5.084-4.122-9.206-9.206-9.206c-5.084,0-9.206,4.122-9.206,9.206
			c0,5.084,4.122,9.207,9.206,9.207C525.235-415.891,529.357-420.013,529.357-425.097z"/>
		<path fill="#EDDDB7" d="M529.151-587.891c5.084,0,9.206-4.122,9.206-9.207c0-5.084-4.122-9.206-9.206-9.206
			c-5.084,0-9.206,4.122-9.206,9.206C519.945-592.013,524.067-587.891,529.151-587.891z"/>
		<path fill="#FFD6CC" d="M267.151-511.891c5.084,0,9.206-4.122,9.206-9.207c0-5.084-4.122-9.206-9.206-9.206
			c-5.084,0-9.206,4.122-9.206,9.206C257.945-516.013,262.067-511.891,267.151-511.891z"/>
		<path fill="#FFD6CC" d="M387.151-363.891c5.084,0,9.206-4.122,9.206-9.207c0-5.084-4.122-9.206-9.206-9.206
			c-5.084,0-9.206,4.122-9.206,9.206C377.945-368.013,382.067-363.891,387.151-363.891z"/>
		<path fill="#FFD6CC" d="M313.151-141.303c-5.084,0-9.206,4.121-9.206,9.205c0,5.085,4.122,9.207,9.206,9.207
			c5.084,0,9.206-4.122,9.206-9.207C322.357-137.182,318.235-141.303,313.151-141.303z"/>
		<path fill="#FFD6CC" d="M330.151-37.303c-5.084,0-9.206,4.121-9.206,9.205c0,5.085,4.122,9.207,9.206,9.207
			c5.084,0,9.206-4.122,9.206-9.207C339.357-33.182,335.235-37.303,330.151-37.303z"/>
		<path fill="#FFD6CC" d="M428.151-29.303c-5.084,0-9.206,4.121-9.206,9.205c0,5.085,4.122,9.207,9.206,9.207
			c5.084,0,9.206-4.122,9.206-9.207C437.357-25.182,433.235-29.303,428.151-29.303z"/>
		<path fill="#FFD6CC" d="M460.151-90.303c-5.084,0-9.206,4.121-9.206,9.205c0,5.085,4.122,9.207,9.206,9.207
			c5.084,0,9.206-4.122,9.206-9.207C469.357-86.182,465.235-90.303,460.151-90.303z"/>
		<path fill="#FFD6CC" d="M612.151-69.303c-5.084,0-9.206,4.121-9.206,9.205c0,5.085,4.122,9.207,9.206,9.207
			c5.084,0,9.206-4.122,9.206-9.207C621.357-65.182,617.235-69.303,612.151-69.303z"/>
		<path fill="#FFD6CC" d="M143.151-610.891c5.084,0,9.206-4.122,9.206-9.207c0-5.084-4.122-9.206-9.206-9.206
			c-5.084,0-9.206,4.122-9.206,9.206C133.945-615.013,138.067-610.891,143.151-610.891z"/>
		<path fill="#FFD6CC" d="M143.151-52.303c-5.084,0-9.206,4.121-9.206,9.205c0,5.085,4.122,9.207,9.206,9.207
			c5.084,0,9.206-4.122,9.206-9.207C152.357-48.182,148.235-52.303,143.151-52.303z"/>
		<path fill="#FFD6CC" d="M143.945-228.097c0,5.084,4.122,9.207,9.206,9.207c5.084,0,9.206-4.122,9.206-9.207
			c0-5.084-4.122-9.206-9.206-9.206C148.067-237.303,143.945-233.181,143.945-228.097z"/>
		<path fill="#BDCFB8" d="M143.357-182.098c0-5.084-4.122-9.205-9.206-9.205c-5.084,0-9.206,4.121-9.206,9.205
			c0,5.085,4.122,9.207,9.206,9.207C139.235-172.891,143.357-177.013,143.357-182.098z"/>
		<path fill="#BDCFB8" d="M378.151-74.303c-5.084,0-9.206,4.121-9.206,9.205c0,5.085,4.122,9.207,9.206,9.207
			c5.084,0,9.206-4.122,9.206-9.207C387.357-70.182,383.235-74.303,378.151-74.303z"/>
		<path fill="#BDCFB8" d="M549.357-139.098c0-5.084-4.122-9.205-9.206-9.205c-5.084,0-9.206,4.121-9.206,9.205
			c0,5.085,4.122,9.207,9.206,9.207C545.235-129.891,549.357-134.013,549.357-139.098z"/>
		<path fill="#BDCFB8" d="M630.357-341.098c0-5.084-4.122-9.205-9.206-9.205c-5.084,0-9.206,4.121-9.206,9.205
			c0,5.085,4.122,9.207,9.206,9.207C626.235-331.891,630.357-336.013,630.357-341.098z"/>
		<path fill="#BDCFB8" d="M614.151-136.303c-5.084,0-9.206,4.121-9.206,9.205c0,5.085,4.122,9.207,9.206,9.207
			c5.084,0,9.206-4.122,9.206-9.207C623.357-132.182,619.235-136.303,614.151-136.303z"/>
	</g>
</pattern>
<rect x="700" fill="#3E3E42" width="700" height="980"/>
<rect fill="url(#New_Pattern_Swatch_2)" width="1400" height="980"/>
</svg>
